<svg width="322" height="30" viewBox="0 0 322 30" fill="none" xmlns="http://www.w3.org/2000/svg">
<path d="M40.6889 29.0994L32.8039 21.2144C32.6162 21.0267 32.6162 20.6512 32.8039 20.2757L52.8919 0.187721C53.0796 -1.71907e-05 53.0796 0 53.2674 0H60.2137C60.4014 0 60.5892 -1.71907e-05 60.5892 0.187721L68.4742 8.07274C68.6619 8.26047 68.6619 8.63595 68.4742 9.01143L48.1984 29.2871C48.0107 29.4748 47.823 29.4748 47.823 29.4748L41.0644 29.2871C40.8766 29.2871 40.6889 29.2871 40.6889 29.0994Z" fill="#293242"/>
<path d="M183.564 29.0994L175.679 21.2144C175.491 21.0267 175.491 20.6512 175.679 20.2757L195.767 0.187721C195.955 -1.71907e-05 195.955 0 196.142 0H203.089C203.276 0 203.464 -1.71907e-05 203.464 0.187721L211.349 8.07274C211.537 8.26047 211.537 8.63595 211.349 9.01143L191.073 29.2871C190.886 29.4748 190.698 29.4748 190.698 29.4748L183.939 29.2871C183.939 29.2871 183.752 29.2871 183.564 29.0994Z" fill="#293242"/>
<path d="M228.616 29.0994L220.731 21.2144C220.543 21.0267 220.543 20.6512 220.731 20.2757L240.819 0.187721C241.006 -1.71907e-05 241.006 0 241.194 0H248.14C248.328 0 248.516 -1.71907e-05 248.516 0.187721L256.401 8.07274C256.589 8.26047 256.589 8.63595 256.401 9.01143L236.125 29.2871C235.937 29.4748 235.75 29.4748 235.75 29.4748L228.991 29.2871C228.991 29.2871 228.803 29.2871 228.616 29.0994Z" fill="#293242"/>
<path d="M88.94 26.2824L77.8635 15.2058C77.6757 15.0181 77.6757 14.4549 77.8635 14.2671L88.94 3.19061C89.1277 3.00287 89.691 3.00287 89.8787 3.19061L100.955 14.2671C101.143 14.4549 101.143 15.0181 100.955 15.2058L89.8787 26.2824C89.691 26.4701 89.1277 26.4701 88.94 26.2824Z" fill="#E5644C"/>
<path d="M11.2174 26.2824L0.140804 15.2058C-0.0469346 15.0181 -0.0469346 14.4549 0.140804 14.2671L11.2174 3.19061C11.4051 3.00287 11.9683 3.00287 12.1561 3.19061L23.2326 14.2671C23.4204 14.4549 23.4204 15.0181 23.2326 15.2058L12.1561 26.2824C11.9683 26.4701 11.5928 26.4701 11.2174 26.2824Z" fill="#E5644C"/>
<path d="M154.282 26.2824L143.205 15.2058C143.018 15.0181 143.018 14.4549 143.205 14.2671L154.282 3.19061C154.47 3.00287 155.033 3.00287 155.22 3.19061L166.297 14.2671C166.485 14.4549 166.485 15.0181 166.297 15.2058L155.22 26.2824C155.033 26.4701 154.47 26.4701 154.282 26.2824Z" fill="#E5644C"/>
<path d="M121.603 26.2824L110.527 15.2058C110.339 15.0181 110.339 14.4549 110.527 14.2671L121.603 3.19061C121.791 3.00287 122.354 3.00287 122.542 3.19061L133.618 14.2671C133.806 14.4549 133.806 15.0181 133.618 15.2058L122.542 26.2824C122.354 26.4701 121.791 26.4701 121.603 26.2824Z" fill="#E5644C"/>
<path d="M309.53 26.2824L298.453 15.2058C298.266 15.0181 298.266 14.4549 298.453 14.2671L309.53 3.19061C309.718 3.00287 310.281 3.00287 310.469 3.19061L321.545 14.2671C321.733 14.4549 321.733 15.0181 321.545 15.2058L310.469 26.2824C310.281 26.4701 309.905 26.4701 309.53 26.2824Z" fill="#E5644C"/>
<path d="M276.868 26.2824L265.791 15.2058C265.603 15.0181 265.603 14.4549 265.791 14.2671L276.868 3.19061C277.055 3.00287 277.619 3.00287 277.806 3.19061L288.883 14.2671C289.071 14.4549 289.071 15.0181 288.883 15.2058L277.806 26.2824C277.619 26.4701 277.243 26.4701 276.868 26.2824Z" fill="#E5644C"/>
</svg>
