<svg width="1920" height="17" viewBox="0 0 1920 17" fill="none" xmlns="http://www.w3.org/2000/svg">
<path d="M309.526 16.374L305.157 12.0053C304.958 11.8068 304.958 11.608 305.157 11.608L316.277 0.487594L316.476 0.289063H320.249C320.249 0.289063 320.447 0.289014 320.447 0.487594L324.816 4.8565C325.015 5.05509 325.015 5.25357 324.816 5.25357L313.696 16.374L313.497 16.5725H309.724C309.724 16.5725 309.526 16.5726 309.526 16.374Z" fill="#263244"/>
<path d="M341.096 16.374L336.727 12.0053C336.528 11.8068 336.528 11.608 336.727 11.608L347.848 0.487594L348.046 0.289063H351.819C351.819 0.289063 352.018 0.289014 352.018 0.487594L356.387 4.8565C356.585 5.05509 356.585 5.25357 356.387 5.25357L345.266 16.374L345.067 16.5725H341.294C341.294 16.5725 341.096 16.5726 341.096 16.374Z" fill="#263244"/>
<path d="M416.752 16.374L412.383 12.0053C412.185 11.8068 412.185 11.608 412.383 11.608L423.504 0.487594L423.702 0.289063H427.475C427.475 0.289063 427.674 0.289014 427.674 0.487594L432.043 4.8565C432.241 5.05509 432.241 5.25357 432.043 5.25357L420.922 16.374L420.724 16.5725H416.951C416.951 16.5725 416.752 16.5726 416.752 16.374Z" fill="#263244"/>
<path d="M448.33 16.374L443.961 12.0053C443.763 11.8068 443.763 11.608 443.961 11.608L455.082 0.487594L455.281 0.289063H459.054C459.054 0.289063 459.252 0.289014 459.252 0.487594L463.621 4.8565C463.819 5.05509 463.819 5.25357 463.621 5.25357L452.5 16.374L452.302 16.5725H448.529C448.529 16.5725 448.33 16.5726 448.33 16.374Z" fill="#263244"/>
<path d="M287.67 14.5826L282.11 9.02249C281.911 8.82391 281.911 8.22817 282.11 8.02959L287.67 2.46925C287.869 2.27067 288.464 2.27067 288.663 2.46925L294.223 8.02959C294.422 8.22817 294.422 8.82391 294.223 9.02249L288.663 14.5826C288.464 14.9798 288.067 14.9798 287.67 14.5826Z" fill="#263244"/>
<path d="M265.631 14.5826L260.071 9.02249C259.872 8.82391 259.872 8.22817 260.071 8.02959L265.631 2.46925C265.83 2.27067 266.425 2.27067 266.624 2.46925L272.184 8.02959C272.383 8.22817 272.383 8.82391 272.184 9.02249L266.624 14.5826C266.425 14.9798 265.83 14.9798 265.631 14.5826Z" fill="#496083"/>
<path d="M394.905 14.5826L389.344 9.02249C389.146 8.82391 389.146 8.22817 389.344 8.02959L394.905 2.46925C395.103 2.27067 395.699 2.27067 395.897 2.46925L401.458 8.02959C401.656 8.22817 401.656 8.82391 401.458 9.02249L395.897 14.5826C395.699 14.9798 395.103 14.9798 394.905 14.5826Z" fill="#263244"/>
<path d="M372.858 14.5826L367.297 9.02249C367.099 8.82391 367.099 8.22817 367.297 8.02959L372.858 2.46925C373.056 2.27067 373.652 2.27067 373.851 2.46925L379.411 8.02959C379.609 8.22817 379.609 8.82391 379.411 9.02249L373.851 14.5826C373.652 14.9798 373.056 14.9798 372.858 14.5826Z" fill="#496083"/>
<path d="M26.5568 16.374L22.188 12.0053C21.9894 11.8068 21.9894 11.608 22.188 11.608L33.3085 0.487594L33.5071 0.289063H37.2801C37.2801 0.289063 37.4787 0.289014 37.4787 0.487594L41.8475 4.8565C42.0461 5.05509 42.0461 5.25357 41.8475 5.25357L30.727 16.374L30.5284 16.5725H26.7554C26.7554 16.5725 26.5568 16.5726 26.5568 16.374Z" fill="#263244"/>
<path d="M125.049 16.374L120.68 12.0053C120.482 11.8068 120.482 11.608 120.68 11.608L131.801 0.487594L131.999 0.289063H135.772C135.772 0.289063 135.971 0.289014 135.971 0.487594L140.34 4.8565C140.538 5.05509 140.538 5.25357 140.34 5.25357L129.219 16.374L129.021 16.5725H125.248C125.248 16.5725 125.049 16.5726 125.049 16.374Z" fill="#263244"/>
<path d="M156.026 16.374L151.657 12.0053C151.458 11.8068 151.458 11.608 151.657 11.608L162.777 0.487594L162.976 0.289063H166.749C166.749 0.289063 166.947 0.289014 166.947 0.487594L171.316 4.8565C171.515 5.05509 171.515 5.25357 171.316 5.25357L160.196 16.374L159.997 16.5725H156.224C156.224 16.5725 156.026 16.5726 156.026 16.374Z" fill="#263244"/>
<path d="M58.3264 14.5826L52.7661 9.02249C52.5675 8.82391 52.5675 8.22817 52.7661 8.02959L58.3264 2.46925C58.525 2.27067 59.1207 2.27067 59.3193 2.46925L64.8795 8.02959C65.0781 8.22817 65.0781 8.82391 64.8795 9.02249L59.3193 14.5826C59.1207 14.9798 58.525 14.9798 58.3264 14.5826Z" fill="#263244"/>
<path d="M4.70919 14.5826L-0.851064 9.02249C-1.04965 8.82391 -1.04965 8.22817 -0.851064 8.02959L4.70919 2.46925C4.90777 2.27067 5.50352 2.27067 5.7021 2.46925L11.2624 8.02959C11.4609 8.22817 11.4609 8.82391 11.2624 9.02249L5.7021 14.5826C5.50352 14.9798 5.10635 14.9798 4.70919 14.5826Z" fill="#496083"/>
<path d="M103.209 14.5826L97.6489 9.02249C97.4504 8.82391 97.4504 8.22817 97.6489 8.02959L103.209 2.46925C103.408 2.27067 104.004 2.27067 104.202 2.46925L109.762 8.02959C109.961 8.22817 109.961 8.82391 109.762 9.02249L104.202 14.5826C104.004 14.9798 103.606 14.9798 103.209 14.5826Z" fill="#263244"/>
<path d="M80.7561 14.5826L75.1958 9.02249C74.9972 8.82391 74.9972 8.22817 75.1958 8.02959L80.7561 2.46925C80.9546 2.27067 81.5504 2.27067 81.749 2.46925L87.3092 8.02959C87.5078 8.22817 87.5078 8.82391 87.3092 9.02249L81.749 14.5826C81.5504 14.9798 80.9546 14.9798 80.7561 14.5826Z" fill="#496083"/>
<path d="M210.24 14.5826L204.68 9.02249C204.482 8.82391 204.482 8.22817 204.68 8.02959L210.24 2.46925C210.439 2.27067 211.035 2.27067 211.233 2.46925L216.794 8.02959C216.992 8.22817 216.992 8.82391 216.794 9.02249L211.233 14.5826C211.035 14.9798 210.439 14.9798 210.24 14.5826Z" fill="#263244"/>
<path d="M187.811 14.5826L182.25 9.02249C182.052 8.82391 182.052 8.22817 182.25 8.02959L187.811 2.46925C188.009 2.27067 188.605 2.27067 188.804 2.46925L194.364 8.02959C194.563 8.22817 194.563 8.82391 194.364 9.02249L188.804 14.5826C188.407 14.9798 188.009 14.9798 187.811 14.5826Z" fill="#496083"/>
<path d="M557.354 16.374L552.985 12.0053C552.786 11.8068 552.786 11.608 552.985 11.608L564.105 0.487594L564.304 0.289063H568.077C568.077 0.289063 568.276 0.289014 568.276 0.487594L572.644 4.8565C572.843 5.05509 572.843 5.25357 572.644 5.25357L561.524 16.374L561.325 16.5725H557.552C557.552 16.5725 557.552 16.5726 557.354 16.374Z" fill="#263244"/>
<path d="M588.533 16.374L584.165 12.0053C583.966 11.8068 583.966 11.608 584.165 11.608L595.285 0.487594L595.484 0.289063H599.257C599.257 0.289063 599.455 0.289014 599.455 0.487594L603.824 4.8565C604.023 5.05509 604.023 5.25357 603.824 5.25357L592.704 16.374L592.505 16.5725H588.732C588.732 16.5725 588.533 16.5726 588.533 16.374Z" fill="#263244"/>
<path d="M642.143 16.374L637.774 12.0053C637.575 11.8068 637.575 11.608 637.774 11.608L648.894 0.487594L649.093 0.289063H652.866C652.866 0.289063 653.065 0.289014 653.065 0.487594L657.433 4.8565C657.632 5.05509 657.632 5.25357 657.433 5.25357L646.313 16.374L646.114 16.5725H642.341C642.341 16.5725 642.143 16.5726 642.143 16.374Z" fill="#263244"/>
<path d="M673.135 16.374L668.766 12.0053C668.568 11.8068 668.568 11.608 668.766 11.608L679.887 0.487594L680.085 0.289063H683.858C683.858 0.289063 684.057 0.289014 684.057 0.487594L688.426 4.8565C688.624 5.05509 688.624 5.25357 688.426 5.25357L677.305 16.374L677.106 16.5725H673.333C673.333 16.5725 673.333 16.5726 673.135 16.374Z" fill="#263244"/>
<path d="M535.506 14.5826L529.946 9.02249C529.747 8.82391 529.747 8.22817 529.946 8.02959L535.506 2.46925C535.705 2.27067 536.3 2.27067 536.499 2.46925L542.059 8.02959C542.258 8.22817 542.258 8.82391 542.059 9.02249L536.499 14.5826C536.3 14.9798 535.903 14.9798 535.506 14.5826Z" fill="#263244"/>
<path d="M513.069 14.5826L507.508 9.02249C507.31 8.82391 507.31 8.22817 507.508 8.02959L513.069 2.46925C513.267 2.27067 513.863 2.27067 514.061 2.46925L519.622 8.02959C519.82 8.22817 519.82 8.82391 519.622 9.02249L514.061 14.5826C513.863 14.9798 513.267 14.9798 513.069 14.5826Z" fill="#496083"/>
<path d="M704.904 14.5826L699.344 9.02249C699.146 8.82391 699.146 8.22817 699.344 8.02959L704.904 2.46925C705.103 2.27067 705.699 2.27067 705.897 2.46925L711.458 8.02959C711.656 8.22817 711.656 8.82391 711.458 9.02249L705.897 14.5826C705.699 14.9798 705.302 14.9798 704.904 14.5826Z" fill="#263244"/>
<path d="M620.295 14.5826L614.735 9.02249C614.536 8.82391 614.536 8.22817 614.735 8.02959L620.295 2.46925C620.494 2.27067 621.089 2.27067 621.288 2.46925L626.848 8.02959C627.047 8.22817 627.047 8.82391 626.848 9.02249L621.288 14.5826C621.089 14.9798 620.494 14.9798 620.295 14.5826Z" fill="#496083"/>
<path d="M821.658 0.487594L821.46 0.289063H817.687C817.687 0.289063 817.488 0.289014 817.488 0.487594L806.368 11.608C806.169 11.8066 806.169 12.0053 806.368 12.0053L810.736 16.374L810.935 16.5725H814.708C814.708 16.5725 814.907 16.5726 814.907 16.374L826.027 5.25357C826.226 5.05499 826.226 4.8565 826.027 4.8565L821.658 0.487594Z" fill="#263244"/>
<path d="M847.885 0.487594L847.686 0.289063H843.913C843.913 0.289063 843.715 0.289014 843.715 0.487594L832.594 11.608C832.396 11.8066 832.396 12.0053 832.594 12.0053L836.963 16.374L837.162 16.5725H840.935C840.935 16.5725 841.133 16.5726 841.133 16.374L852.254 5.25357C852.452 5.05499 852.452 4.8565 852.254 4.8565L847.885 0.487594Z" fill="#263244"/>
<path d="M786.315 2.27394C786.116 2.07535 785.719 2.07535 785.52 2.27394L779.563 8.23134C779.364 8.42992 779.364 8.82713 779.563 9.02571L785.52 14.9831C785.719 15.1817 786.116 15.1817 786.315 14.9831L792.272 9.02571C792.471 8.82713 792.471 8.42992 792.272 8.23134L786.315 2.27394Z" fill="#263244"/>
<path d="M761.291 2.27394C761.093 2.07535 760.696 2.07535 760.497 2.27394L754.54 8.23134C754.341 8.42992 754.341 8.82713 754.54 9.02571L760.497 14.9831C760.696 15.1817 761.093 15.1817 761.291 14.9831L767.249 9.02571C767.447 8.82713 767.447 8.42992 767.249 8.23134L761.291 2.27394Z" fill="#496083"/>
<path d="M952.335 8.05165L946.377 2.09425C946.179 1.89567 945.781 1.89567 945.583 2.09425L939.625 8.05165C939.427 8.25024 939.427 8.64744 939.625 8.84602L945.583 14.8034C945.781 15.002 946.179 15.002 946.377 14.8034L952.335 8.84602C952.533 8.64744 952.533 8.25024 952.335 8.05165Z" fill="#263244"/>
<path d="M871.299 2.27394C871.101 2.07535 870.703 2.07535 870.505 2.27394L864.547 8.23134C864.349 8.42992 864.349 8.82713 864.547 9.02571L870.505 14.9831C870.703 15.1817 871.101 15.1817 871.299 14.9831L877.257 9.02571C877.455 8.82713 877.455 8.42992 877.257 8.23134L871.299 2.27394Z" fill="#496083"/>
<path d="M921.354 2.27394C921.155 2.07535 920.758 2.07535 920.559 2.27394L914.602 8.23134C914.403 8.42992 914.403 8.82713 914.602 9.02571L920.559 14.9831C920.758 15.1817 921.155 15.1817 921.354 14.9831L927.311 9.02571C927.51 8.82713 927.51 8.42992 927.311 8.23134L921.354 2.27394Z" fill="#496083"/>
<path d="M896.33 2.27394C896.132 2.07535 895.735 2.07535 895.536 2.27394L889.579 8.23134C889.38 8.42992 889.38 8.82713 889.579 9.02571L895.536 14.9831C895.735 15.1817 896.132 15.1817 896.33 14.9831L902.288 9.02571C902.486 8.82713 902.486 8.42992 902.288 8.23134L896.33 2.27394Z" fill="#263244"/>
<path d="M1300.24 16.374L1295.87 12.0053C1295.67 11.8068 1295.67 11.608 1295.87 11.608L1306.99 0.487594L1307.19 0.289063H1310.96C1310.96 0.289063 1311.16 0.289014 1311.16 0.487594L1315.53 4.8565C1315.73 5.05509 1315.73 5.25357 1315.53 5.25357L1304.41 16.374L1304.21 16.5725H1300.44C1300.24 16.5725 1300.24 16.5726 1300.24 16.374Z" fill="#263244"/>
<path d="M1331.63 16.374L1327.26 12.0053C1327.06 11.8068 1327.06 11.608 1327.26 11.608L1338.38 0.487594L1338.58 0.289063H1342.35C1342.35 0.289063 1342.55 0.289014 1342.55 0.487594L1346.92 4.8565C1347.12 5.05509 1347.12 5.25357 1346.92 5.25357L1335.8 16.374L1335.6 16.5725H1331.83C1331.83 16.5725 1331.83 16.5726 1331.63 16.374Z" fill="#263244"/>
<path d="M1407.48 16.374L1403.11 12.0053C1402.91 11.8068 1402.91 11.608 1403.11 11.608L1414.23 0.487594L1414.43 0.289063H1418.2C1418.2 0.289063 1418.4 0.289014 1418.4 0.487594L1422.77 4.8565C1422.97 5.05509 1422.97 5.25357 1422.77 5.25357L1411.65 16.374L1411.45 16.5725H1407.68C1407.48 16.5725 1407.48 16.5726 1407.48 16.374Z" fill="#263244"/>
<path d="M1438.86 16.374L1434.49 12.0053C1434.29 11.8068 1434.29 11.608 1434.49 11.608L1445.61 0.487594L1445.81 0.289063H1449.58C1449.58 0.289063 1449.78 0.289014 1449.78 0.487594L1454.15 4.8565C1454.35 5.05509 1454.35 5.25357 1454.15 5.25357L1443.03 16.374L1442.83 16.5725H1439.06C1439.06 16.5725 1439.06 16.5726 1438.86 16.374Z" fill="#263244"/>
<path d="M1278.42 14.5826L1272.86 9.02249C1272.66 8.82391 1272.66 8.22817 1272.86 8.02959L1278.42 2.46925C1278.62 2.27067 1279.21 2.27067 1279.41 2.46925L1284.97 8.02959C1285.17 8.22817 1285.17 8.82391 1284.97 9.02249L1279.41 14.5826C1279.02 14.9798 1278.62 14.9798 1278.42 14.5826Z" fill="#263244"/>
<path d="M1256.16 14.5826L1250.6 9.02249C1250.4 8.82391 1250.4 8.22817 1250.6 8.02959L1256.16 2.46925C1256.36 2.27067 1256.96 2.27067 1257.16 2.46925L1262.72 8.02959C1262.91 8.22817 1262.91 8.82391 1262.72 9.02249L1257.16 14.5826C1256.96 14.9798 1256.56 14.9798 1256.16 14.5826Z" fill="#496083"/>
<path d="M1385.44 14.5826L1379.88 9.02249C1379.68 8.82391 1379.68 8.22817 1379.88 8.02959L1385.44 2.46925C1385.63 2.27067 1386.23 2.27067 1386.43 2.46925L1391.99 8.02959C1392.19 8.22817 1392.19 8.82391 1391.99 9.02249L1386.43 14.5826C1386.23 14.9798 1385.83 14.9798 1385.44 14.5826Z" fill="#263244"/>
<path d="M1363.39 14.5826L1357.83 9.02249C1357.63 8.82391 1357.63 8.22817 1357.83 8.02959L1363.39 2.46925C1363.59 2.27067 1364.18 2.27067 1364.38 2.46925L1369.94 8.02959C1370.14 8.22817 1370.14 8.82391 1369.94 9.02249L1364.38 14.5826C1364.18 14.9798 1363.79 14.9798 1363.39 14.5826Z" fill="#496083"/>
<path d="M1017.28 16.374L1012.91 12.0053C1012.71 11.8068 1012.71 11.608 1012.91 11.608L1024.03 0.487594L1024.23 0.289063H1028C1028 0.289063 1028.2 0.289014 1028.2 0.487594L1032.57 4.8565C1032.76 5.05509 1032.76 5.25357 1032.57 5.25357L1021.45 16.374L1021.25 16.5725H1017.47C1017.28 16.5725 1017.28 16.5726 1017.28 16.374Z" fill="#263244"/>
<path d="M1115.57 16.374L1111.2 12.0053C1111.01 11.8068 1111.01 11.608 1111.2 11.608L1122.32 0.487594L1122.52 0.289063H1126.3C1126.3 0.289063 1126.49 0.289014 1126.49 0.487594L1130.86 4.8565C1131.06 5.05509 1131.06 5.25357 1130.86 5.25357L1119.74 16.374L1119.54 16.5725H1115.77C1115.77 16.5725 1115.77 16.5726 1115.57 16.374Z" fill="#263244"/>
<path d="M1146.55 16.374L1142.18 12.0053C1141.98 11.8068 1141.98 11.608 1142.18 11.608L1153.3 0.487594L1153.5 0.289063H1157.27C1157.27 0.289063 1157.47 0.289014 1157.47 0.487594L1161.84 4.8565C1162.04 5.05509 1162.04 5.25357 1161.84 5.25357L1150.72 16.374L1150.52 16.5725H1146.75C1146.75 16.5725 1146.75 16.5726 1146.55 16.374Z" fill="#263244"/>
<path d="M1048.84 14.5826L1043.28 9.02249C1043.08 8.82391 1043.08 8.22817 1043.28 8.02959L1048.84 2.46925C1049.04 2.27067 1049.64 2.27067 1049.83 2.46925L1055.4 8.02959C1055.59 8.22817 1055.59 8.82391 1055.4 9.02249L1049.83 14.5826C1049.64 14.9798 1049.24 14.9798 1048.84 14.5826Z" fill="#263244"/>
<path d="M995.428 14.5826L989.868 9.02249C989.669 8.82391 989.669 8.22817 989.868 8.02959L995.428 2.46925C995.627 2.27067 996.222 2.27067 996.421 2.46925L1001.98 8.02959C1002.18 8.22817 1002.18 8.82391 1001.98 9.02249L996.421 14.5826C996.222 14.9798 995.627 14.9798 995.428 14.5826Z" fill="#496083"/>
<path d="M1093.93 14.5826L1088.37 9.02249C1088.17 8.82391 1088.17 8.22817 1088.37 8.02959L1093.93 2.46925C1094.13 2.27067 1094.72 2.27067 1094.92 2.46925L1100.48 8.02959C1100.68 8.22817 1100.68 8.82391 1100.48 9.02249L1094.92 14.5826C1094.52 14.9798 1094.13 14.9798 1093.93 14.5826Z" fill="#263244"/>
<path d="M1071.3 14.5826L1065.73 9.02249C1065.54 8.82391 1065.54 8.22817 1065.73 8.02959L1071.3 2.46925C1071.49 2.27067 1072.09 2.27067 1072.29 2.46925L1077.85 8.02959C1078.05 8.22817 1078.05 8.82391 1077.85 9.02249L1072.29 14.5826C1072.09 14.9798 1071.69 14.9798 1071.3 14.5826Z" fill="#496083"/>
<path d="M1200.76 14.5826L1195.2 9.02249C1195 8.82391 1195 8.22817 1195.2 8.02959L1200.76 2.46925C1200.95 2.27067 1201.55 2.27067 1201.75 2.46925L1207.31 8.02959C1207.51 8.22817 1207.51 8.82391 1207.31 9.02249L1201.75 14.5826C1201.55 14.9798 1201.15 14.9798 1200.76 14.5826Z" fill="#263244"/>
<path d="M1178.33 14.5826L1172.77 9.02249C1172.57 8.82391 1172.57 8.22817 1172.77 8.02959L1178.33 2.46925C1178.52 2.27067 1179.12 2.27067 1179.32 2.46925L1184.88 8.02959C1185.08 8.22817 1185.08 8.82391 1184.88 9.02249L1179.32 14.5826C1179.12 14.9798 1178.72 14.9798 1178.33 14.5826Z" fill="#496083"/>
<path d="M1548.06 16.374L1543.69 12.0053C1543.49 11.8068 1543.49 11.608 1543.69 11.608L1554.81 0.487594L1555.01 0.289063H1558.78C1558.78 0.289063 1558.98 0.289014 1558.98 0.487594L1563.35 4.8565C1563.55 5.05509 1563.55 5.25357 1563.35 5.25357L1552.23 16.374L1552.03 16.5725H1548.26C1548.26 16.5725 1548.06 16.5726 1548.06 16.374Z" fill="#263244"/>
<path d="M1579.04 16.374L1574.67 12.0053C1574.47 11.8068 1574.47 11.608 1574.67 11.608L1585.79 0.487594L1585.99 0.289063H1589.76C1589.76 0.289063 1589.96 0.289014 1589.96 0.487594L1594.33 4.8565C1594.53 5.05509 1594.53 5.25357 1594.33 5.25357L1583.21 16.374L1583.01 16.5725H1579.24C1579.24 16.5725 1579.24 16.5726 1579.04 16.374Z" fill="#263244"/>
<path d="M1632.65 16.374L1628.28 12.0053C1628.08 11.8068 1628.08 11.608 1628.28 11.608L1639.4 0.487594L1639.6 0.289063H1643.37C1643.37 0.289063 1643.57 0.289014 1643.57 0.487594L1647.94 4.8565C1648.14 5.05509 1648.14 5.25357 1647.94 5.25357L1636.82 16.374L1636.62 16.5725H1632.85C1632.85 16.5725 1632.85 16.5726 1632.65 16.374Z" fill="#263244"/>
<path d="M1663.82 16.374L1659.45 12.0053C1659.26 11.8068 1659.26 11.608 1659.45 11.608L1670.57 0.487594L1670.77 0.289063H1674.55C1674.55 0.289063 1674.74 0.289014 1674.74 0.487594L1679.11 4.8565C1679.31 5.05509 1679.31 5.25357 1679.11 5.25357L1667.99 16.374L1667.79 16.5725H1664.02C1664.02 16.5725 1663.82 16.5726 1663.82 16.374Z" fill="#263244"/>
<path d="M1526.21 14.5826L1520.65 9.02249C1520.45 8.82391 1520.45 8.22817 1520.65 8.02959L1526.21 2.46925C1526.41 2.27067 1527 2.27067 1527.2 2.46925L1532.76 8.02959C1532.96 8.22817 1532.96 8.82391 1532.76 9.02249L1527.2 14.5826C1527 14.9798 1526.41 14.9798 1526.21 14.5826Z" fill="#263244"/>
<path d="M1503.58 14.5826L1498.02 9.02249C1497.82 8.82391 1497.82 8.22817 1498.02 8.02959L1503.58 2.46925C1503.77 2.27067 1504.37 2.27067 1504.57 2.46925L1510.13 8.02959C1510.33 8.22817 1510.33 8.82391 1510.13 9.02249L1504.57 14.5826C1504.37 14.9798 1503.97 14.9798 1503.58 14.5826Z" fill="#496083"/>
<path d="M1695.62 14.5826L1690.06 9.02249C1689.86 8.82391 1689.86 8.22817 1690.06 8.02959L1695.62 2.46925C1695.81 2.27067 1696.41 2.27067 1696.61 2.46925L1702.17 8.02959C1702.37 8.22817 1702.37 8.82391 1702.17 9.02249L1696.61 14.5826C1696.41 14.9798 1695.81 14.9798 1695.62 14.5826Z" fill="#263244"/>
<path d="M1610.8 14.5826L1605.24 9.02249C1605.04 8.82391 1605.04 8.22817 1605.24 8.02959L1610.8 2.46925C1611 2.27067 1611.6 2.27067 1611.8 2.46925L1617.36 8.02959C1617.55 8.22817 1617.55 8.82391 1617.36 9.02249L1611.8 14.5826C1611.6 14.9798 1611.2 14.9798 1610.8 14.5826Z" fill="#496083"/>
<path d="M1812.18 0.487594L1811.98 0.289063H1808.21C1808.21 0.289063 1808.01 0.289014 1808.01 0.487594L1796.89 11.608C1796.69 11.8066 1796.69 12.0053 1796.89 12.0053L1801.26 16.374L1801.46 16.5725H1805.23C1805.23 16.5725 1805.43 16.5726 1805.43 16.374L1816.55 5.25357C1816.75 5.05499 1816.75 4.8565 1816.55 4.8565L1812.18 0.487594Z" fill="#263244"/>
<path d="M1838.4 0.487594L1838.2 0.289063H1834.43C1834.43 0.289063 1834.23 0.289014 1834.23 0.487594L1823.11 11.608C1822.91 11.8066 1822.91 12.0053 1823.11 12.0053L1827.48 16.374L1827.68 16.5725H1831.45C1831.45 16.5725 1831.65 16.5726 1831.65 16.374L1842.77 5.25357C1842.97 5.05499 1842.97 4.8565 1842.77 4.8565L1838.4 0.487594Z" fill="#263244"/>
<path d="M1776.84 2.27394C1776.64 2.07535 1776.24 2.07535 1776.04 2.27394L1770.09 8.23134C1769.89 8.42992 1769.89 8.82713 1770.09 9.02571L1776.04 14.9831C1776.24 15.1817 1776.64 15.1817 1776.84 14.9831L1782.8 9.02571C1782.99 8.82713 1782.99 8.42992 1782.8 8.23134L1776.84 2.27394Z" fill="#263244"/>
<path d="M1751.83 2.27394C1751.63 2.07535 1751.23 2.07535 1751.04 2.27394L1745.08 8.23134C1744.88 8.42992 1744.88 8.82713 1745.08 9.02571L1751.04 14.9831C1751.23 15.1817 1751.63 15.1817 1751.83 14.9831L1757.79 9.02571C1757.99 8.82713 1757.99 8.42992 1757.79 8.23134L1751.83 2.27394Z" fill="#496083"/>
<path d="M1862.03 2.27394C1861.83 2.07535 1861.44 2.07535 1861.24 2.27394L1855.28 8.23134C1855.08 8.42992 1855.08 8.82713 1855.28 9.02571L1861.24 14.9831C1861.44 15.1817 1861.83 15.1817 1862.03 14.9831L1867.99 9.02571C1868.19 8.82713 1868.19 8.42992 1867.99 8.23134L1862.03 2.27394Z" fill="#496083"/>
<path d="M1911.87 2.27394C1911.67 2.07535 1911.27 2.07535 1911.08 2.27394L1905.12 8.23134C1904.92 8.42992 1904.92 8.82713 1905.12 9.02571L1911.08 14.9831C1911.27 15.1817 1911.67 15.1817 1911.87 14.9831L1917.83 9.02571C1918.03 8.82713 1918.03 8.42992 1917.83 8.23134L1911.87 2.27394Z" fill="#496083"/>
<path d="M1887.05 2.27394C1886.85 2.07535 1886.45 2.07535 1886.25 2.27394L1880.3 8.23134C1880.1 8.42992 1880.1 8.82713 1880.3 9.02571L1886.25 14.9831C1886.45 15.1817 1886.85 15.1817 1887.05 14.9831L1893.01 9.02571C1893.21 8.82713 1893.21 8.42992 1893.01 8.23134L1887.05 2.27394Z" fill="#263244"/>
</svg>
