<svg xmlns="http://www.w3.org/2000/svg" xml:space="preserve" width="1155" height="1155"><path fill="#FFF" d="M0 0h1155v1155H0z"/><path d="M250 0c138.077 0 250 111.93 250 250 0 138.077-111.923 250-250 250C111.93 500 0 388.077 0 250 0 111.93 111.93 0 250 0" style="fill:#496083" transform="matrix(.07 0 0 .07 420 70)"/><path d="M250 0c138.077 0 250 111.93 250 250 0 138.077-111.923 250-250 250C111.93 500 0 388.077 0 250 0 111.93 111.93 0 250 0" style="fill:#496083" transform="matrix(.07 0 0 .07 490 70)"/><path d="M250 0c138.077 0 250 111.93 250 250 0 138.077-111.923 250-250 250C111.93 500 0 388.077 0 250 0 111.93 111.93 0 250 0" style="fill:#496083" transform="matrix(.07 0 0 .07 630 70)"/><path d="M250 0c138.077 0 250 111.93 250 250 0 138.077-111.923 250-250 250C111.93 500 0 388.077 0 250 0 111.93 111.93 0 250 0" style="fill:#496083" transform="matrix(.07 0 0 .07 665 70)"/><path d="M250 0c138.077 0 250 111.93 250 250 0 138.077-111.923 250-250 250C111.93 500 0 388.077 0 250 0 111.93 111.93 0 250 0" style="fill:#496083" transform="matrix(.07 0 0 .07 700 70)"/><path d="M250 0c138.077 0 250 111.93 250 250 0 138.077-111.923 250-250 250C111.93 500 0 388.077 0 250 0 111.93 111.93 0 250 0" style="fill:#496083" transform="matrix(.07 0 0 .07 735 70)"/><path d="M250 0c138.077 0 250 111.93 250 250 0 138.077-111.923 250-250 250C111.93 500 0 388.077 0 250 0 111.93 111.93 0 250 0" style="fill:#496083" transform="matrix(.07 0 0 .07 420 105)"/><path d="M250 0c138.077 0 250 111.93 250 250 0 138.077-111.923 250-250 250C111.93 500 0 388.077 0 250 0 111.93 111.93 0 250 0" style="fill:#496083" transform="matrix(.07 0 0 .07 455 105)"/><path d="M250 0c138.077 0 250 111.93 250 250 0 138.077-111.923 250-250 250C111.93 500 0 388.077 0 250 0 111.93 111.93 0 250 0" style="fill:#496083" transform="matrix(.07 0 0 .07 490 105)"/><path d="M250 0c138.077 0 250 111.93 250 250 0 138.077-111.923 250-250 250C111.93 500 0 388.077 0 250 0 111.93 111.93 0 250 0" style="fill:#496083" transform="matrix(.07 0 0 .07 525 105)"/><path d="M250 0c138.077 0 250 111.93 250 250 0 138.077-111.923 250-250 250C111.93 500 0 388.077 0 250 0 111.93 111.93 0 250 0" style="fill:#496083" transform="matrix(.07 0 0 .07 665 105)"/><path d="M250 0c138.077 0 250 111.93 250 250 0 138.077-111.923 250-250 250C111.93 500 0 388.077 0 250 0 111.93 111.93 0 250 0" style="fill:#496083" transform="matrix(.07 0 0 .07 770 105)"/><path d="M250 0c138.077 0 250 111.93 250 250 0 138.077-111.923 250-250 250C111.93 500 0 388.077 0 250 0 111.93 111.93 0 250 0" style="fill:#496083" transform="matrix(.07 0 0 .07 350 140)"/><path d="M250 0c138.077 0 250 111.93 250 250 0 138.077-111.923 250-250 250C111.93 500 0 388.077 0 250 0 111.93 111.93 0 250 0" style="fill:#496083" transform="matrix(.07 0 0 .07 525 140)"/><path d="M250 0c138.077 0 250 111.93 250 250 0 138.077-111.923 250-250 250C111.93 500 0 388.077 0 250 0 111.93 111.93 0 250 0" style="fill:#496083" transform="matrix(.07 0 0 .07 595 140)"/><path d="M250 0c138.077 0 250 111.93 250 250 0 138.077-111.923 250-250 250C111.93 500 0 388.077 0 250 0 111.93 111.93 0 250 0" style="fill:#496083" transform="matrix(.07 0 0 .07 630 140)"/><path d="M250 0c138.077 0 250 111.93 250 250 0 138.077-111.923 250-250 250C111.93 500 0 388.077 0 250 0 111.93 111.93 0 250 0" style="fill:#496083" transform="matrix(.07 0 0 .07 700 140)"/><path d="M250 0c138.077 0 250 111.93 250 250 0 138.077-111.923 250-250 250C111.93 500 0 388.077 0 250 0 111.93 111.93 0 250 0" style="fill:#496083" transform="matrix(.07 0 0 .07 770 140)"/><path d="M250 0c138.077 0 250 111.93 250 250 0 138.077-111.923 250-250 250C111.93 500 0 388.077 0 250 0 111.93 111.93 0 250 0" style="fill:#496083" transform="matrix(.07 0 0 .07 350 175)"/><path d="M250 0c138.077 0 250 111.93 250 250 0 138.077-111.923 250-250 250C111.93 500 0 388.077 0 250 0 111.93 111.93 0 250 0" style="fill:#496083" transform="matrix(.07 0 0 .07 455 175)"/><path d="M250 0c138.077 0 250 111.93 250 250 0 138.077-111.923 250-250 250C111.93 500 0 388.077 0 250 0 111.93 111.93 0 250 0" style="fill:#496083" transform="matrix(.07 0 0 .07 560 175)"/><path d="M250 0c138.077 0 250 111.93 250 250 0 138.077-111.923 250-250 250C111.93 500 0 388.077 0 250 0 111.93 111.93 0 250 0" style="fill:#496083" transform="matrix(.07 0 0 .07 595 175)"/><path d="M250 0c138.077 0 250 111.93 250 250 0 138.077-111.923 250-250 250C111.93 500 0 388.077 0 250 0 111.93 111.93 0 250 0" style="fill:#496083" transform="matrix(.07 0 0 .07 630 175)"/><path d="M250 0c138.077 0 250 111.93 250 250 0 138.077-111.923 250-250 250C111.93 500 0 388.077 0 250 0 111.93 111.93 0 250 0" style="fill:#496083" transform="matrix(.07 0 0 .07 665 175)"/><path d="M250 0c138.077 0 250 111.93 250 250 0 138.077-111.923 250-250 250C111.93 500 0 388.077 0 250 0 111.93 111.93 0 250 0" style="fill:#496083" transform="matrix(.07 0 0 .07 700 175)"/><path d="M250 0c138.077 0 250 111.93 250 250 0 138.077-111.923 250-250 250C111.93 500 0 388.077 0 250 0 111.93 111.93 0 250 0" style="fill:#496083" transform="matrix(.07 0 0 .07 735 175)"/><path d="M250 0c138.077 0 250 111.93 250 250 0 138.077-111.923 250-250 250C111.93 500 0 388.077 0 250 0 111.93 111.93 0 250 0" style="fill:#496083" transform="matrix(.07 0 0 .07 385 210)"/><path d="M250 0c138.077 0 250 111.93 250 250 0 138.077-111.923 250-250 250C111.93 500 0 388.077 0 250 0 111.93 111.93 0 250 0" style="fill:#496083" transform="matrix(.07 0 0 .07 560 210)"/><path d="M250 0c138.077 0 250 111.93 250 250 0 138.077-111.923 250-250 250C111.93 500 0 388.077 0 250 0 111.93 111.93 0 250 0" style="fill:#496083" transform="matrix(.07 0 0 .07 595 210)"/><path d="M250 0c138.077 0 250 111.93 250 250 0 138.077-111.923 250-250 250C111.93 500 0 388.077 0 250 0 111.93 111.93 0 250 0" style="fill:#496083" transform="matrix(.07 0 0 .07 665 210)"/><path d="M250 0c138.077 0 250 111.93 250 250 0 138.077-111.923 250-250 250C111.93 500 0 388.077 0 250 0 111.93 111.93 0 250 0" style="fill:#496083" transform="matrix(.07 0 0 .07 735 210)"/><path d="M250 0c138.077 0 250 111.93 250 250 0 138.077-111.923 250-250 250C111.93 500 0 388.077 0 250 0 111.93 111.93 0 250 0" style="fill:#496083" transform="matrix(.07 0 0 .07 770 210)"/><path d="M250 0c138.077 0 250 111.93 250 250 0 138.077-111.923 250-250 250C111.93 500 0 388.077 0 250 0 111.93 111.93 0 250 0" style="fill:#496083" transform="matrix(.07 0 0 .07 385 245)"/><path d="M250 0c138.077 0 250 111.93 250 250 0 138.077-111.923 250-250 250C111.93 500 0 388.077 0 250 0 111.93 111.93 0 250 0" style="fill:#496083" transform="matrix(.07 0 0 .07 420 245)"/><path d="M250 0c138.077 0 250 111.93 250 250 0 138.077-111.923 250-250 250C111.93 500 0 388.077 0 250 0 111.93 111.93 0 250 0" style="fill:#496083" transform="matrix(.07 0 0 .07 490 245)"/><path d="M250 0c138.077 0 250 111.93 250 250 0 138.077-111.923 250-250 250C111.93 500 0 388.077 0 250 0 111.93 111.93 0 250 0" style="fill:#496083" transform="matrix(.07 0 0 .07 560 245)"/><path d="M250 0c138.077 0 250 111.93 250 250 0 138.077-111.923 250-250 250C111.93 500 0 388.077 0 250 0 111.93 111.93 0 250 0" style="fill:#496083" transform="matrix(.07 0 0 .07 665 245)"/><path d="M250 0c138.077 0 250 111.93 250 250 0 138.077-111.923 250-250 250C111.93 500 0 388.077 0 250 0 111.93 111.93 0 250 0" style="fill:#496083" transform="matrix(.07 0 0 .07 700 245)"/><path d="M250 0c138.077 0 250 111.93 250 250 0 138.077-111.923 250-250 250C111.93 500 0 388.077 0 250 0 111.93 111.93 0 250 0" style="fill:#496083" transform="matrix(.07 0 0 .07 770 245)"/><path d="M250 0c138.077 0 250 111.93 250 250 0 138.077-111.923 250-250 250C111.93 500 0 388.077 0 250 0 111.93 111.93 0 250 0" style="fill:#496083" transform="matrix(.07 0 0 .07 350 280)"/><path d="M250 0c138.077 0 250 111.93 250 250 0 138.077-111.923 250-250 250C111.93 500 0 388.077 0 250 0 111.93 111.93 0 250 0" style="fill:#496083" transform="matrix(.07 0 0 .07 420 280)"/><path d="M250 0c138.077 0 250 111.93 250 250 0 138.077-111.923 250-250 250C111.93 500 0 388.077 0 250 0 111.93 111.93 0 250 0" style="fill:#496083" transform="matrix(.07 0 0 .07 490 280)"/><path d="M250 0c138.077 0 250 111.93 250 250 0 138.077-111.923 250-250 250C111.93 500 0 388.077 0 250 0 111.93 111.93 0 250 0" style="fill:#496083" transform="matrix(.07 0 0 .07 560 280)"/><path d="M250 0c138.077 0 250 111.93 250 250 0 138.077-111.923 250-250 250C111.93 500 0 388.077 0 250 0 111.93 111.93 0 250 0" style="fill:#496083" transform="matrix(.07 0 0 .07 630 280)"/><path d="M250 0c138.077 0 250 111.93 250 250 0 138.077-111.923 250-250 250C111.93 500 0 388.077 0 250 0 111.93 111.93 0 250 0" style="fill:#496083" transform="matrix(.07 0 0 .07 700 280)"/><path d="M250 0c138.077 0 250 111.93 250 250 0 138.077-111.923 250-250 250C111.93 500 0 388.077 0 250 0 111.93 111.93 0 250 0" style="fill:#496083" transform="matrix(.07 0 0 .07 770 280)"/><path d="M250 0c138.077 0 250 111.93 250 250 0 138.077-111.923 250-250 250C111.93 500 0 388.077 0 250 0 111.93 111.93 0 250 0" style="fill:#496083" transform="matrix(.07 0 0 .07 385 315)"/><path d="M250 0c138.077 0 250 111.93 250 250 0 138.077-111.923 250-250 250C111.93 500 0 388.077 0 250 0 111.93 111.93 0 250 0" style="fill:#496083" transform="matrix(.07 0 0 .07 420 315)"/><path d="M250 0c138.077 0 250 111.93 250 250 0 138.077-111.923 250-250 250C111.93 500 0 388.077 0 250 0 111.93 111.93 0 250 0" style="fill:#496083" transform="matrix(.07 0 0 .07 490 315)"/><path d="M250 0c138.077 0 250 111.93 250 250 0 138.077-111.923 250-250 250C111.93 500 0 388.077 0 250 0 111.93 111.93 0 250 0" style="fill:#496083" transform="matrix(.07 0 0 .07 525 315)"/><path d="M250 0c138.077 0 250 111.93 250 250 0 138.077-111.923 250-250 250C111.93 500 0 388.077 0 250 0 111.93 111.93 0 250 0" style="fill:#496083" transform="matrix(.07 0 0 .07 560 315)"/><path d="M250 0c138.077 0 250 111.93 250 250 0 138.077-111.923 250-250 250C111.93 500 0 388.077 0 250 0 111.93 111.93 0 250 0" style="fill:#496083" transform="matrix(.07 0 0 .07 595 315)"/><path d="M250 0c138.077 0 250 111.93 250 250 0 138.077-111.923 250-250 250C111.93 500 0 388.077 0 250 0 111.93 111.93 0 250 0" style="fill:#496083" transform="matrix(.07 0 0 .07 770 315)"/><path d="M250 0c138.077 0 250 111.93 250 250 0 138.077-111.923 250-250 250C111.93 500 0 388.077 0 250 0 111.93 111.93 0 250 0" style="fill:#496083" transform="matrix(.07 0 0 .07 175 350)"/><path d="M250 0c138.077 0 250 111.93 250 250 0 138.077-111.923 250-250 250C111.93 500 0 388.077 0 250 0 111.93 111.93 0 250 0" style="fill:#496083" transform="matrix(.07 0 0 .07 210 350)"/><path d="M250 0c138.077 0 250 111.93 250 250 0 138.077-111.923 250-250 250C111.93 500 0 388.077 0 250 0 111.93 111.93 0 250 0" style="fill:#496083" transform="matrix(.07 0 0 .07 280 350)"/><path d="M250 0c138.077 0 250 111.93 250 250 0 138.077-111.923 250-250 250C111.93 500 0 388.077 0 250 0 111.93 111.93 0 250 0" style="fill:#496083" transform="matrix(.07 0 0 .07 315 350)"/><path d="M250 0c138.077 0 250 111.93 250 250 0 138.077-111.923 250-250 250C111.93 500 0 388.077 0 250 0 111.93 111.93 0 250 0" style="fill:#496083" transform="matrix(.07 0 0 .07 560 350)"/><path d="M250 0c138.077 0 250 111.93 250 250 0 138.077-111.923 250-250 250C111.93 500 0 388.077 0 250 0 111.93 111.93 0 250 0" style="fill:#496083" transform="matrix(.07 0 0 .07 700 350)"/><path d="M250 0c138.077 0 250 111.93 250 250 0 138.077-111.923 250-250 250C111.93 500 0 388.077 0 250 0 111.93 111.93 0 250 0" style="fill:#496083" transform="matrix(.07 0 0 .07 735 350)"/><path d="M250 0c138.077 0 250 111.93 250 250 0 138.077-111.923 250-250 250C111.93 500 0 388.077 0 250 0 111.93 111.93 0 250 0" style="fill:#496083" transform="matrix(.07 0 0 .07 770 350)"/><path d="M250 0c138.077 0 250 111.93 250 250 0 138.077-111.923 250-250 250C111.93 500 0 388.077 0 250 0 111.93 111.93 0 250 0" style="fill:#496083" transform="matrix(.07 0 0 .07 945 350)"/><path d="M250 0c138.077 0 250 111.93 250 250 0 138.077-111.923 250-250 250C111.93 500 0 388.077 0 250 0 111.93 111.93 0 250 0" style="fill:#496083" transform="matrix(.07 0 0 .07 980 350)"/><path d="M250 0c138.077 0 250 111.93 250 250 0 138.077-111.923 250-250 250C111.93 500 0 388.077 0 250 0 111.93 111.93 0 250 0" style="fill:#496083" transform="matrix(.07 0 0 .07 70 385)"/><path d="M250 0c138.077 0 250 111.93 250 250 0 138.077-111.923 250-250 250C111.93 500 0 388.077 0 250 0 111.93 111.93 0 250 0" style="fill:#496083" transform="matrix(.07 0 0 .07 105 385)"/><path d="M250 0c138.077 0 250 111.93 250 250 0 138.077-111.923 250-250 250C111.93 500 0 388.077 0 250 0 111.93 111.93 0 250 0" style="fill:#496083" transform="matrix(.07 0 0 .07 140 385)"/><path d="M250 0c138.077 0 250 111.93 250 250 0 138.077-111.923 250-250 250C111.93 500 0 388.077 0 250 0 111.93 111.93 0 250 0" style="fill:#496083" transform="matrix(.07 0 0 .07 245 385)"/><path d="M250 0c138.077 0 250 111.93 250 250 0 138.077-111.923 250-250 250C111.93 500 0 388.077 0 250 0 111.93 111.93 0 250 0" style="fill:#496083" transform="matrix(.07 0 0 .07 315 385)"/><path d="M250 0c138.077 0 250 111.93 250 250 0 138.077-111.923 250-250 250C111.93 500 0 388.077 0 250 0 111.93 111.93 0 250 0" style="fill:#496083" transform="matrix(.07 0 0 .07 350 385)"/><path d="M250 0c138.077 0 250 111.93 250 250 0 138.077-111.923 250-250 250C111.93 500 0 388.077 0 250 0 111.93 111.93 0 250 0" style="fill:#496083" transform="matrix(.07 0 0 .07 455 385)"/><path d="M250 0c138.077 0 250 111.93 250 250 0 138.077-111.923 250-250 250C111.93 500 0 388.077 0 250 0 111.93 111.93 0 250 0" style="fill:#496083" transform="matrix(.07 0 0 .07 525 385)"/><path d="M250 0c138.077 0 250 111.93 250 250 0 138.077-111.923 250-250 250C111.93 500 0 388.077 0 250 0 111.93 111.93 0 250 0" style="fill:#496083" transform="matrix(.07 0 0 .07 560 385)"/><path d="M250 0c138.077 0 250 111.93 250 250 0 138.077-111.923 250-250 250C111.93 500 0 388.077 0 250 0 111.93 111.93 0 250 0" style="fill:#496083" transform="matrix(.07 0 0 .07 595 385)"/><path d="M250 0c138.077 0 250 111.93 250 250 0 138.077-111.923 250-250 250C111.93 500 0 388.077 0 250 0 111.93 111.93 0 250 0" style="fill:#496083" transform="matrix(.07 0 0 .07 630 385)"/><path d="M250 0c138.077 0 250 111.93 250 250 0 138.077-111.923 250-250 250C111.93 500 0 388.077 0 250 0 111.93 111.93 0 250 0" style="fill:#496083" transform="matrix(.07 0 0 .07 770 385)"/><path d="M250 0c138.077 0 250 111.93 250 250 0 138.077-111.923 250-250 250C111.93 500 0 388.077 0 250 0 111.93 111.93 0 250 0" style="fill:#496083" transform="matrix(.07 0 0 .07 805 385)"/><path d="M250 0c138.077 0 250 111.93 250 250 0 138.077-111.923 250-250 250C111.93 500 0 388.077 0 250 0 111.93 111.93 0 250 0" style="fill:#496083" transform="matrix(.07 0 0 .07 875 385)"/><path d="M250 0c138.077 0 250 111.93 250 250 0 138.077-111.923 250-250 250C111.93 500 0 388.077 0 250 0 111.93 111.93 0 250 0" style="fill:#496083" transform="matrix(.07 0 0 .07 910 385)"/><path d="M250 0c138.077 0 250 111.93 250 250 0 138.077-111.923 250-250 250C111.93 500 0 388.077 0 250 0 111.93 111.93 0 250 0" style="fill:#496083" transform="matrix(.07 0 0 .07 980 385)"/><path d="M250 0c138.077 0 250 111.93 250 250 0 138.077-111.923 250-250 250C111.93 500 0 388.077 0 250 0 111.93 111.93 0 250 0" style="fill:#496083" transform="matrix(.07 0 0 .07 1015 385)"/><path d="M250 0c138.077 0 250 111.93 250 250 0 138.077-111.923 250-250 250C111.93 500 0 388.077 0 250 0 111.93 111.93 0 250 0" style="fill:#496083" transform="matrix(.07 0 0 .07 70 420)"/><path d="M250 0c138.077 0 250 111.93 250 250 0 138.077-111.923 250-250 250C111.93 500 0 388.077 0 250 0 111.93 111.93 0 250 0" style="fill:#496083" transform="matrix(.07 0 0 .07 140 420)"/><path d="M250 0c138.077 0 250 111.93 250 250 0 138.077-111.923 250-250 250C111.93 500 0 388.077 0 250 0 111.93 111.93 0 250 0" style="fill:#496083" transform="matrix(.07 0 0 .07 210 420)"/><path d="M250 0c138.077 0 250 111.93 250 250 0 138.077-111.923 250-250 250C111.93 500 0 388.077 0 250 0 111.93 111.93 0 250 0" style="fill:#496083" transform="matrix(.07 0 0 .07 280 420)"/><path d="M250 0c138.077 0 250 111.93 250 250 0 138.077-111.923 250-250 250C111.93 500 0 388.077 0 250 0 111.93 111.93 0 250 0" style="fill:#496083" transform="matrix(.07 0 0 .07 350 420)"/><path d="M250 0c138.077 0 250 111.93 250 250 0 138.077-111.923 250-250 250C111.93 500 0 388.077 0 250 0 111.93 111.93 0 250 0" style="fill:#496083" transform="matrix(.07 0 0 .07 455 420)"/><path d="M250 0c138.077 0 250 111.93 250 250 0 138.077-111.923 250-250 250C111.93 500 0 388.077 0 250 0 111.93 111.93 0 250 0" style="fill:#496083" transform="matrix(.07 0 0 .07 630 420)"/><path d="M250 0c138.077 0 250 111.93 250 250 0 138.077-111.923 250-250 250C111.93 500 0 388.077 0 250 0 111.93 111.93 0 250 0" style="fill:#496083" transform="matrix(.07 0 0 .07 700 420)"/><path d="M250 0c138.077 0 250 111.93 250 250 0 138.077-111.923 250-250 250C111.93 500 0 388.077 0 250 0 111.93 111.93 0 250 0" style="fill:#496083" transform="matrix(.07 0 0 .07 805 420)"/><path d="M250 0c138.077 0 250 111.93 250 250 0 138.077-111.923 250-250 250C111.93 500 0 388.077 0 250 0 111.93 111.93 0 250 0" style="fill:#496083" transform="matrix(.07 0 0 .07 840 420)"/><path d="M250 0c138.077 0 250 111.93 250 250 0 138.077-111.923 250-250 250C111.93 500 0 388.077 0 250 0 111.93 111.93 0 250 0" style="fill:#496083" transform="matrix(.07 0 0 .07 910 420)"/><path d="M250 0c138.077 0 250 111.93 250 250 0 138.077-111.923 250-250 250C111.93 500 0 388.077 0 250 0 111.93 111.93 0 250 0" style="fill:#496083" transform="matrix(.07 0 0 .07 945 420)"/><path d="M250 0c138.077 0 250 111.93 250 250 0 138.077-111.923 250-250 250C111.93 500 0 388.077 0 250 0 111.93 111.93 0 250 0" style="fill:#496083" transform="matrix(.07 0 0 .07 70 455)"/><path d="M250 0c138.077 0 250 111.93 250 250 0 138.077-111.923 250-250 250C111.93 500 0 388.077 0 250 0 111.93 111.93 0 250 0" style="fill:#496083" transform="matrix(.07 0 0 .07 140 455)"/><path d="M250 0c138.077 0 250 111.93 250 250 0 138.077-111.923 250-250 250C111.93 500 0 388.077 0 250 0 111.93 111.93 0 250 0" style="fill:#496083" transform="matrix(.07 0 0 .07 175 455)"/><path d="M250 0c138.077 0 250 111.93 250 250 0 138.077-111.923 250-250 250C111.93 500 0 388.077 0 250 0 111.93 111.93 0 250 0" style="fill:#496083" transform="matrix(.07 0 0 .07 210 455)"/><path d="M250 0c138.077 0 250 111.93 250 250 0 138.077-111.923 250-250 250C111.93 500 0 388.077 0 250 0 111.93 111.93 0 250 0" style="fill:#496083" transform="matrix(.07 0 0 .07 245 455)"/><path d="M250 0c138.077 0 250 111.93 250 250 0 138.077-111.923 250-250 250C111.93 500 0 388.077 0 250 0 111.93 111.93 0 250 0" style="fill:#496083" transform="matrix(.07 0 0 .07 315 455)"/><path d="M250 0c138.077 0 250 111.93 250 250 0 138.077-111.923 250-250 250C111.93 500 0 388.077 0 250 0 111.93 111.93 0 250 0" style="fill:#496083" transform="matrix(.07 0 0 .07 350 455)"/><path d="M250 0c138.077 0 250 111.93 250 250 0 138.077-111.923 250-250 250C111.93 500 0 388.077 0 250 0 111.93 111.93 0 250 0" style="fill:#496083" transform="matrix(.07 0 0 .07 455 455)"/><path d="M250 0c138.077 0 250 111.93 250 250 0 138.077-111.923 250-250 250C111.93 500 0 388.077 0 250 0 111.93 111.93 0 250 0" style="fill:#496083" transform="matrix(.07 0 0 .07 560 455)"/><path d="M250 0c138.077 0 250 111.93 250 250 0 138.077-111.923 250-250 250C111.93 500 0 388.077 0 250 0 111.93 111.93 0 250 0" style="fill:#496083" transform="matrix(.07 0 0 .07 630 455)"/><path d="M250 0c138.077 0 250 111.93 250 250 0 138.077-111.923 250-250 250C111.93 500 0 388.077 0 250 0 111.93 111.93 0 250 0" style="fill:#496083" transform="matrix(.07 0 0 .07 875 455)"/><path d="M250 0c138.077 0 250 111.93 250 250 0 138.077-111.923 250-250 250C111.93 500 0 388.077 0 250 0 111.93 111.93 0 250 0" style="fill:#496083" transform="matrix(.07 0 0 .07 910 455)"/><path d="M250 0c138.077 0 250 111.93 250 250 0 138.077-111.923 250-250 250C111.93 500 0 388.077 0 250 0 111.93 111.93 0 250 0" style="fill:#496083" transform="matrix(.07 0 0 .07 945 455)"/><path d="M250 0c138.077 0 250 111.93 250 250 0 138.077-111.923 250-250 250C111.93 500 0 388.077 0 250 0 111.93 111.93 0 250 0" style="fill:#496083" transform="matrix(.07 0 0 .07 1050 455)"/><path d="M250 0c138.077 0 250 111.93 250 250 0 138.077-111.923 250-250 250C111.93 500 0 388.077 0 250 0 111.93 111.93 0 250 0" style="fill:#496083" transform="matrix(.07 0 0 .07 70 490)"/><path d="M250 0c138.077 0 250 111.93 250 250 0 138.077-111.923 250-250 250C111.93 500 0 388.077 0 250 0 111.93 111.93 0 250 0" style="fill:#496083" transform="matrix(.07 0 0 .07 105 490)"/><path d="M250 0c138.077 0 250 111.93 250 250 0 138.077-111.923 250-250 250C111.93 500 0 388.077 0 250 0 111.93 111.93 0 250 0" style="fill:#496083" transform="matrix(.07 0 0 .07 175 490)"/><path d="M250 0c138.077 0 250 111.93 250 250 0 138.077-111.923 250-250 250C111.93 500 0 388.077 0 250 0 111.93 111.93 0 250 0" style="fill:#496083" transform="matrix(.07 0 0 .07 245 490)"/><path d="M250 0c138.077 0 250 111.93 250 250 0 138.077-111.923 250-250 250C111.93 500 0 388.077 0 250 0 111.93 111.93 0 250 0" style="fill:#496083" transform="matrix(.07 0 0 .07 280 490)"/><path d="M250 0c138.077 0 250 111.93 250 250 0 138.077-111.923 250-250 250C111.93 500 0 388.077 0 250 0 111.93 111.93 0 250 0" style="fill:#496083" transform="matrix(.07 0 0 .07 385 490)"/><path d="M250 0c138.077 0 250 111.93 250 250 0 138.077-111.923 250-250 250C111.93 500 0 388.077 0 250 0 111.93 111.93 0 250 0" style="fill:#496083" transform="matrix(.07 0 0 .07 420 490)"/><path d="M250 0c138.077 0 250 111.93 250 250 0 138.077-111.923 250-250 250C111.93 500 0 388.077 0 250 0 111.93 111.93 0 250 0" style="fill:#496083" transform="matrix(.07 0 0 .07 455 490)"/><path d="M250 0c138.077 0 250 111.93 250 250 0 138.077-111.923 250-250 250C111.93 500 0 388.077 0 250 0 111.93 111.93 0 250 0" style="fill:#496083" transform="matrix(.07 0 0 .07 490 490)"/><path d="M250 0c138.077 0 250 111.93 250 250 0 138.077-111.923 250-250 250C111.93 500 0 388.077 0 250 0 111.93 111.93 0 250 0" style="fill:#496083" transform="matrix(.07 0 0 .07 560 490)"/><path d="M250 0c138.077 0 250 111.93 250 250 0 138.077-111.923 250-250 250C111.93 500 0 388.077 0 250 0 111.93 111.93 0 250 0" style="fill:#496083" transform="matrix(.07 0 0 .07 595 490)"/><path d="M250 0c138.077 0 250 111.93 250 250 0 138.077-111.923 250-250 250C111.93 500 0 388.077 0 250 0 111.93 111.93 0 250 0" style="fill:#496083" transform="matrix(.07 0 0 .07 630 490)"/><path d="M250 0c138.077 0 250 111.93 250 250 0 138.077-111.923 250-250 250C111.93 500 0 388.077 0 250 0 111.93 111.93 0 250 0" style="fill:#496083" transform="matrix(.07 0 0 .07 665 490)"/><path d="M250 0c138.077 0 250 111.93 250 250 0 138.077-111.923 250-250 250C111.93 500 0 388.077 0 250 0 111.93 111.93 0 250 0" style="fill:#496083" transform="matrix(.07 0 0 .07 700 490)"/><path d="M250 0c138.077 0 250 111.93 250 250 0 138.077-111.923 250-250 250C111.93 500 0 388.077 0 250 0 111.93 111.93 0 250 0" style="fill:#496083" transform="matrix(.07 0 0 .07 735 490)"/><path d="M250 0c138.077 0 250 111.93 250 250 0 138.077-111.923 250-250 250C111.93 500 0 388.077 0 250 0 111.93 111.93 0 250 0" style="fill:#496083" transform="matrix(.07 0 0 .07 805 490)"/><path d="M250 0c138.077 0 250 111.93 250 250 0 138.077-111.923 250-250 250C111.93 500 0 388.077 0 250 0 111.93 111.93 0 250 0" style="fill:#496083" transform="matrix(.07 0 0 .07 840 490)"/><path d="M250 0c138.077 0 250 111.93 250 250 0 138.077-111.923 250-250 250C111.93 500 0 388.077 0 250 0 111.93 111.93 0 250 0" style="fill:#496083" transform="matrix(.07 0 0 .07 945 490)"/><path d="M250 0c138.077 0 250 111.93 250 250 0 138.077-111.923 250-250 250C111.93 500 0 388.077 0 250 0 111.93 111.93 0 250 0" style="fill:#496083" transform="matrix(.07 0 0 .07 1015 490)"/><path d="M250 0c138.077 0 250 111.93 250 250 0 138.077-111.923 250-250 250C111.93 500 0 388.077 0 250 0 111.93 111.93 0 250 0" style="fill:#496083" transform="matrix(.07 0 0 .07 105 525)"/><path d="M250 0c138.077 0 250 111.93 250 250 0 138.077-111.923 250-250 250C111.93 500 0 388.077 0 250 0 111.93 111.93 0 250 0" style="fill:#496083" transform="matrix(.07 0 0 .07 140 525)"/><path d="M250 0c138.077 0 250 111.93 250 250 0 138.077-111.923 250-250 250C111.93 500 0 388.077 0 250 0 111.93 111.93 0 250 0" style="fill:#496083" transform="matrix(.07 0 0 .07 245 525)"/><path d="M250 0c138.077 0 250 111.93 250 250 0 138.077-111.923 250-250 250C111.93 500 0 388.077 0 250 0 111.93 111.93 0 250 0" style="fill:#496083" transform="matrix(.07 0 0 .07 315 525)"/><path d="M250 0c138.077 0 250 111.93 250 250 0 138.077-111.923 250-250 250C111.93 500 0 388.077 0 250 0 111.93 111.93 0 250 0" style="fill:#496083" transform="matrix(.07 0 0 .07 455 525)"/><path d="M250 0c138.077 0 250 111.93 250 250 0 138.077-111.923 250-250 250C111.93 500 0 388.077 0 250 0 111.93 111.93 0 250 0" style="fill:#496083" transform="matrix(.07 0 0 .07 595 525)"/><path d="M250 0c138.077 0 250 111.93 250 250 0 138.077-111.923 250-250 250C111.93 500 0 388.077 0 250 0 111.93 111.93 0 250 0" style="fill:#496083" transform="matrix(.07 0 0 .07 770 525)"/><path d="M250 0c138.077 0 250 111.93 250 250 0 138.077-111.923 250-250 250C111.93 500 0 388.077 0 250 0 111.93 111.93 0 250 0" style="fill:#496083" transform="matrix(.07 0 0 .07 840 525)"/><path d="M250 0c138.077 0 250 111.93 250 250 0 138.077-111.923 250-250 250C111.93 500 0 388.077 0 250 0 111.93 111.93 0 250 0" style="fill:#496083" transform="matrix(.07 0 0 .07 910 525)"/><path d="M250 0c138.077 0 250 111.93 250 250 0 138.077-111.923 250-250 250C111.93 500 0 388.077 0 250 0 111.93 111.93 0 250 0" style="fill:#496083" transform="matrix(.07 0 0 .07 980 525)"/><path d="M250 0c138.077 0 250 111.93 250 250 0 138.077-111.923 250-250 250C111.93 500 0 388.077 0 250 0 111.93 111.93 0 250 0" style="fill:#496083" transform="matrix(.07 0 0 .07 1050 525)"/><path d="M250 0c138.077 0 250 111.93 250 250 0 138.077-111.923 250-250 250C111.93 500 0 388.077 0 250 0 111.93 111.93 0 250 0" style="fill:#496083" transform="matrix(.07 0 0 .07 70 560)"/><path d="M250 0c138.077 0 250 111.93 250 250 0 138.077-111.923 250-250 250C111.93 500 0 388.077 0 250 0 111.93 111.93 0 250 0" style="fill:#496083" transform="matrix(.07 0 0 .07 105 560)"/><path d="M250 0c138.077 0 250 111.93 250 250 0 138.077-111.923 250-250 250C111.93 500 0 388.077 0 250 0 111.93 111.93 0 250 0" style="fill:#496083" transform="matrix(.07 0 0 .07 280 560)"/><path d="M250 0c138.077 0 250 111.93 250 250 0 138.077-111.923 250-250 250C111.93 500 0 388.077 0 250 0 111.93 111.93 0 250 0" style="fill:#496083" transform="matrix(.07 0 0 .07 350 560)"/><path d="M250 0c138.077 0 250 111.93 250 250 0 138.077-111.923 250-250 250C111.93 500 0 388.077 0 250 0 111.93 111.93 0 250 0" style="fill:#496083" transform="matrix(.07 0 0 .07 420 560)"/><path d="M250 0c138.077 0 250 111.93 250 250 0 138.077-111.923 250-250 250C111.93 500 0 388.077 0 250 0 111.93 111.93 0 250 0" style="fill:#496083" transform="matrix(.07 0 0 .07 455 560)"/><path d="M250 0c138.077 0 250 111.93 250 250 0 138.077-111.923 250-250 250C111.93 500 0 388.077 0 250 0 111.93 111.93 0 250 0" style="fill:#496083" transform="matrix(.07 0 0 .07 560 560)"/><path d="M250 0c138.077 0 250 111.93 250 250 0 138.077-111.923 250-250 250C111.93 500 0 388.077 0 250 0 111.93 111.93 0 250 0" style="fill:#496083" transform="matrix(.07 0 0 .07 630 560)"/><path d="M250 0c138.077 0 250 111.93 250 250 0 138.077-111.923 250-250 250C111.93 500 0 388.077 0 250 0 111.93 111.93 0 250 0" style="fill:#496083" transform="matrix(.07 0 0 .07 735 560)"/><path d="M250 0c138.077 0 250 111.93 250 250 0 138.077-111.923 250-250 250C111.93 500 0 388.077 0 250 0 111.93 111.93 0 250 0" style="fill:#496083" transform="matrix(.07 0 0 .07 805 560)"/><path d="M250 0c138.077 0 250 111.93 250 250 0 138.077-111.923 250-250 250C111.93 500 0 388.077 0 250 0 111.93 111.93 0 250 0" style="fill:#496083" transform="matrix(.07 0 0 .07 840 560)"/><path d="M250 0c138.077 0 250 111.93 250 250 0 138.077-111.923 250-250 250C111.93 500 0 388.077 0 250 0 111.93 111.93 0 250 0" style="fill:#496083" transform="matrix(.07 0 0 .07 875 560)"/><path d="M250 0c138.077 0 250 111.93 250 250 0 138.077-111.923 250-250 250C111.93 500 0 388.077 0 250 0 111.93 111.93 0 250 0" style="fill:#496083" transform="matrix(.07 0 0 .07 945 560)"/><path d="M250 0c138.077 0 250 111.93 250 250 0 138.077-111.923 250-250 250C111.93 500 0 388.077 0 250 0 111.93 111.93 0 250 0" style="fill:#496083" transform="matrix(.07 0 0 .07 1050 560)"/><path d="M250 0c138.077 0 250 111.93 250 250 0 138.077-111.923 250-250 250C111.93 500 0 388.077 0 250 0 111.93 111.93 0 250 0" style="fill:#496083" transform="matrix(.07 0 0 .07 70 595)"/><path d="M250 0c138.077 0 250 111.93 250 250 0 138.077-111.923 250-250 250C111.93 500 0 388.077 0 250 0 111.93 111.93 0 250 0" style="fill:#496083" transform="matrix(.07 0 0 .07 105 595)"/><path d="M250 0c138.077 0 250 111.93 250 250 0 138.077-111.923 250-250 250C111.93 500 0 388.077 0 250 0 111.93 111.93 0 250 0" style="fill:#496083" transform="matrix(.07 0 0 .07 175 595)"/><path d="M250 0c138.077 0 250 111.93 250 250 0 138.077-111.923 250-250 250C111.93 500 0 388.077 0 250 0 111.93 111.93 0 250 0" style="fill:#496083" transform="matrix(.07 0 0 .07 210 595)"/><path d="M250 0c138.077 0 250 111.93 250 250 0 138.077-111.923 250-250 250C111.93 500 0 388.077 0 250 0 111.93 111.93 0 250 0" style="fill:#496083" transform="matrix(.07 0 0 .07 315 595)"/><path d="M250 0c138.077 0 250 111.93 250 250 0 138.077-111.923 250-250 250C111.93 500 0 388.077 0 250 0 111.93 111.93 0 250 0" style="fill:#496083" transform="matrix(.07 0 0 .07 350 595)"/><path d="M250 0c138.077 0 250 111.93 250 250 0 138.077-111.923 250-250 250C111.93 500 0 388.077 0 250 0 111.93 111.93 0 250 0" style="fill:#496083" transform="matrix(.07 0 0 .07 385 595)"/><path d="M250 0c138.077 0 250 111.93 250 250 0 138.077-111.923 250-250 250C111.93 500 0 388.077 0 250 0 111.93 111.93 0 250 0" style="fill:#496083" transform="matrix(.07 0 0 .07 455 595)"/><path d="M250 0c138.077 0 250 111.93 250 250 0 138.077-111.923 250-250 250C111.93 500 0 388.077 0 250 0 111.93 111.93 0 250 0" style="fill:#496083" transform="matrix(.07 0 0 .07 595 595)"/><path d="M250 0c138.077 0 250 111.93 250 250 0 138.077-111.923 250-250 250C111.93 500 0 388.077 0 250 0 111.93 111.93 0 250 0" style="fill:#496083" transform="matrix(.07 0 0 .07 665 595)"/><path d="M250 0c138.077 0 250 111.93 250 250 0 138.077-111.923 250-250 250C111.93 500 0 388.077 0 250 0 111.93 111.93 0 250 0" style="fill:#496083" transform="matrix(.07 0 0 .07 700 595)"/><path d="M250 0c138.077 0 250 111.93 250 250 0 138.077-111.923 250-250 250C111.93 500 0 388.077 0 250 0 111.93 111.93 0 250 0" style="fill:#496083" transform="matrix(.07 0 0 .07 840 595)"/><path d="M250 0c138.077 0 250 111.93 250 250 0 138.077-111.923 250-250 250C111.93 500 0 388.077 0 250 0 111.93 111.93 0 250 0" style="fill:#496083" transform="matrix(.07 0 0 .07 910 595)"/><path d="M250 0c138.077 0 250 111.93 250 250 0 138.077-111.923 250-250 250C111.93 500 0 388.077 0 250 0 111.93 111.93 0 250 0" style="fill:#496083" transform="matrix(.07 0 0 .07 945 595)"/><path d="M250 0c138.077 0 250 111.93 250 250 0 138.077-111.923 250-250 250C111.93 500 0 388.077 0 250 0 111.93 111.93 0 250 0" style="fill:#496083" transform="matrix(.07 0 0 .07 980 595)"/><path d="M250 0c138.077 0 250 111.93 250 250 0 138.077-111.923 250-250 250C111.93 500 0 388.077 0 250 0 111.93 111.93 0 250 0" style="fill:#496083" transform="matrix(.07 0 0 .07 70 630)"/><path d="M250 0c138.077 0 250 111.93 250 250 0 138.077-111.923 250-250 250C111.93 500 0 388.077 0 250 0 111.93 111.93 0 250 0" style="fill:#496083" transform="matrix(.07 0 0 .07 245 630)"/><path d="M250 0c138.077 0 250 111.93 250 250 0 138.077-111.923 250-250 250C111.93 500 0 388.077 0 250 0 111.93 111.93 0 250 0" style="fill:#496083" transform="matrix(.07 0 0 .07 280 630)"/><path d="M250 0c138.077 0 250 111.93 250 250 0 138.077-111.923 250-250 250C111.93 500 0 388.077 0 250 0 111.93 111.93 0 250 0" style="fill:#496083" transform="matrix(.07 0 0 .07 350 630)"/><path d="M250 0c138.077 0 250 111.93 250 250 0 138.077-111.923 250-250 250C111.93 500 0 388.077 0 250 0 111.93 111.93 0 250 0" style="fill:#496083" transform="matrix(.07 0 0 .07 490 630)"/><path d="M250 0c138.077 0 250 111.93 250 250 0 138.077-111.923 250-250 250C111.93 500 0 388.077 0 250 0 111.93 111.93 0 250 0" style="fill:#496083" transform="matrix(.07 0 0 .07 525 630)"/><path d="M250 0c138.077 0 250 111.93 250 250 0 138.077-111.923 250-250 250C111.93 500 0 388.077 0 250 0 111.93 111.93 0 250 0" style="fill:#496083" transform="matrix(.07 0 0 .07 560 630)"/><path d="M250 0c138.077 0 250 111.93 250 250 0 138.077-111.923 250-250 250C111.93 500 0 388.077 0 250 0 111.93 111.93 0 250 0" style="fill:#496083" transform="matrix(.07 0 0 .07 595 630)"/><path d="M250 0c138.077 0 250 111.93 250 250 0 138.077-111.923 250-250 250C111.93 500 0 388.077 0 250 0 111.93 111.93 0 250 0" style="fill:#496083" transform="matrix(.07 0 0 .07 630 630)"/><path d="M250 0c138.077 0 250 111.93 250 250 0 138.077-111.923 250-250 250C111.93 500 0 388.077 0 250 0 111.93 111.93 0 250 0" style="fill:#496083" transform="matrix(.07 0 0 .07 665 630)"/><path d="M250 0c138.077 0 250 111.93 250 250 0 138.077-111.923 250-250 250C111.93 500 0 388.077 0 250 0 111.93 111.93 0 250 0" style="fill:#496083" transform="matrix(.07 0 0 .07 700 630)"/><path d="M250 0c138.077 0 250 111.93 250 250 0 138.077-111.923 250-250 250C111.93 500 0 388.077 0 250 0 111.93 111.93 0 250 0" style="fill:#496083" transform="matrix(.07 0 0 .07 770 630)"/><path d="M250 0c138.077 0 250 111.93 250 250 0 138.077-111.923 250-250 250C111.93 500 0 388.077 0 250 0 111.93 111.93 0 250 0" style="fill:#496083" transform="matrix(.07 0 0 .07 875 630)"/><path d="M250 0c138.077 0 250 111.93 250 250 0 138.077-111.923 250-250 250C111.93 500 0 388.077 0 250 0 111.93 111.93 0 250 0" style="fill:#496083" transform="matrix(.07 0 0 .07 945 630)"/><path d="M250 0c138.077 0 250 111.93 250 250 0 138.077-111.923 250-250 250C111.93 500 0 388.077 0 250 0 111.93 111.93 0 250 0" style="fill:#496083" transform="matrix(.07 0 0 .07 1050 630)"/><path d="M250 0c138.077 0 250 111.93 250 250 0 138.077-111.923 250-250 250C111.93 500 0 388.077 0 250 0 111.93 111.93 0 250 0" style="fill:#496083" transform="matrix(.07 0 0 .07 70 665)"/><path d="M250 0c138.077 0 250 111.93 250 250 0 138.077-111.923 250-250 250C111.93 500 0 388.077 0 250 0 111.93 111.93 0 250 0" style="fill:#496083" transform="matrix(.07 0 0 .07 105 665)"/><path d="M250 0c138.077 0 250 111.93 250 250 0 138.077-111.923 250-250 250C111.93 500 0 388.077 0 250 0 111.93 111.93 0 250 0" style="fill:#496083" transform="matrix(.07 0 0 .07 140 665)"/><path d="M250 0c138.077 0 250 111.93 250 250 0 138.077-111.923 250-250 250C111.93 500 0 388.077 0 250 0 111.93 111.93 0 250 0" style="fill:#496083" transform="matrix(.07 0 0 .07 175 665)"/><path d="M250 0c138.077 0 250 111.93 250 250 0 138.077-111.923 250-250 250C111.93 500 0 388.077 0 250 0 111.93 111.93 0 250 0" style="fill:#496083" transform="matrix(.07 0 0 .07 210 665)"/><path d="M250 0c138.077 0 250 111.93 250 250 0 138.077-111.923 250-250 250C111.93 500 0 388.077 0 250 0 111.93 111.93 0 250 0" style="fill:#496083" transform="matrix(.07 0 0 .07 245 665)"/><path d="M250 0c138.077 0 250 111.93 250 250 0 138.077-111.923 250-250 250C111.93 500 0 388.077 0 250 0 111.93 111.93 0 250 0" style="fill:#496083" transform="matrix(.07 0 0 .07 315 665)"/><path d="M250 0c138.077 0 250 111.93 250 250 0 138.077-111.923 250-250 250C111.93 500 0 388.077 0 250 0 111.93 111.93 0 250 0" style="fill:#496083" transform="matrix(.07 0 0 .07 420 665)"/><path d="M250 0c138.077 0 250 111.93 250 250 0 138.077-111.923 250-250 250C111.93 500 0 388.077 0 250 0 111.93 111.93 0 250 0" style="fill:#496083" transform="matrix(.07 0 0 .07 455 665)"/><path d="M250 0c138.077 0 250 111.93 250 250 0 138.077-111.923 250-250 250C111.93 500 0 388.077 0 250 0 111.93 111.93 0 250 0" style="fill:#496083" transform="matrix(.07 0 0 .07 490 665)"/><path d="M250 0c138.077 0 250 111.93 250 250 0 138.077-111.923 250-250 250C111.93 500 0 388.077 0 250 0 111.93 111.93 0 250 0" style="fill:#496083" transform="matrix(.07 0 0 .07 700 665)"/><path d="M250 0c138.077 0 250 111.93 250 250 0 138.077-111.923 250-250 250C111.93 500 0 388.077 0 250 0 111.93 111.93 0 250 0" style="fill:#496083" transform="matrix(.07 0 0 .07 770 665)"/><path d="M250 0c138.077 0 250 111.93 250 250 0 138.077-111.923 250-250 250C111.93 500 0 388.077 0 250 0 111.93 111.93 0 250 0" style="fill:#496083" transform="matrix(.07 0 0 .07 805 665)"/><path d="M250 0c138.077 0 250 111.93 250 250 0 138.077-111.923 250-250 250C111.93 500 0 388.077 0 250 0 111.93 111.93 0 250 0" style="fill:#496083" transform="matrix(.07 0 0 .07 910 665)"/><path d="M250 0c138.077 0 250 111.93 250 250 0 138.077-111.923 250-250 250C111.93 500 0 388.077 0 250 0 111.93 111.93 0 250 0" style="fill:#496083" transform="matrix(.07 0 0 .07 945 665)"/><path d="M250 0c138.077 0 250 111.93 250 250 0 138.077-111.923 250-250 250C111.93 500 0 388.077 0 250 0 111.93 111.93 0 250 0" style="fill:#496083" transform="matrix(.07 0 0 .07 980 665)"/><path d="M250 0c138.077 0 250 111.93 250 250 0 138.077-111.923 250-250 250C111.93 500 0 388.077 0 250 0 111.93 111.93 0 250 0" style="fill:#496083" transform="matrix(.07 0 0 .07 70 700)"/><path d="M250 0c138.077 0 250 111.93 250 250 0 138.077-111.923 250-250 250C111.93 500 0 388.077 0 250 0 111.93 111.93 0 250 0" style="fill:#496083" transform="matrix(.07 0 0 .07 105 700)"/><path d="M250 0c138.077 0 250 111.93 250 250 0 138.077-111.923 250-250 250C111.93 500 0 388.077 0 250 0 111.93 111.93 0 250 0" style="fill:#496083" transform="matrix(.07 0 0 .07 140 700)"/><path d="M250 0c138.077 0 250 111.93 250 250 0 138.077-111.923 250-250 250C111.93 500 0 388.077 0 250 0 111.93 111.93 0 250 0" style="fill:#496083" transform="matrix(.07 0 0 .07 210 700)"/><path d="M250 0c138.077 0 250 111.93 250 250 0 138.077-111.923 250-250 250C111.93 500 0 388.077 0 250 0 111.93 111.93 0 250 0" style="fill:#496083" transform="matrix(.07 0 0 .07 280 700)"/><path d="M250 0c138.077 0 250 111.93 250 250 0 138.077-111.923 250-250 250C111.93 500 0 388.077 0 250 0 111.93 111.93 0 250 0" style="fill:#496083" transform="matrix(.07 0 0 .07 385 700)"/><path d="M250 0c138.077 0 250 111.93 250 250 0 138.077-111.923 250-250 250C111.93 500 0 388.077 0 250 0 111.93 111.93 0 250 0" style="fill:#496083" transform="matrix(.07 0 0 .07 420 700)"/><path d="M250 0c138.077 0 250 111.93 250 250 0 138.077-111.923 250-250 250C111.93 500 0 388.077 0 250 0 111.93 111.93 0 250 0" style="fill:#496083" transform="matrix(.07 0 0 .07 490 700)"/><path d="M250 0c138.077 0 250 111.93 250 250 0 138.077-111.923 250-250 250C111.93 500 0 388.077 0 250 0 111.93 111.93 0 250 0" style="fill:#496083" transform="matrix(.07 0 0 .07 525 700)"/><path d="M250 0c138.077 0 250 111.93 250 250 0 138.077-111.923 250-250 250C111.93 500 0 388.077 0 250 0 111.93 111.93 0 250 0" style="fill:#496083" transform="matrix(.07 0 0 .07 665 700)"/><path d="M250 0c138.077 0 250 111.93 250 250 0 138.077-111.923 250-250 250C111.93 500 0 388.077 0 250 0 111.93 111.93 0 250 0" style="fill:#496083" transform="matrix(.07 0 0 .07 770 700)"/><path d="M250 0c138.077 0 250 111.93 250 250 0 138.077-111.923 250-250 250C111.93 500 0 388.077 0 250 0 111.93 111.93 0 250 0" style="fill:#496083" transform="matrix(.07 0 0 .07 1050 700)"/><path d="M250 0c138.077 0 250 111.93 250 250 0 138.077-111.923 250-250 250C111.93 500 0 388.077 0 250 0 111.93 111.93 0 250 0" style="fill:#496083" transform="matrix(.07 0 0 .07 70 735)"/><path d="M250 0c138.077 0 250 111.93 250 250 0 138.077-111.923 250-250 250C111.93 500 0 388.077 0 250 0 111.93 111.93 0 250 0" style="fill:#496083" transform="matrix(.07 0 0 .07 105 735)"/><path d="M250 0c138.077 0 250 111.93 250 250 0 138.077-111.923 250-250 250C111.93 500 0 388.077 0 250 0 111.93 111.93 0 250 0" style="fill:#496083" transform="matrix(.07 0 0 .07 140 735)"/><path d="M250 0c138.077 0 250 111.93 250 250 0 138.077-111.923 250-250 250C111.93 500 0 388.077 0 250 0 111.93 111.93 0 250 0" style="fill:#496083" transform="matrix(.07 0 0 .07 210 735)"/><path d="M250 0c138.077 0 250 111.93 250 250 0 138.077-111.923 250-250 250C111.93 500 0 388.077 0 250 0 111.93 111.93 0 250 0" style="fill:#496083" transform="matrix(.07 0 0 .07 245 735)"/><path d="M250 0c138.077 0 250 111.93 250 250 0 138.077-111.923 250-250 250C111.93 500 0 388.077 0 250 0 111.93 111.93 0 250 0" style="fill:#496083" transform="matrix(.07 0 0 .07 315 735)"/><path d="M250 0c138.077 0 250 111.93 250 250 0 138.077-111.923 250-250 250C111.93 500 0 388.077 0 250 0 111.93 111.93 0 250 0" style="fill:#496083" transform="matrix(.07 0 0 .07 350 735)"/><path d="M250 0c138.077 0 250 111.93 250 250 0 138.077-111.923 250-250 250C111.93 500 0 388.077 0 250 0 111.93 111.93 0 250 0" style="fill:#496083" transform="matrix(.07 0 0 .07 385 735)"/><path d="M250 0c138.077 0 250 111.93 250 250 0 138.077-111.923 250-250 250C111.93 500 0 388.077 0 250 0 111.93 111.93 0 250 0" style="fill:#496083" transform="matrix(.07 0 0 .07 420 735)"/><path d="M250 0c138.077 0 250 111.93 250 250 0 138.077-111.923 250-250 250C111.93 500 0 388.077 0 250 0 111.93 111.93 0 250 0" style="fill:#496083" transform="matrix(.07 0 0 .07 490 735)"/><path d="M250 0c138.077 0 250 111.93 250 250 0 138.077-111.923 250-250 250C111.93 500 0 388.077 0 250 0 111.93 111.93 0 250 0" style="fill:#496083" transform="matrix(.07 0 0 .07 595 735)"/><path d="M250 0c138.077 0 250 111.93 250 250 0 138.077-111.923 250-250 250C111.93 500 0 388.077 0 250 0 111.93 111.93 0 250 0" style="fill:#496083" transform="matrix(.07 0 0 .07 665 735)"/><path d="M250 0c138.077 0 250 111.93 250 250 0 138.077-111.923 250-250 250C111.93 500 0 388.077 0 250 0 111.93 111.93 0 250 0" style="fill:#496083" transform="matrix(.07 0 0 .07 805 735)"/><path d="M250 0c138.077 0 250 111.93 250 250 0 138.077-111.923 250-250 250C111.93 500 0 388.077 0 250 0 111.93 111.93 0 250 0" style="fill:#496083" transform="matrix(.07 0 0 .07 840 735)"/><path d="M250 0c138.077 0 250 111.93 250 250 0 138.077-111.923 250-250 250C111.93 500 0 388.077 0 250 0 111.93 111.93 0 250 0" style="fill:#496083" transform="matrix(.07 0 0 .07 875 735)"/><path d="M250 0c138.077 0 250 111.93 250 250 0 138.077-111.923 250-250 250C111.93 500 0 388.077 0 250 0 111.93 111.93 0 250 0" style="fill:#496083" transform="matrix(.07 0 0 .07 980 735)"/><path d="M250 0c138.077 0 250 111.93 250 250 0 138.077-111.923 250-250 250C111.93 500 0 388.077 0 250 0 111.93 111.93 0 250 0" style="fill:#496083" transform="matrix(.07 0 0 .07 70 770)"/><path d="M250 0c138.077 0 250 111.93 250 250 0 138.077-111.923 250-250 250C111.93 500 0 388.077 0 250 0 111.93 111.93 0 250 0" style="fill:#496083" transform="matrix(.07 0 0 .07 105 770)"/><path d="M250 0c138.077 0 250 111.93 250 250 0 138.077-111.923 250-250 250C111.93 500 0 388.077 0 250 0 111.93 111.93 0 250 0" style="fill:#496083" transform="matrix(.07 0 0 .07 140 770)"/><path d="M250 0c138.077 0 250 111.93 250 250 0 138.077-111.923 250-250 250C111.93 500 0 388.077 0 250 0 111.93 111.93 0 250 0" style="fill:#496083" transform="matrix(.07 0 0 .07 280 770)"/><path d="M250 0c138.077 0 250 111.93 250 250 0 138.077-111.923 250-250 250C111.93 500 0 388.077 0 250 0 111.93 111.93 0 250 0" style="fill:#496083" transform="matrix(.07 0 0 .07 385 770)"/><path d="M250 0c138.077 0 250 111.93 250 250 0 138.077-111.923 250-250 250C111.93 500 0 388.077 0 250 0 111.93 111.93 0 250 0" style="fill:#496083" transform="matrix(.07 0 0 .07 455 770)"/><path d="M250 0c138.077 0 250 111.93 250 250 0 138.077-111.923 250-250 250C111.93 500 0 388.077 0 250 0 111.93 111.93 0 250 0" style="fill:#496083" transform="matrix(.07 0 0 .07 525 770)"/><path d="M250 0c138.077 0 250 111.93 250 250 0 138.077-111.923 250-250 250C111.93 500 0 388.077 0 250 0 111.93 111.93 0 250 0" style="fill:#496083" transform="matrix(.07 0 0 .07 630 770)"/><path d="M250 0c138.077 0 250 111.93 250 250 0 138.077-111.923 250-250 250C111.93 500 0 388.077 0 250 0 111.93 111.93 0 250 0" style="fill:#496083" transform="matrix(.07 0 0 .07 770 770)"/><path d="M250 0c138.077 0 250 111.93 250 250 0 138.077-111.923 250-250 250C111.93 500 0 388.077 0 250 0 111.93 111.93 0 250 0" style="fill:#496083" transform="matrix(.07 0 0 .07 805 770)"/><path d="M250 0c138.077 0 250 111.93 250 250 0 138.077-111.923 250-250 250C111.93 500 0 388.077 0 250 0 111.93 111.93 0 250 0" style="fill:#496083" transform="matrix(.07 0 0 .07 840 770)"/><path d="M250 0c138.077 0 250 111.93 250 250 0 138.077-111.923 250-250 250C111.93 500 0 388.077 0 250 0 111.93 111.93 0 250 0" style="fill:#496083" transform="matrix(.07 0 0 .07 875 770)"/><path d="M250 0c138.077 0 250 111.93 250 250 0 138.077-111.923 250-250 250C111.93 500 0 388.077 0 250 0 111.93 111.93 0 250 0" style="fill:#496083" transform="matrix(.07 0 0 .07 910 770)"/><path d="M250 0c138.077 0 250 111.93 250 250 0 138.077-111.923 250-250 250C111.93 500 0 388.077 0 250 0 111.93 111.93 0 250 0" style="fill:#496083" transform="matrix(.07 0 0 .07 945 770)"/><path d="M250 0c138.077 0 250 111.93 250 250 0 138.077-111.923 250-250 250C111.93 500 0 388.077 0 250 0 111.93 111.93 0 250 0" style="fill:#496083" transform="matrix(.07 0 0 .07 980 770)"/><path d="M250 0c138.077 0 250 111.93 250 250 0 138.077-111.923 250-250 250C111.93 500 0 388.077 0 250 0 111.93 111.93 0 250 0" style="fill:#496083" transform="matrix(.07 0 0 .07 1050 770)"/><path d="M250 0c138.077 0 250 111.93 250 250 0 138.077-111.923 250-250 250C111.93 500 0 388.077 0 250 0 111.93 111.93 0 250 0" style="fill:#496083" transform="matrix(.07 0 0 .07 350 805)"/><path d="M250 0c138.077 0 250 111.93 250 250 0 138.077-111.923 250-250 250C111.93 500 0 388.077 0 250 0 111.93 111.93 0 250 0" style="fill:#496083" transform="matrix(.07 0 0 .07 665 805)"/><path d="M250 0c138.077 0 250 111.93 250 250 0 138.077-111.923 250-250 250C111.93 500 0 388.077 0 250 0 111.93 111.93 0 250 0" style="fill:#496083" transform="matrix(.07 0 0 .07 700 805)"/><path d="M250 0c138.077 0 250 111.93 250 250 0 138.077-111.923 250-250 250C111.93 500 0 388.077 0 250 0 111.93 111.93 0 250 0" style="fill:#496083" transform="matrix(.07 0 0 .07 770 805)"/><path d="M250 0c138.077 0 250 111.93 250 250 0 138.077-111.923 250-250 250C111.93 500 0 388.077 0 250 0 111.93 111.93 0 250 0" style="fill:#496083" transform="matrix(.07 0 0 .07 910 805)"/><path d="M250 0c138.077 0 250 111.93 250 250 0 138.077-111.923 250-250 250C111.93 500 0 388.077 0 250 0 111.93 111.93 0 250 0" style="fill:#496083" transform="matrix(.07 0 0 .07 945 805)"/><path d="M250 0c138.077 0 250 111.93 250 250 0 138.077-111.923 250-250 250C111.93 500 0 388.077 0 250 0 111.93 111.93 0 250 0" style="fill:#496083" transform="matrix(.07 0 0 .07 980 805)"/><path d="M250 0c138.077 0 250 111.93 250 250 0 138.077-111.923 250-250 250C111.93 500 0 388.077 0 250 0 111.93 111.93 0 250 0" style="fill:#496083" transform="matrix(.07 0 0 .07 350 840)"/><path d="M250 0c138.077 0 250 111.93 250 250 0 138.077-111.923 250-250 250C111.93 500 0 388.077 0 250 0 111.93 111.93 0 250 0" style="fill:#496083" transform="matrix(.07 0 0 .07 385 840)"/><path d="M250 0c138.077 0 250 111.93 250 250 0 138.077-111.923 250-250 250C111.93 500 0 388.077 0 250 0 111.93 111.93 0 250 0" style="fill:#496083" transform="matrix(.07 0 0 .07 490 840)"/><path d="M250 0c138.077 0 250 111.93 250 250 0 138.077-111.923 250-250 250C111.93 500 0 388.077 0 250 0 111.93 111.93 0 250 0" style="fill:#496083" transform="matrix(.07 0 0 .07 525 840)"/><path d="M250 0c138.077 0 250 111.93 250 250 0 138.077-111.923 250-250 250C111.93 500 0 388.077 0 250 0 111.93 111.93 0 250 0" style="fill:#496083" transform="matrix(.07 0 0 .07 630 840)"/><path d="M250 0c138.077 0 250 111.93 250 250 0 138.077-111.923 250-250 250C111.93 500 0 388.077 0 250 0 111.93 111.93 0 250 0" style="fill:#496083" transform="matrix(.07 0 0 .07 700 840)"/><path d="M250 0c138.077 0 250 111.93 250 250 0 138.077-111.923 250-250 250C111.93 500 0 388.077 0 250 0 111.93 111.93 0 250 0" style="fill:#496083" transform="matrix(.07 0 0 .07 735 840)"/><path d="M250 0c138.077 0 250 111.93 250 250 0 138.077-111.923 250-250 250C111.93 500 0 388.077 0 250 0 111.93 111.93 0 250 0" style="fill:#496083" transform="matrix(.07 0 0 .07 770 840)"/><path d="M250 0c138.077 0 250 111.93 250 250 0 138.077-111.923 250-250 250C111.93 500 0 388.077 0 250 0 111.93 111.93 0 250 0" style="fill:#496083" transform="matrix(.07 0 0 .07 840 840)"/><path d="M250 0c138.077 0 250 111.93 250 250 0 138.077-111.923 250-250 250C111.93 500 0 388.077 0 250 0 111.93 111.93 0 250 0" style="fill:#496083" transform="matrix(.07 0 0 .07 910 840)"/><path d="M250 0c138.077 0 250 111.93 250 250 0 138.077-111.923 250-250 250C111.93 500 0 388.077 0 250 0 111.93 111.93 0 250 0" style="fill:#496083" transform="matrix(.07 0 0 .07 980 840)"/><path d="M250 0c138.077 0 250 111.93 250 250 0 138.077-111.923 250-250 250C111.93 500 0 388.077 0 250 0 111.93 111.93 0 250 0" style="fill:#496083" transform="matrix(.07 0 0 .07 1015 840)"/><path d="M250 0c138.077 0 250 111.93 250 250 0 138.077-111.923 250-250 250C111.93 500 0 388.077 0 250 0 111.93 111.93 0 250 0" style="fill:#496083" transform="matrix(.07 0 0 .07 385 875)"/><path d="M250 0c138.077 0 250 111.93 250 250 0 138.077-111.923 250-250 250C111.93 500 0 388.077 0 250 0 111.93 111.93 0 250 0" style="fill:#496083" transform="matrix(.07 0 0 .07 420 875)"/><path d="M250 0c138.077 0 250 111.93 250 250 0 138.077-111.923 250-250 250C111.93 500 0 388.077 0 250 0 111.93 111.93 0 250 0" style="fill:#496083" transform="matrix(.07 0 0 .07 455 875)"/><path d="M250 0c138.077 0 250 111.93 250 250 0 138.077-111.923 250-250 250C111.93 500 0 388.077 0 250 0 111.93 111.93 0 250 0" style="fill:#496083" transform="matrix(.07 0 0 .07 490 875)"/><path d="M250 0c138.077 0 250 111.93 250 250 0 138.077-111.923 250-250 250C111.93 500 0 388.077 0 250 0 111.93 111.93 0 250 0" style="fill:#496083" transform="matrix(.07 0 0 .07 525 875)"/><path d="M250 0c138.077 0 250 111.93 250 250 0 138.077-111.923 250-250 250C111.93 500 0 388.077 0 250 0 111.93 111.93 0 250 0" style="fill:#496083" transform="matrix(.07 0 0 .07 595 875)"/><path d="M250 0c138.077 0 250 111.93 250 250 0 138.077-111.923 250-250 250C111.93 500 0 388.077 0 250 0 111.93 111.93 0 250 0" style="fill:#496083" transform="matrix(.07 0 0 .07 700 875)"/><path d="M250 0c138.077 0 250 111.93 250 250 0 138.077-111.923 250-250 250C111.93 500 0 388.077 0 250 0 111.93 111.93 0 250 0" style="fill:#496083" transform="matrix(.07 0 0 .07 735 875)"/><path d="M250 0c138.077 0 250 111.93 250 250 0 138.077-111.923 250-250 250C111.93 500 0 388.077 0 250 0 111.93 111.93 0 250 0" style="fill:#496083" transform="matrix(.07 0 0 .07 770 875)"/><path d="M250 0c138.077 0 250 111.93 250 250 0 138.077-111.923 250-250 250C111.93 500 0 388.077 0 250 0 111.93 111.93 0 250 0" style="fill:#496083" transform="matrix(.07 0 0 .07 910 875)"/><path d="M250 0c138.077 0 250 111.93 250 250 0 138.077-111.923 250-250 250C111.93 500 0 388.077 0 250 0 111.93 111.93 0 250 0" style="fill:#496083" transform="matrix(.07 0 0 .07 945 875)"/><path d="M250 0c138.077 0 250 111.93 250 250 0 138.077-111.923 250-250 250C111.93 500 0 388.077 0 250 0 111.93 111.93 0 250 0" style="fill:#496083" transform="matrix(.07 0 0 .07 1050 875)"/><path d="M250 0c138.077 0 250 111.93 250 250 0 138.077-111.923 250-250 250C111.93 500 0 388.077 0 250 0 111.93 111.93 0 250 0" style="fill:#496083" transform="matrix(.07 0 0 .07 350 910)"/><path d="M250 0c138.077 0 250 111.93 250 250 0 138.077-111.923 250-250 250C111.93 500 0 388.077 0 250 0 111.93 111.93 0 250 0" style="fill:#496083" transform="matrix(.07 0 0 .07 385 910)"/><path d="M250 0c138.077 0 250 111.93 250 250 0 138.077-111.923 250-250 250C111.93 500 0 388.077 0 250 0 111.93 111.93 0 250 0" style="fill:#496083" transform="matrix(.07 0 0 .07 455 910)"/><path d="M250 0c138.077 0 250 111.93 250 250 0 138.077-111.923 250-250 250C111.93 500 0 388.077 0 250 0 111.93 111.93 0 250 0" style="fill:#496083" transform="matrix(.07 0 0 .07 560 910)"/><path d="M250 0c138.077 0 250 111.93 250 250 0 138.077-111.923 250-250 250C111.93 500 0 388.077 0 250 0 111.93 111.93 0 250 0" style="fill:#496083" transform="matrix(.07 0 0 .07 630 910)"/><path d="M250 0c138.077 0 250 111.93 250 250 0 138.077-111.923 250-250 250C111.93 500 0 388.077 0 250 0 111.93 111.93 0 250 0" style="fill:#496083" transform="matrix(.07 0 0 .07 665 910)"/><path d="M250 0c138.077 0 250 111.93 250 250 0 138.077-111.923 250-250 250C111.93 500 0 388.077 0 250 0 111.93 111.93 0 250 0" style="fill:#496083" transform="matrix(.07 0 0 .07 735 910)"/><path d="M250 0c138.077 0 250 111.93 250 250 0 138.077-111.923 250-250 250C111.93 500 0 388.077 0 250 0 111.93 111.93 0 250 0" style="fill:#496083" transform="matrix(.07 0 0 .07 770 910)"/><path d="M250 0c138.077 0 250 111.93 250 250 0 138.077-111.923 250-250 250C111.93 500 0 388.077 0 250 0 111.93 111.93 0 250 0" style="fill:#496083" transform="matrix(.07 0 0 .07 805 910)"/><path d="M250 0c138.077 0 250 111.93 250 250 0 138.077-111.923 250-250 250C111.93 500 0 388.077 0 250 0 111.93 111.93 0 250 0" style="fill:#496083" transform="matrix(.07 0 0 .07 840 910)"/><path d="M250 0c138.077 0 250 111.93 250 250 0 138.077-111.923 250-250 250C111.93 500 0 388.077 0 250 0 111.93 111.93 0 250 0" style="fill:#496083" transform="matrix(.07 0 0 .07 875 910)"/><path d="M250 0c138.077 0 250 111.93 250 250 0 138.077-111.923 250-250 250C111.93 500 0 388.077 0 250 0 111.93 111.93 0 250 0" style="fill:#496083" transform="matrix(.07 0 0 .07 910 910)"/><path d="M250 0c138.077 0 250 111.93 250 250 0 138.077-111.923 250-250 250C111.93 500 0 388.077 0 250 0 111.93 111.93 0 250 0" style="fill:#496083" transform="matrix(.07 0 0 .07 1015 910)"/><path d="M250 0c138.077 0 250 111.93 250 250 0 138.077-111.923 250-250 250C111.93 500 0 388.077 0 250 0 111.93 111.93 0 250 0" style="fill:#496083" transform="matrix(.07 0 0 .07 1050 910)"/><path d="M250 0c138.077 0 250 111.93 250 250 0 138.077-111.923 250-250 250C111.93 500 0 388.077 0 250 0 111.93 111.93 0 250 0" style="fill:#496083" transform="matrix(.07 0 0 .07 350 945)"/><path d="M250 0c138.077 0 250 111.93 250 250 0 138.077-111.923 250-250 250C111.93 500 0 388.077 0 250 0 111.93 111.93 0 250 0" style="fill:#496083" transform="matrix(.07 0 0 .07 385 945)"/><path d="M250 0c138.077 0 250 111.93 250 250 0 138.077-111.923 250-250 250C111.93 500 0 388.077 0 250 0 111.93 111.93 0 250 0" style="fill:#496083" transform="matrix(.07 0 0 .07 490 945)"/><path d="M250 0c138.077 0 250 111.93 250 250 0 138.077-111.923 250-250 250C111.93 500 0 388.077 0 250 0 111.93 111.93 0 250 0" style="fill:#496083" transform="matrix(.07 0 0 .07 525 945)"/><path d="M250 0c138.077 0 250 111.93 250 250 0 138.077-111.923 250-250 250C111.93 500 0 388.077 0 250 0 111.93 111.93 0 250 0" style="fill:#496083" transform="matrix(.07 0 0 .07 560 945)"/><path d="M250 0c138.077 0 250 111.93 250 250 0 138.077-111.923 250-250 250C111.93 500 0 388.077 0 250 0 111.93 111.93 0 250 0" style="fill:#496083" transform="matrix(.07 0 0 .07 630 945)"/><path d="M250 0c138.077 0 250 111.93 250 250 0 138.077-111.923 250-250 250C111.93 500 0 388.077 0 250 0 111.93 111.93 0 250 0" style="fill:#496083" transform="matrix(.07 0 0 .07 700 945)"/><path d="M250 0c138.077 0 250 111.93 250 250 0 138.077-111.923 250-250 250C111.93 500 0 388.077 0 250 0 111.93 111.93 0 250 0" style="fill:#496083" transform="matrix(.07 0 0 .07 875 945)"/><path d="M250 0c138.077 0 250 111.93 250 250 0 138.077-111.923 250-250 250C111.93 500 0 388.077 0 250 0 111.93 111.93 0 250 0" style="fill:#496083" transform="matrix(.07 0 0 .07 1015 945)"/><path d="M250 0c138.077 0 250 111.93 250 250 0 138.077-111.923 250-250 250C111.93 500 0 388.077 0 250 0 111.93 111.93 0 250 0" style="fill:#496083" transform="matrix(.07 0 0 .07 385 980)"/><path d="M250 0c138.077 0 250 111.93 250 250 0 138.077-111.923 250-250 250C111.93 500 0 388.077 0 250 0 111.93 111.93 0 250 0" style="fill:#496083" transform="matrix(.07 0 0 .07 455 980)"/><path d="M250 0c138.077 0 250 111.93 250 250 0 138.077-111.923 250-250 250C111.93 500 0 388.077 0 250 0 111.93 111.93 0 250 0" style="fill:#496083" transform="matrix(.07 0 0 .07 560 980)"/><path d="M250 0c138.077 0 250 111.93 250 250 0 138.077-111.923 250-250 250C111.93 500 0 388.077 0 250 0 111.93 111.93 0 250 0" style="fill:#496083" transform="matrix(.07 0 0 .07 595 980)"/><path d="M250 0c138.077 0 250 111.93 250 250 0 138.077-111.923 250-250 250C111.93 500 0 388.077 0 250 0 111.93 111.93 0 250 0" style="fill:#496083" transform="matrix(.07 0 0 .07 630 980)"/><path d="M250 0c138.077 0 250 111.93 250 250 0 138.077-111.923 250-250 250C111.93 500 0 388.077 0 250 0 111.93 111.93 0 250 0" style="fill:#496083" transform="matrix(.07 0 0 .07 770 980)"/><path d="M250 0c138.077 0 250 111.93 250 250 0 138.077-111.923 250-250 250C111.93 500 0 388.077 0 250 0 111.93 111.93 0 250 0" style="fill:#496083" transform="matrix(.07 0 0 .07 805 980)"/><path d="M250 0c138.077 0 250 111.93 250 250 0 138.077-111.923 250-250 250C111.93 500 0 388.077 0 250 0 111.93 111.93 0 250 0" style="fill:#496083" transform="matrix(.07 0 0 .07 875 980)"/><path d="M250 0c138.077 0 250 111.93 250 250 0 138.077-111.923 250-250 250C111.93 500 0 388.077 0 250 0 111.93 111.93 0 250 0" style="fill:#496083" transform="matrix(.07 0 0 .07 910 980)"/><path d="M250 0c138.077 0 250 111.93 250 250 0 138.077-111.923 250-250 250C111.93 500 0 388.077 0 250 0 111.93 111.93 0 250 0" style="fill:#496083" transform="matrix(.07 0 0 .07 1015 980)"/><path d="M250 0c138.077 0 250 111.93 250 250 0 138.077-111.923 250-250 250C111.93 500 0 388.077 0 250 0 111.93 111.93 0 250 0" style="fill:#496083" transform="matrix(.07 0 0 .07 1050 980)"/><path d="M250 0c138.077 0 250 111.93 250 250 0 138.077-111.923 250-250 250C111.93 500 0 388.077 0 250 0 111.93 111.93 0 250 0" style="fill:#496083" transform="matrix(.07 0 0 .07 385 1015)"/><path d="M250 0c138.077 0 250 111.93 250 250 0 138.077-111.923 250-250 250C111.93 500 0 388.077 0 250 0 111.93 111.93 0 250 0" style="fill:#496083" transform="matrix(.07 0 0 .07 420 1015)"/><path d="M250 0c138.077 0 250 111.93 250 250 0 138.077-111.923 250-250 250C111.93 500 0 388.077 0 250 0 111.93 111.93 0 250 0" style="fill:#496083" transform="matrix(.07 0 0 .07 455 1015)"/><path d="M250 0c138.077 0 250 111.93 250 250 0 138.077-111.923 250-250 250C111.93 500 0 388.077 0 250 0 111.93 111.93 0 250 0" style="fill:#496083" transform="matrix(.07 0 0 .07 525 1015)"/><path d="M250 0c138.077 0 250 111.93 250 250 0 138.077-111.923 250-250 250C111.93 500 0 388.077 0 250 0 111.93 111.93 0 250 0" style="fill:#496083" transform="matrix(.07 0 0 .07 700 1015)"/><path d="M250 0c138.077 0 250 111.93 250 250 0 138.077-111.923 250-250 250C111.93 500 0 388.077 0 250 0 111.93 111.93 0 250 0" style="fill:#496083" transform="matrix(.07 0 0 .07 770 1015)"/><path d="M250 0c138.077 0 250 111.93 250 250 0 138.077-111.923 250-250 250C111.93 500 0 388.077 0 250 0 111.93 111.93 0 250 0" style="fill:#496083" transform="matrix(.07 0 0 .07 840 1015)"/><path d="M250 0c138.077 0 250 111.93 250 250 0 138.077-111.923 250-250 250C111.93 500 0 388.077 0 250 0 111.93 111.93 0 250 0" style="fill:#496083" transform="matrix(.07 0 0 .07 910 1015)"/><path d="M250 0c138.077 0 250 111.93 250 250 0 138.077-111.923 250-250 250C111.93 500 0 388.077 0 250 0 111.93 111.93 0 250 0" style="fill:#496083" transform="matrix(.07 0 0 .07 980 1015)"/><path d="M250 0c138.077 0 250 111.93 250 250 0 138.077-111.923 250-250 250C111.93 500 0 388.077 0 250 0 111.93 111.93 0 250 0" style="fill:#496083" transform="matrix(.07 0 0 .07 1050 1015)"/><path d="M250 0c138.077 0 250 111.93 250 250 0 138.077-111.923 250-250 250C111.93 500 0 388.077 0 250 0 111.93 111.93 0 250 0" style="fill:#496083" transform="matrix(.07 0 0 .07 455 1050)"/><path d="M250 0c138.077 0 250 111.93 250 250 0 138.077-111.923 250-250 250C111.93 500 0 388.077 0 250 0 111.93 111.93 0 250 0" style="fill:#496083" transform="matrix(.07 0 0 .07 560 1050)"/><path d="M250 0c138.077 0 250 111.93 250 250 0 138.077-111.923 250-250 250C111.93 500 0 388.077 0 250 0 111.93 111.93 0 250 0" style="fill:#496083" transform="matrix(.07 0 0 .07 630 1050)"/><path d="M250 0c138.077 0 250 111.93 250 250 0 138.077-111.923 250-250 250C111.93 500 0 388.077 0 250 0 111.93 111.93 0 250 0" style="fill:#496083" transform="matrix(.07 0 0 .07 700 1050)"/><path d="M250 0c138.077 0 250 111.93 250 250 0 138.077-111.923 250-250 250C111.93 500 0 388.077 0 250 0 111.93 111.93 0 250 0" style="fill:#496083" transform="matrix(.07 0 0 .07 770 1050)"/><path d="M250 0c138.077 0 250 111.93 250 250 0 138.077-111.923 250-250 250C111.93 500 0 388.077 0 250 0 111.93 111.93 0 250 0" style="fill:#496083" transform="matrix(.07 0 0 .07 805 1050)"/><path d="M250 0c138.077 0 250 111.93 250 250 0 138.077-111.923 250-250 250C111.93 500 0 388.077 0 250 0 111.93 111.93 0 250 0" style="fill:#496083" transform="matrix(.07 0 0 .07 875 1050)"/><path d="M250 0c138.077 0 250 111.93 250 250 0 138.077-111.923 250-250 250C111.93 500 0 388.077 0 250 0 111.93 111.93 0 250 0" style="fill:#496083" transform="matrix(.07 0 0 .07 910 1050)"/><g style="fill:#496083"><path d="M85 66.221V33.75C85 23.411 76.414 15 65.859 15H34.14C23.586 15 15 23.411 15 33.75v51.246l50.855-.016C76.414 84.98 85 76.564 85 66.221" style="fill:none" transform="matrix(-2.45 0 0 2.45 315 70)"/><path d="M70 232.241v-79.554C70 107.096 107.534 70 153.645 70h77.712C277.466 70 315 107.095 315 152.688V315l-161.355-.049c-46.111 0-83.645-37.093-83.645-82.71m36.75 0c0 25.343 21.036 45.962 46.905 45.962l124.595.037V152.687c0-25.33-21.036-45.937-46.893-45.937h-77.712c-25.86 0-46.895 20.607-46.895 45.938z"/></g><g style="fill:#496083"><path d="M85 66.221V33.75C85 23.411 76.414 15 65.859 15H34.14C23.586 15 15 23.411 15 33.75v51.246l50.855-.016C76.414 84.98 85 76.564 85 66.221" style="fill:none" transform="translate(840 70)scale(2.45)"/><path d="M1085 232.241v-79.554c0-45.592-37.534-82.687-83.645-82.687h-77.712C877.534 70 840 107.095 840 152.688V315l161.355-.049c46.111 0 83.645-37.093 83.645-82.71m-36.75 0c0 25.343-21.036 45.962-46.905 45.962l-124.595.037V152.687c0-25.33 21.036-45.937 46.893-45.937h77.712c25.86 0 46.895 20.607 46.895 45.938z"/></g><g style="fill:#496083"><path d="M85 66.221V33.75C85 23.411 76.414 15 65.859 15H34.14C23.586 15 15 23.411 15 33.75v51.246l50.855-.016C76.414 84.98 85 76.564 85 66.221" style="fill:none" transform="matrix(-2.45 0 0 -2.45 315 1085)"/><path d="M70 922.759v79.553c0 45.593 37.534 82.688 83.645 82.688h77.712c46.109 0 83.643-37.095 83.643-82.687V840l-161.355.049c-46.111 0-83.645 37.093-83.645 82.71m36.75 0c0-25.343 21.036-45.962 46.905-45.962l124.595-.037v125.553c0 25.33-21.036 45.937-46.893 45.937h-77.712c-25.86 0-46.895-20.607-46.895-45.937z"/></g><path d="M100 72.779V27.195C100 12.203 87.604 0 72.37 0H27.63C12.397 0 0 12.203 0 27.195V100l72.37-.042c15.234 0 27.63-12.187 27.63-27.179" style="fill:#eb644c" transform="matrix(-1.05 0 0 1.05 245 140)"/><path d="M100 72.779V27.195C100 12.203 87.604 0 72.37 0H27.63C12.397 0 0 12.203 0 27.195V100l72.37-.042c15.234 0 27.63-12.187 27.63-27.179" style="fill:#eb644c" transform="translate(910 140)scale(1.05)"/><path d="M100 72.779V27.195C100 12.203 87.604 0 72.37 0H27.63C12.397 0 0 12.203 0 27.195V100l72.37-.042c15.234 0 27.63-12.187 27.63-27.179" style="fill:#eb644c" transform="matrix(-1.05 0 0 -1.05 245 1015)"/><svg xmlns="http://www.w3.org/2000/svg" width="104" height="103" fill="none" transform="matrix(3.02885 0 0 3.02885 420 421.514)" viewBox="0 0 104 103"><path fill="#EB644C" d="M101.234.797H67.941c-.499 0-.977.199-1.329.554L52.298 15.784a1.86 1.86 0 0 0-.539 1.306v29.693l-14.526-14.45a1.253 1.253 0 0 0-1.763 0L1.335 66.286a1.234 1.234 0 0 0 0 1.753l34.134 33.953a1.253 1.253 0 0 0 1.763 0l14.526-14.45v13.529c0 1.027.837 1.858 1.869 1.858H86.94c.486 0 .952-.189 1.3-.525l14.293-13.806a1.86 1.86 0 0 0 .567-1.335V2.655a1.863 1.863 0 0 0-1.867-1.858"/></svg></svg>