<svg width="44" height="44" viewBox="0 0 44 44" fill="none" xmlns="http://www.w3.org/2000/svg">
<path d="M30.0648 18.8258C28.6886 20.2334 23.399 22.7549 22.0107 21.3351C20.6345 19.9274 23.6742 15.117 25.0624 13.7094L31.8599 6.75689C33.2362 5.34926 35.4861 5.34926 36.8623 6.75689C38.2386 8.16452 38.2386 10.4657 36.8623 11.8733L30.0648 18.8258Z" fill="#C34C8B"/>
<path d="M4.78941 33.0975L11.8143 25.9124C13.2384 24.4558 18.7076 21.8609 20.1317 23.3175C21.5558 24.7741 18.4084 29.7436 16.9843 31.2002L9.95936 38.3852C8.53523 39.8418 6.21354 39.8418 4.78941 38.3852C3.36528 36.9286 3.36528 34.554 4.78941 33.0975Z" fill="#C34C8B"/>
<path d="M13.1424 18.5563L6.34492 11.6038C4.96866 10.1962 4.96866 7.89499 6.34492 6.48736C7.72118 5.07973 9.97106 5.07973 11.3473 6.48736L18.1448 13.4398C19.5211 14.8475 21.9864 20.2577 20.5982 21.6775C19.222 23.0852 14.5187 19.9762 13.1424 18.5563Z" fill="#C34C8B"/>
<path d="M22.0828 22.9752C23.5069 21.5186 28.3657 24.7378 29.7898 26.1944L36.8147 33.3794C38.2388 34.836 38.2388 37.2106 36.8147 38.6672C35.3906 40.1238 33.0689 40.1238 31.6448 38.6672L24.6199 31.4822C23.1957 30.0256 20.6586 24.4318 22.0828 22.9752Z" fill="#C34C8B"/>
<path d="M20.7539 30.1113C22.0224 30.1113 22.7764 33.7344 22.7764 35.0196V41.3723C22.7764 42.6698 21.7471 43.7102 20.4905 43.7102C19.234 43.7102 18.2048 42.6576 18.2048 41.3723V35.0196C18.2048 33.7222 19.4972 30.1113 20.7658 30.1113H20.7539Z" fill="#C34C8B"/>
<path d="M21.4011 13.5989C20.1326 13.5989 19.3786 9.97582 19.3786 8.69059V2.33789C19.3786 1.04043 20.4078 0 21.6644 0C22.9329 0 23.9502 1.05267 23.9502 2.33789V8.69059C23.9502 9.98806 22.6577 13.5989 21.3891 13.5989H21.4011Z" fill="#C34C8B"/>
<path d="M13.2979 22.3142C13.2979 23.6116 9.75547 24.3828 8.49888 24.3828H2.28776C1.01921 24.3828 0.00200939 23.3301 0.00200939 22.0449C0.00200939 20.7474 1.03118 19.707 2.28776 19.707H8.49888C9.76744 19.707 13.2979 21.029 13.2979 22.3264V22.3142Z" fill="#C34C8B"/>
<path d="M29.9932 21.7629C29.9932 20.4655 33.5356 19.6943 34.7922 19.6943H41.0033C42.2719 19.6943 43.2891 20.747 43.2891 22.0322C43.2891 23.3175 42.2599 24.3701 41.0033 24.3701H34.7922C33.5236 24.3701 29.9932 23.0482 29.9932 21.7507V21.7629Z" fill="#C34C8B"/>
</svg>
