<svg width="702" height="651" viewBox="0 0 702 651" fill="none" xmlns="http://www.w3.org/2000/svg">
<path d="M207.895 212.324C207.895 214.28 209.943 219.841 211.889 219.841C213.835 219.841 215.064 214.28 215.064 212.324V202.541C215.064 200.585 213.425 198.938 211.479 198.938C209.533 198.938 207.895 200.585 207.895 202.541V212.324Z" fill="#FFDC8A"/>
<path d="M215.884 240.538V230.447C215.884 228.387 213.836 222.621 211.787 222.621C209.739 222.621 208.51 228.387 208.51 230.447V240.538C208.51 242.597 210.149 244.245 212.197 244.245C214.245 244.245 215.884 242.597 215.884 240.538Z" fill="#FFDC8A"/>
<path d="M220.086 224.27H229.816C231.762 224.27 233.401 222.623 233.401 220.666C233.401 218.71 231.762 217.062 229.816 217.062H220.086C218.14 217.062 212.609 219.122 212.609 221.078C212.609 223.138 218.14 224.27 220.086 224.27Z" fill="#FFDC8A"/>
<path d="M210.663 220.975C210.663 218.915 204.927 217.68 202.879 217.68H192.842C190.793 217.68 189.154 219.327 189.154 221.387C189.154 223.446 190.793 225.094 192.842 225.094H202.879C204.927 225.094 210.663 223.034 210.663 220.975Z" fill="#FFDC8A"/>
<path d="M206.569 226.942C205.648 226.015 202.575 228.075 201.653 228.898L197.249 233.326C196.327 234.253 196.327 235.694 197.249 236.621C198.171 237.548 199.605 237.548 200.527 236.621L204.931 232.193C205.955 231.37 207.491 227.869 206.569 226.942Z" fill="#FFB914"/>
<path d="M217.73 214.894C218.652 215.821 221.725 213.761 222.647 212.937L227.051 208.51C227.973 207.583 227.973 206.141 227.051 205.215C226.129 204.288 224.695 204.288 223.773 205.215L219.369 209.642C218.345 210.466 216.809 213.967 217.73 214.894Z" fill="#FFB914"/>
<path d="M217.429 226.844C216.507 227.771 218.556 230.86 219.375 231.787L223.779 236.214C224.701 237.141 226.135 237.141 227.057 236.214C227.978 235.288 227.978 233.846 227.057 232.919L222.652 228.492C221.731 227.565 218.248 225.917 217.429 226.844Z" fill="#FFB914"/>
<path d="M205.85 214.487C206.772 213.561 204.724 210.471 203.904 209.545L199.5 205.117C198.578 204.19 197.144 204.19 196.223 205.117C195.301 206.044 195.301 207.485 196.223 208.412L200.627 212.84C201.446 213.766 204.929 215.311 205.85 214.487Z" fill="#FFB914"/>
<path d="M405.933 182.658C419.511 196.309 471.344 220.592 484.923 206.941C498.501 193.29 468.603 146.955 455.024 133.304L388.307 66.2304C374.729 52.5794 352.794 52.5794 339.216 66.2304C325.638 79.8814 325.638 101.933 339.216 115.584L405.933 182.658Z" stroke="#D7D7D7" stroke-width="1.64058" stroke-miterlimit="10"/>
<path d="M653.993 320.483L585.056 251.178C571.086 237.133 517.426 212.062 503.455 226.107C489.485 240.152 520.298 288.062 534.398 302.106L603.335 371.412C617.305 385.456 640.023 385.456 654.124 371.412C667.963 357.367 667.963 334.528 653.993 320.483Z" stroke="#D7D7D7" stroke-width="1.64058" stroke-miterlimit="10"/>
<path d="M571.88 180.033L638.597 112.959C652.176 99.3081 652.176 77.2564 638.597 63.6054C625.019 49.9544 603.085 49.9544 589.506 63.6054L522.789 130.679C509.211 144.33 485.057 196.44 498.635 210.091C512.214 223.742 558.302 193.684 571.88 180.033Z" stroke="#D7D7D7" stroke-width="1.64058" stroke-miterlimit="10"/>
<path d="M484.134 222.698C470.164 208.653 422.509 239.631 408.539 253.807L339.603 323.112C325.632 337.156 325.632 359.996 339.603 374.172C353.573 388.216 376.29 388.216 390.391 374.172L459.328 304.867C473.167 290.691 498.104 236.874 484.134 222.698Z" stroke="#D7D7D7" stroke-width="1.64058" stroke-miterlimit="10"/>
<path d="M497.187 291.605C484.784 291.605 477.342 326.52 477.342 338.99V400.288C477.342 412.758 487.395 422.865 499.798 422.865C512.202 422.865 522.255 412.758 522.255 400.288V338.99C522.255 326.52 509.59 291.605 497.187 291.605Z" stroke="#D7D7D7" stroke-width="1.64058" stroke-miterlimit="10"/>
<path d="M490.923 132.26C503.327 132.26 510.769 97.3446 510.769 84.8749V23.5767C510.769 11.107 500.715 1 488.312 1C475.909 1 465.855 11.107 465.855 23.5767V84.8749C465.855 97.3446 478.52 132.26 490.923 132.26Z" stroke="#D7D7D7" stroke-width="1.64058" stroke-miterlimit="10"/>
<path d="M570.439 216.39C570.439 228.86 605.169 236.342 617.572 236.342H678.544C690.948 236.342 701.001 226.235 701.001 213.765C701.001 201.296 690.948 191.188 678.544 191.188H617.572C605.169 191.057 570.439 203.921 570.439 216.39Z" stroke="#D7D7D7" stroke-width="1.64058" stroke-miterlimit="10"/>
<path d="M406.452 211.01C406.452 198.54 371.723 191.059 359.32 191.059H298.347C285.944 191.059 275.891 201.166 275.891 213.635C275.891 226.105 285.944 236.212 298.347 236.212H359.32C371.723 236.212 406.452 223.48 406.452 211.01Z" stroke="#D7D7D7" stroke-width="1.64058" stroke-miterlimit="10"/>
<path d="M517.046 354.486L443.093 428.836C428.084 443.924 403.506 443.924 388.497 428.836L314.543 354.486C299.535 339.398 299.535 314.688 314.543 299.599L388.497 225.25C403.506 210.161 428.084 210.161 443.093 225.25L517.046 299.599C532.272 314.688 532.272 339.398 517.046 354.486Z" fill="#EB644C"/>
<path d="M119.773 575.558C122.166 568.561 143.265 564.625 148.267 549.099C153.27 533.791 163.058 523.514 167.843 517.172C172.629 510.831 209.606 494.867 243.32 483.715C276.817 472.563 355.338 436.7 388.183 418.113C421.027 399.525 441.908 386.624 441.908 386.624V370.879C441.908 370.879 447.128 370.879 447.781 370.879H449.086C449.086 368.474 453.871 368.474 454.959 368.255C455.829 368.255 460.614 366.287 460.614 366.287C460.396 364.975 460.396 363.663 461.267 363.007C463.442 361.257 472.795 356.009 473.882 355.572C475.187 355.353 474.535 356.447 474.535 356.447L474.752 356.009C475.84 356.665 479.972 358.852 482.583 359.945L482.8 358.852C482.8 358.852 483.67 358.633 485.628 358.415C487.585 358.196 489.978 356.447 491.936 357.103C494.111 357.759 497.156 359.945 497.156 359.945V361.039C499.766 361.039 508.684 361.039 510.424 361.476C512.164 361.913 513.034 363.663 513.034 363.663C515.644 364.538 518.907 368.911 520.212 369.786C521.517 370.66 521.3 372.191 521.082 374.159L521.3 373.066L525.867 375.69C525.867 375.69 525.867 375.909 525.867 376.565C526.52 376.565 527.39 376.565 527.825 376.565C528.478 376.783 528.477 378.97 528.477 378.97V390.778C529.783 391.216 531.305 392.09 531.958 392.309C532.828 392.528 534.133 391.872 534.133 391.872L535.438 390.778H536.525H537.831L539.136 390.341L547.401 388.592L555.232 389.466L555.449 389.029L558.277 384C558.277 384 558.277 381.375 561.757 380.938C565.237 380.501 579.375 391.872 580.68 394.933C581.985 397.995 580.68 400.4 578.288 403.024C575.895 405.648 577.418 414.833 577.418 414.833C577.418 414.833 577.418 423.361 578.723 424.673C579.593 425.548 584.813 424.892 588.293 424.236L588.511 420.518L590.251 418.113L592.426 419.643L595.906 421.174L598.081 422.705L601.779 421.174H606.129C605.912 419.206 605.912 418.113 605.912 418.113L619.397 425.11V422.924H623.965L628.533 427.516L636.798 426.204C642.019 444.354 662.465 456.162 662.465 456.162L666.597 527.669L667.25 527.887C687.829 539.328 699.761 575.816 699.761 575.816" fill="#FFE7AD"/>
<path d="M619.585 425.336L617.628 466.665C616.323 467.102 615.235 467.977 614.147 469.07L617.41 424.242L619.585 425.336Z" fill="#FFEEC5"/>
<path d="M607.623 457.687C606.971 464.028 603.926 470.151 604.143 471.682C604.361 472.557 605.883 487.208 606.318 490.488C605.448 491.144 604.143 489.613 603.055 490.051C603.055 486.989 602.185 476.274 601.968 473.431C601.75 467.09 604.36 458.343 605.013 454.188C605.666 450.689 603.49 428.384 602.838 421.387H606.318C606.753 429.915 608.058 452.657 607.623 457.687Z" fill="#FFEEC5"/>
<path d="M588.268 424.445L585.44 485.237C584.57 485.455 583.483 483.925 582.178 484.362L585.875 424.883C586.746 424.664 587.615 424.445 588.268 424.445Z" fill="#FFEEC5"/>
<path d="M558.701 383.984V477.358C557.831 477.14 556.961 477.14 556.309 476.702L555.656 389.233L558.701 383.984Z" fill="#FFEEC5"/>
<path d="M552.6 405.207V440.632C551.73 441.07 550.86 442.382 549.99 443.694V410.237L552.6 405.207Z" fill="#FFEEC5"/>
<path d="M546.72 419.195L545.85 476.269C544.762 477.144 543.457 475.613 541.935 476.488L543.892 418.977L546.72 419.195Z" fill="#FFEEC5"/>
<path d="M515.847 464.906C516.717 470.591 512.366 492.459 511.714 499.893C505.841 497.269 509.321 485.242 510.844 472.122C512.584 457.252 509.104 462.5 509.321 445.225C509.539 427.95 515.412 396.242 516.282 390.556C516.934 386.839 511.279 366.502 508.451 361.473L510.409 361.691L511.714 362.347L513.019 363.878L515.847 365.627L521.284 370.876C521.284 370.876 515.629 429.699 514.759 434.51C514.106 439.758 514.977 458.345 515.847 464.906Z" fill="#FFEEC5"/>
<path d="M8.39538 487.655C7.52533 487.874 6.4378 487.874 5.56775 488.092C4.91522 482.407 4.04513 472.129 3.82762 469.505C3.3926 465.787 3.82761 453.979 3.6101 449.606C3.39259 445.232 2.74008 439.984 1.87003 437.797C1.2175 435.61 1 428.394 1 428.394C1.43502 428.175 2.08754 427.738 2.95759 427.52C2.95759 429.706 3.17509 433.642 3.82762 435.392C4.69767 437.578 6.43779 443.483 6.43779 448.075C6.43779 452.667 4.69767 466.881 6.00274 471.91C6.65527 474.534 7.52533 481.969 8.39538 487.655Z" fill="#FFEEC5"/>
<path d="M20.5704 487.428C19.7004 487.209 18.8303 487.209 17.9602 487.209C17.7427 485.023 17.3077 482.836 16.8727 481.087C15.7851 477.15 16.0027 460.094 16.0027 457.47C16.0027 454.846 15.5676 444.787 14.6976 439.976C13.8275 435.165 12.5225 426.199 12.5225 426.199C12.9575 426.199 13.8275 426.418 14.9151 426.855C15.5676 430.135 17.0902 438.445 17.7427 442.6C18.6128 447.629 17.9603 462.718 18.1778 467.31C18.6128 471.902 17.7427 474.745 19.2653 481.524C19.9179 483.055 20.3529 485.241 20.5704 487.428Z" fill="#FFEEC5"/>
<path d="M45.151 507.553C43.6284 507.335 42.3233 506.679 41.0182 506.023C39.9306 498.588 38.1905 484.593 37.3205 478.032C36.2329 468.848 36.668 437.359 36.668 437.359C37.3205 436.703 38.4081 436.266 39.2781 436.047C39.2781 441.076 39.0606 455.072 39.2781 459.008C39.4956 463.819 39.7131 474.096 40.5832 479.344C41.2357 483.937 44.0634 499.681 45.151 507.553Z" fill="#FFEEC5"/>
<path d="M62.9818 498.583C62.1117 498.583 61.2417 498.583 60.5892 498.802C60.5892 491.804 60.5892 476.279 59.9367 469.5C59.2841 461.409 58.8491 446.976 58.4141 445.883C59.2841 446.539 60.1541 447.195 60.8066 447.851C61.0241 451.787 61.6768 463.595 62.1118 468.625C62.5468 474.967 63.1993 486.775 63.1993 494.866C62.9818 496.397 62.9818 497.49 62.9818 498.583Z" fill="#FFEEC5"/>
<path d="M71.2405 502.747C70.3704 502.091 69.7179 501.654 69.0654 500.998C68.8479 499.467 68.6303 497.281 68.1953 495.531C67.3252 492.032 68.1953 485.691 68.1953 477.819C68.1953 472.352 68.1953 465.573 67.9778 461.855C68.8479 461.199 69.7178 461.199 70.5879 461.199C70.8054 466.01 71.6755 479.349 71.2405 482.192C70.588 485.691 69.9353 491.814 70.5879 494C70.5879 495.312 71.023 499.467 71.2405 502.747Z" fill="#FFEEC5"/>
<path d="M93.8683 499.445C93.2157 505.787 90.6056 527.873 89.083 535.964C88.213 535.745 87.5605 535.308 86.6904 534.87L91.0407 498.789C91.9107 498.789 92.7807 499.226 93.8683 499.445Z" fill="#FFEEC5"/>
<path d="M121.279 523.075C120.409 523.512 119.756 524.168 119.104 524.824L118.451 506.674V503.613L121.061 502.301L121.279 523.075Z" fill="#FFEEC5"/>
<path d="M130.192 518.471C129.322 518.908 128.669 519.346 127.799 519.783C127.799 517.378 127.799 513.442 127.799 511.692C127.582 509.724 126.494 504.038 125.624 500.102C125.189 498.353 124.971 496.822 124.971 496.385C124.754 494.417 123.449 492.886 124.754 492.449C126.059 492.011 124.971 491.574 126.494 491.137H126.712C127.582 494.854 129.974 504.694 130.192 508.849C130.192 511.692 130.192 515.628 130.192 518.471Z" fill="#FFEEC5"/>
<path d="M138.897 514.979C138.027 515.197 136.94 515.416 135.852 515.853C135.417 511.699 133.895 500.109 133.895 498.797C133.895 497.047 134.764 486.988 134.764 486.988C135.852 487.207 136.287 487.644 137.375 487.207C137.157 490.268 136.722 496.173 136.722 498.797C136.94 500.983 138.027 509.074 138.897 514.979Z" fill="#FFEEC5"/>
<path d="M153.254 517.172C151.731 517.172 150.209 517.172 148.469 516.953C148.034 513.017 146.946 502.302 146.946 497.273C146.946 493.555 146.946 486.12 146.729 480.654C146.729 476.936 146.729 474.093 146.946 473.875C147.381 473 149.339 473 149.339 473L150.644 472.781C150.426 475.624 150.209 483.496 150.644 491.15C151.079 498.804 152.601 511.487 153.254 517.172Z" fill="#FFEEC5"/>
<path d="M173.899 509.743C173.464 509.962 172.812 510.181 172.159 510.399C172.159 509.743 171.942 508.869 171.724 508.431C171.289 507.775 171.724 506.463 171.289 501.215C171.072 499.028 169.984 494.874 168.896 490.719C169.549 490.719 170.419 490.937 171.289 491.156C171.724 493.562 172.812 497.935 173.029 499.903C173.029 501.434 173.464 505.807 173.899 509.743Z" fill="#FFEEC5"/>
<path d="M179.571 509.735C178.701 510.173 178.048 510.61 177.178 511.047C177.178 506.892 176.961 501.644 176.743 499.239C176.526 496.177 176.308 493.553 176.526 492.023C176.526 491.367 176.743 490.929 176.743 490.711C177.396 490.273 178.266 489.617 178.266 489.617L179.571 509.735Z" fill="#FFEEC5"/>
<path d="M193.053 503.162C191.965 503.599 190.877 504.255 189.572 504.693C188.92 497.258 188.05 486.98 188.05 486.98V485.887L190.007 485.668L193.053 503.162Z" fill="#FFEEC5"/>
<path d="M203.051 498.801C202.181 499.239 201.31 499.457 200.44 499.895V479.339C201.528 477.371 201.311 477.808 202.398 477.152L203.051 498.801Z" fill="#FFEEC5"/>
<path d="M214.808 494.217C214.156 494.436 213.286 494.873 212.633 495.092C212.416 488.969 212.416 481.534 212.198 477.816C213.068 478.254 213.721 478.691 214.373 479.128L214.808 494.217Z" fill="#FFEEC5"/>
<path d="M223.509 490.917C222.639 491.354 221.769 491.573 220.899 492.01L219.376 476.922C219.376 476.922 220.029 476.922 221.986 476.922L223.509 490.917Z" fill="#FFEEC5"/>
<path d="M239.601 485.249C238.948 485.467 238.513 485.686 237.861 485.905C237.426 480.219 236.773 473.659 236.556 473.659V469.941H238.948L239.601 485.249Z" fill="#FFEEC5"/>
<path d="M246.997 482.609C246.127 483.046 245.039 483.265 244.169 483.483L243.299 469.488L246.562 470.144L246.997 482.609Z" fill="#FFEEC5"/>
<path d="M257.215 478.888C256.345 479.107 255.692 479.544 254.822 479.763L253.952 472.547C254.822 472.547 255.475 472.547 255.91 472.547L257.215 478.888Z" fill="#FFEEC5"/>
<path d="M82.3517 518.696C81.9167 521.101 80.8292 525.038 79.9591 528.099C79.5241 526.568 78.8715 524.6 78.4365 522.195C78.8715 518.04 79.7416 510.824 79.9591 503.608C80.1766 497.922 80.1766 491.799 80.1766 487.207C81.0466 487.863 82.1342 488.738 83.4393 489.612C83.4393 496.61 83.2217 514.76 82.3517 518.696Z" fill="#FFEEC5"/>
<path d="M121.928 535.098C115.838 539.471 108.66 547.125 105.18 554.778C101.047 563.525 93.8694 582.113 78.6436 582.769C83.2113 577.083 90.6067 565.493 94.9569 555.653C97.5671 549.968 102.135 545.375 107.138 541.877C112.14 538.378 117.578 536.191 121.928 535.098Z" fill="#FFEEC5"/>
<path d="M319.875 452.227C257.232 478.905 187.628 506.02 179.58 509.738C170.01 514.111 126.072 574.684 119.765 575.778C124.767 569.436 143.691 563.532 148.259 549.318C151.739 538.384 157.612 530.293 162.397 524.17C164.354 521.546 166.312 519.359 167.835 517.61C168.705 516.298 171.097 514.767 174.36 512.799C175.23 512.362 176.318 511.706 177.405 511.05C178.058 510.613 178.928 510.175 179.798 509.738C182.843 508.207 186.106 506.458 190.021 504.708C191.108 504.271 192.196 503.615 193.501 503.178C195.894 502.084 198.286 500.991 200.896 499.898C201.766 499.46 202.637 499.242 203.507 498.804C206.552 497.492 209.814 496.18 213.077 494.868C213.73 494.649 214.6 494.212 215.252 493.993C217.21 493.119 219.167 492.463 221.343 491.588C222.213 491.151 223.083 490.932 223.953 490.495C228.738 488.745 233.523 486.996 238.308 485.465C238.961 485.246 239.396 485.028 240.048 484.809C241.136 484.372 242.441 483.934 243.529 483.716C243.964 483.497 244.399 483.497 244.834 483.278C245.704 483.06 246.574 482.622 247.661 482.404C250.054 481.529 252.664 480.654 255.274 479.561C256.144 479.342 256.797 478.905 257.667 478.686C261.582 477.155 265.497 475.625 269.848 473.875C284.638 467.971 302.257 460.099 319.875 452.227Z" fill="#FFEEC5"/>
<path d="M528.902 425.543C528.249 441.288 527.162 471.683 528.032 480.43C528.902 489.615 528.684 507.765 528.467 515.856C527.379 514.981 526.292 514.106 525.204 513.013C517.809 506.015 525.857 415.921 526.944 408.487C527.597 403.02 526.727 396.241 526.292 391.867C527.814 394.054 528.902 396.241 529.12 398.209C529.555 402.145 529.554 415.484 529.554 415.484C529.554 415.484 529.119 419.639 528.902 425.543Z" fill="#FFEEC5"/>
<path d="M112.578 532.477V512.577C112.578 512.577 112.361 512.359 111.926 511.921L114.101 510.172L114.536 531.383C113.883 531.821 113.231 532.039 112.578 532.477Z" fill="#FFEEC5"/>
<path d="M699.761 574.317C699.761 574.317 685.84 537.329 666.947 527.832" stroke="#737C89" stroke-width="0.321116" stroke-miterlimit="10"/>
<path d="M617.644 468.398L619.601 425.32V423.133H624.169L628.737 427.725L637.002 426.413C642.222 444.563 662.668 456.371 662.668 456.371L666.801 527.878" stroke="#737C89" stroke-width="0.321116" stroke-miterlimit="10"/>
<path d="M606.116 490.491C606.116 490.491 604.158 472.997 603.941 471.685C603.723 470.373 606.769 464.031 607.421 457.689C608.074 452.66 606.551 429.699 606.116 421.389C605.898 419.421 605.898 418.328 605.898 418.328L619.384 425.326" stroke="#737C89" stroke-width="0.321116" stroke-miterlimit="10"/>
<path d="M585.438 485.024L588.266 424.451L588.484 420.733L590.224 418.328L592.399 419.859L595.879 421.389L598.272 422.92L601.752 421.389H606.102" stroke="#737C89" stroke-width="0.321116" stroke-miterlimit="10"/>
<path d="M558.7 477.573V383.98C558.7 383.98 558.7 381.356 562.18 380.919C565.661 380.481 579.799 391.852 581.104 394.914C582.409 397.975 581.104 400.381 578.711 403.005C576.319 405.629 577.841 414.813 577.841 414.813C577.841 414.813 577.841 423.341 579.146 424.653C580.016 425.528 585.237 424.872 588.717 424.216" stroke="#737C89" stroke-width="0.321116" stroke-miterlimit="10"/>
<path d="M558.707 383.992L552.617 395.145V443.034" stroke="#737C89" stroke-width="0.321116" stroke-miterlimit="10"/>
<path d="M545.865 475.628L546.735 419.21V415.711L552.608 405.215" stroke="#737C89" stroke-width="0.321116" stroke-miterlimit="10"/>
<path d="M528.894 425.544L533.461 420.296C534.549 418.984 536.289 418.328 538.029 418.328L546.73 418.984" stroke="#737C89" stroke-width="0.321116" stroke-miterlimit="10"/>
<path d="M441.684 386.84C441.684 386.84 420.803 399.523 387.959 418.329C355.115 437.135 276.593 472.998 243.096 483.931C209.6 495.084 172.623 511.047 167.62 517.388C162.835 523.73 153.047 533.789 148.044 549.315C143.041 564.622 121.942 568.777 119.55 575.775" stroke="#737C89" stroke-width="0.321116" stroke-miterlimit="10"/>
<path d="M511.72 501.854C511.285 497.481 516.723 471.24 515.853 464.898C514.983 458.557 514.113 439.751 514.765 434.721C515.418 429.692 521.073 385.957 521.073 385.957" stroke="#737C89" stroke-width="0.321116" stroke-miterlimit="10"/>
<path d="M528.459 478.025C542.162 476.276 550.21 474.308 569.569 480.431C588.927 486.553 633.082 498.799 644.61 497.706C656.138 496.612 663.969 489.396 663.969 489.396" stroke="#737C89" stroke-width="0.321116" stroke-miterlimit="10"/>
<path d="M76.04 585.397C79.7377 581.898 89.5258 567.247 94.9636 555.657C97.5737 549.971 102.142 545.379 107.144 541.881C112.365 538.163 118.02 535.976 122.37 535.102C129.33 533.79 148.906 529.197 162.392 523.949" stroke="#737C89" stroke-width="0.321116" stroke-miterlimit="10"/>
<path d="M1.00195 428.382C2.30702 427.726 6.65725 425.758 8.61485 426.196C10.5725 426.633 12.7476 426.196 12.7476 426.196C12.7476 426.196 14.2701 435.161 14.9227 439.972C15.7927 444.783 16.2278 454.842 16.2278 457.466C16.2278 460.09 16.0102 477.365 17.0978 481.083C18.1853 485.019 18.6204 492.017 18.6204 492.017" stroke="#737C89" stroke-width="0.321116" stroke-miterlimit="10"/>
<path d="M12.7422 426.207C14.2648 426.207 19.7026 428.394 22.7477 430.143C25.7929 431.893 26.2279 432.33 26.4454 433.205C26.6629 434.079 27.0979 434.735 27.5329 435.173C27.968 435.61 28.8381 436.047 28.8381 436.047C28.8381 436.047 31.0132 436.922 32.7533 437.36C34.4934 437.797 35.1458 437.797 35.1458 437.797L36.451 437.36C36.451 437.36 36.0159 468.63 37.1035 478.033C38.1911 487.217 41.4537 510.834 41.4537 510.834" stroke="#737C89" stroke-width="0.321116" stroke-miterlimit="10"/>
<path d="M36.6748 437.344C38.4149 435.595 42.9826 435.595 43.8527 436.032C44.7227 436.251 52.9882 441.061 52.9882 441.061C52.9882 441.061 54.7282 441.936 55.3807 442.374C56.0333 442.811 56.9033 443.904 56.9033 443.904C56.9033 443.904 57.9909 444.779 58.426 445.872C58.861 447.184 59.296 461.617 59.9486 469.489C60.6011 477.58 60.6011 498.573 60.6011 501.634" stroke="#737C89" stroke-width="0.321116" stroke-miterlimit="10"/>
<path d="M58.416 446.09C61.0262 447.839 62.7662 450.901 63.8538 452.213C64.9414 453.525 66.0289 454.837 66.464 455.055C66.6815 455.274 66.4639 458.554 67.3339 459.21C68.204 459.866 68.204 470.363 68.204 478.235C68.204 485.888 67.334 492.23 68.204 495.948C69.0741 499.446 69.0741 504.039 69.0741 504.039" stroke="#737C89" stroke-width="0.321116" stroke-miterlimit="10"/>
<path d="M67.7754 462.052C69.298 460.74 71.6906 461.615 72.1256 462.052C72.5606 462.49 73.6482 463.364 73.6482 463.364C73.6482 463.364 73.2132 462.49 75.3883 467.738C77.5634 472.986 75.8234 468.613 77.3459 474.298C78.8685 479.984 78.8685 479.984 79.5211 480.64C80.1736 481.296 80.1736 493.104 79.9561 503.6C79.7386 514.097 77.9985 525.249 77.9985 525.249" stroke="#737C89" stroke-width="0.321116" stroke-miterlimit="10"/>
<path d="M86.4746 537.061L91.0423 498.793L91.2597 496.606C91.2597 496.606 91.2598 494.638 88.6497 493.545C86.9096 492.67 82.7769 489.609 79.9492 487.641" stroke="#737C89" stroke-width="0.321116" stroke-miterlimit="10"/>
<path d="M112.589 533.14V512.585C112.589 512.585 112.372 512.366 111.937 511.929C111.502 511.492 110.849 510.836 110.414 510.617C109.762 510.18 108.892 510.179 107.586 508.867C106.281 507.555 106.064 507.337 106.064 506.899C106.064 506.462 106.064 504.931 104.541 503.401C103.236 502.089 95.1884 499.464 91.0557 498.371" stroke="#737C89" stroke-width="0.321116" stroke-miterlimit="10"/>
<path d="M118.245 506.668L111.938 511.916" stroke="#737C89" stroke-width="0.321116" stroke-miterlimit="10"/>
<path d="M125.633 500.105L118.237 503.823V506.666L118.89 526.128" stroke="#737C89" stroke-width="0.321116" stroke-miterlimit="10"/>
<path d="M127.801 522.191C127.801 522.191 128.019 514.537 127.801 511.695C127.584 508.633 125.191 498.356 124.973 496.387C124.756 494.419 123.451 492.889 124.756 492.67C126.061 492.233 124.973 491.795 126.496 491.358C128.019 490.921 128.671 490.702 129.541 490.264C130.411 489.827 132.151 488.734 132.151 488.734C132.151 488.734 134.544 487.422 135.196 486.984C135.196 486.984 134.326 497.043 134.326 498.793C134.326 500.542 136.502 517.38 136.502 517.38" stroke="#737C89" stroke-width="0.321116" stroke-miterlimit="10"/>
<path d="M135 486.994C136.523 487.431 136.74 488.087 139.133 486.338C141.525 484.589 142.178 484.151 143.7 483.277C145.223 482.402 145.876 481.527 146.311 481.308C146.528 481.09 146.746 481.09 146.963 480.871" stroke="#737C89" stroke-width="0.321116" stroke-miterlimit="10"/>
<path d="M148.697 518.484C148.697 518.484 146.957 503.395 146.957 497.272C147.174 491.15 146.522 474.53 146.957 473.874C147.392 473.218 149.349 473 149.349 473L152.83 472.562L158.485 471.906L162.183 473L163.923 475.842L165.445 478.904C165.445 478.904 170.666 495.96 171.101 501.427C171.536 506.894 171.101 507.987 171.536 508.644C171.971 509.3 171.971 511.705 171.971 511.705" stroke="#737C89" stroke-width="0.321116" stroke-miterlimit="10"/>
<path d="M168.917 490.918C170.44 491.137 172.397 491.355 173.92 491.574C175.007 491.793 175.877 491.793 176.53 491.793" stroke="#737C89" stroke-width="0.321116" stroke-miterlimit="10"/>
<path d="M189.797 504.708C189.144 497.273 188.274 486.996 188.274 486.996V485.902L184.359 487.433L178.704 489.62C178.704 489.62 177.616 490.276 176.964 490.713C176.746 490.932 176.746 491.369 176.746 492.025C176.746 493.556 176.964 496.18 176.964 499.242C177.181 501.647 177.181 506.676 177.399 511.05" stroke="#737C89" stroke-width="0.321116" stroke-miterlimit="10"/>
<path d="M200.459 499.887V479.332C200.459 479.332 198.719 481.081 198.284 481.519C197.849 481.956 196.108 483.05 196.108 483.05L195.021 483.706C195.021 483.706 193.281 483.706 191.976 483.706L190.888 485.455L188.061 485.892" stroke="#737C89" stroke-width="0.321116" stroke-miterlimit="10"/>
<path d="M212.641 495.083C212.423 488.96 212.423 481.525 212.206 477.807C212.206 476.277 212.206 475.402 212.206 475.183C212.206 474.746 211.553 473.871 211.336 473.871C210.901 473.871 210.031 473.871 210.031 473.871C210.031 473.871 207.856 474.527 206.768 474.964C205.68 475.402 205.028 475.839 203.288 476.933C201.33 478.026 201.983 477.151 200.678 479.338" stroke="#737C89" stroke-width="0.321116" stroke-miterlimit="10"/>
<path d="M212.209 477.804C214.167 478.898 215.254 479.772 215.907 479.554C216.559 479.335 217.429 478.898 218.082 478.242C218.734 477.586 219.387 476.711 219.387 476.711L220.909 491.799" stroke="#737C89" stroke-width="0.321116" stroke-miterlimit="10"/>
<path d="M237.867 485.671C237.432 479.986 236.78 473.426 236.562 473.426C236.345 473.426 235.04 473.863 233.952 473.863C232.865 474.082 231.125 475.175 231.125 475.175L226.774 476.487C226.774 476.487 225.904 476.487 223.294 476.487C220.466 476.487 219.379 476.487 219.379 476.487" stroke="#737C89" stroke-width="0.321116" stroke-miterlimit="10"/>
<path d="M244.398 483.491L243.528 469.496H236.785V473.432" stroke="#737C89" stroke-width="0.321116" stroke-miterlimit="10"/>
<path d="M254.839 479.774L253.969 472.776L253.751 471.683L243.528 469.496" stroke="#737C89" stroke-width="0.321116" stroke-miterlimit="10"/>
<path d="M269.401 474.08C268.966 471.456 268.749 469.269 268.966 469.051" stroke="#737C89" stroke-width="0.321116" stroke-miterlimit="10"/>
<path d="M268.973 469.051C268.538 469.269 268.32 469.488 268.32 469.707C267.885 470.144 265.275 470.8 263.753 471.019C262.23 471.237 261.577 472.331 259.837 472.768C258.097 473.205 256.792 472.768 253.747 472.768" stroke="#737C89" stroke-width="0.321116" stroke-miterlimit="10"/>
<path d="M299.642 642.255C299.642 642.255 309.213 606.173 337.707 582.994C366.201 559.814 499.1 564.188 440.59 538.384C382.297 512.581 326.831 538.603 319.218 517.392C311.605 496.18 460.601 465.128 478.437 460.536C496.272 456.163 501.275 441.293 480.612 432.983C459.948 424.674 416.011 444.792 406.223 429.922C396.435 415.052 466.473 406.742 487.137 398.214C507.801 389.686 500.623 359.071 500.623 350.762L489.747 359.509C489.747 367.818 496.925 398.433 476.261 406.961C455.598 415.489 385.559 424.018 395.347 438.669C405.135 453.539 449.072 433.421 469.736 441.73C490.4 450.04 485.397 464.91 467.561 469.283C449.725 473.657 300.73 504.708 308.343 526.139C315.956 547.35 371.421 521.328 429.714 547.131C488.007 572.935 355.325 568.561 326.831 591.741C298.337 614.92 288.767 651.002 288.767 651.002" fill="#FFF8E8"/>
<path d="M489.982 357.536V326.266" stroke="#263244" stroke-width="2.36746" stroke-miterlimit="10" stroke-linecap="round" stroke-linejoin="round"/>
<path d="M489.982 326.266L509.993 335.45L489.982 342.666V326.266Z" fill="#263244"/>
<path d="M443.648 371.09V386.397C442.995 386.397 442.343 386.397 441.908 386.616V371.09C441.69 371.09 442.56 371.09 443.648 371.09Z" fill="#FFEEC5"/>
<path d="M452.343 368.691C451.691 370.222 451.256 371.753 451.038 372.628C451.038 373.721 449.951 383.343 449.516 386.185C448.863 386.185 447.993 386.185 447.123 386.185C447.341 382.031 449.516 370.878 448.863 370.878C448.863 369.566 450.603 369.129 452.343 368.691Z" fill="#FFEEC5"/>
<path d="M464.311 379.396C464.094 380.271 464.094 381.583 463.877 383.114C463.006 383.114 462.136 383.332 461.266 383.551C461.484 380.49 462.354 375.897 461.919 372.617C461.701 370.649 460.831 368.462 460.396 366.713C460.179 365.401 460.179 364.089 461.049 363.433C461.484 362.996 462.354 362.558 463.224 361.902C462.571 363.433 462.136 364.964 463.006 366.494C464.311 368.681 464.746 376.991 464.311 379.396Z" fill="#FFEEC5"/>
<path d="M478.229 383.112C477.576 383.112 476.924 383.112 476.271 383.112C476.271 379.176 476.489 365.181 475.619 362.994C474.531 360.37 474.531 356.871 474.531 356.871C474.531 356.871 474.749 356.652 474.749 356.434C475.184 356.652 476.054 357.308 477.359 357.746C477.576 359.714 477.794 362.119 478.446 363.868C478.664 365.618 478.446 376.989 478.229 383.112Z" fill="#FFEEC5"/>
<path d="M485.623 387.716C484.536 386.623 483.448 385.53 482.36 384.655C482.143 381.812 481.49 374.815 481.708 371.097C481.925 367.38 482.36 362.132 482.578 359.945C482.578 359.289 482.795 358.851 482.795 358.851C482.795 358.851 483.448 358.633 485.188 358.414C484.753 359.945 484.101 362.132 484.101 363.662C484.101 365.849 483.448 371.753 484.101 376.564C484.318 379.844 485.188 384.655 485.623 387.716Z" fill="#FFEEC5"/>
<path d="M501.718 392.087C500.63 391.868 499.543 391.868 498.455 391.868C498.237 389.026 496.932 377.217 496.062 374.812C495.192 372.188 495.41 361.254 495.41 361.254H496.932C497.367 361.254 497.803 361.254 498.238 361.254C498.02 363.878 498.02 369.345 498.238 372.406C498.673 376.561 500.63 387.058 501.283 391.431C501.718 391.65 501.718 391.868 501.718 392.087Z" fill="#FFEEC5"/>
<path d="M516.073 376.777C516.073 378.745 517.378 391.209 517.16 395.145C516.725 395.145 514.767 387.273 514.332 387.492V377.87C514.332 373.934 513.027 364.094 513.027 364.094C513.68 364.312 514.55 364.75 515.202 365.406C515.637 368.03 516.073 373.934 516.073 376.777Z" fill="#FFEEC5"/>
<path d="M522.162 378.096C522.162 379.189 523.032 389.686 522.162 396.465C521.727 395.59 521.291 394.497 520.856 393.403V389.686C520.856 386.187 520.857 376.347 521.074 374.379C521.074 373.941 521.291 373.723 521.291 373.285L522.814 374.16C522.597 375.472 522.162 377.221 522.162 378.096Z" fill="#FFEEC5"/>
<path d="M441.684 386.834V371.09C441.684 371.09 447.991 371.09 448.861 371.09C449.731 371.09 447.121 383.117 447.121 386.834" stroke="#737C89" stroke-width="0.321116" stroke-miterlimit="10"/>
<path d="M448.852 371.088C448.852 368.683 453.637 368.683 454.724 368.464C455.594 368.464 459.075 367.152 460.38 366.496" stroke="#737C89" stroke-width="0.321116" stroke-miterlimit="10"/>
<path d="M461.253 384.207C461.47 381.364 462.558 375.897 462.123 372.398C461.688 368.899 459.295 364.963 461.253 363.214C463.211 361.464 472.781 356.216 473.869 355.779C475.174 355.56 474.521 356.654 474.521 356.654C474.521 356.654 474.739 360.371 475.609 362.777C476.696 365.401 476.261 383.988 476.261 383.988" stroke="#737C89" stroke-width="0.321116" stroke-miterlimit="10"/>
<path d="M474.531 356.23C475.619 356.886 479.752 359.073 482.362 360.167" stroke="#737C89" stroke-width="0.321116" stroke-miterlimit="10"/>
<path d="M497.157 360.158C497.157 360.158 493.894 358.189 491.937 357.314C489.762 356.658 487.587 358.408 485.629 358.627L489.762 359.721L492.154 359.939L497.157 360.158Z" fill="white"/>
<path d="M482.364 385.961C482.364 385.961 481.276 375.902 481.494 371.31C481.711 366.717 482.581 359.064 482.581 359.064C482.581 359.064 483.451 358.845 485.409 358.626C487.366 358.408 489.759 356.658 491.717 357.314C493.892 357.97 496.937 360.157 496.937 360.157V361.25H495.632C495.632 361.25 495.414 372.184 496.284 374.808C497.154 377.432 498.677 392.521 498.677 392.521" stroke="#737C89" stroke-width="0.321116" stroke-miterlimit="10"/>
<path d="M497.151 361.254C499.762 361.254 508.679 361.254 510.42 361.691C512.16 362.129 513.03 363.878 513.03 363.878C513.03 363.878 514.335 373.718 514.335 377.654C514.335 381.591 514.335 388.588 514.335 388.588" stroke="#737C89" stroke-width="0.321116" stroke-miterlimit="10"/>
<path d="M513.027 363.883C515.637 364.758 518.9 369.131 520.205 370.006C521.51 370.88 521.293 372.411 521.075 374.379C520.858 376.129 520.858 386.188 520.858 389.686C520.858 393.185 520.858 394.716 520.858 394.716" stroke="#737C89" stroke-width="0.321116" stroke-miterlimit="10"/>
<path d="M528.464 379.402V393.615C526.941 393.615 526.071 394.053 525.201 394.927C525.419 393.397 525.636 391.429 525.636 389.679V376.996C526.289 376.996 527.159 376.996 527.594 376.996C528.464 377.215 528.464 379.402 528.464 379.402Z" fill="#FFEEC5"/>
<path d="M524.989 396.683C524.989 396.683 525.642 392.747 525.642 389.467C525.642 386.843 525.642 379.408 525.642 376.784C525.642 376.347 525.642 375.909 525.642 375.909L521.074 373.285" stroke="#737C89" stroke-width="0.321116" stroke-miterlimit="10"/>
<path d="M525.861 376.777C526.514 376.777 527.384 376.777 527.819 376.777C528.471 376.996 528.471 379.183 528.471 379.183V390.991V394.927L528.906 398.426C529.341 402.362 529.341 415.701 529.341 415.701C529.341 415.701 526.949 468.402 528.036 480.429C529.342 492.456 528.471 520.009 528.471 520.009" stroke="#737C89" stroke-width="0.321116" stroke-miterlimit="10"/>
<path d="M528.46 390.995C529.765 391.433 531.288 392.307 531.94 392.526C532.81 392.745 534.115 392.089 534.115 392.089L535.42 390.995H536.508H537.813L539.118 390.558L547.383 388.809L555.214 389.683" stroke="#737C89" stroke-width="0.321116" stroke-miterlimit="10"/>
<path d="M196.95 537.92C196.95 538.358 194.557 538.576 193.035 537.92C191.947 539.014 191.295 541.419 191.512 543.168C191.73 545.137 191.295 546.011 189.99 545.793C190.207 541.419 189.99 536.827 189.555 533.328C191.512 535.078 193.687 536.39 195.645 536.608C196.733 536.827 197.168 537.483 196.95 537.92Z" fill="white" stroke="#263244" stroke-width="0.21396" stroke-miterlimit="10" stroke-linecap="round" stroke-linejoin="round"/>
<path d="M219.585 543.628C218.715 543.847 218.498 542.754 218.28 541.004C218.28 539.036 217.193 536.631 215.887 535.975C214.365 536.631 212.19 536.85 212.19 536.412C211.972 535.975 212.19 535.319 213.06 534.881C213.712 534.444 215.017 533.788 216.54 532.476C217.193 532.039 217.845 531.383 218.498 530.727C218.933 534.663 219.15 539.255 219.585 543.628Z" fill="white" stroke="#263244" stroke-width="0.21396" stroke-miterlimit="10" stroke-linecap="round" stroke-linejoin="round"/>
<path d="M187.171 632.17C186.953 633.483 185.431 633.264 184.126 633.264C182.82 633.045 180.428 632.826 179.993 632.389C179.558 631.952 179.993 629.765 180.21 628.234C181.515 628.453 184.343 628.89 187.171 629.109C187.388 629.984 187.388 631.296 187.171 632.17Z" fill="#D76C54" stroke="#D76C54" stroke-width="0.21396" stroke-miterlimit="10"/>
<path d="M224.797 633.272C223.491 633.272 221.099 633.491 220.446 633.053C220.011 632.616 220.011 631.085 220.229 629.554C221.969 629.554 223.491 629.336 224.797 629.117C225.667 628.898 226.537 628.68 227.189 628.461C227.407 629.336 227.624 631.085 227.624 631.96C227.624 633.053 225.884 633.053 224.797 633.272Z" fill="#D76C54" stroke="#D76C54" stroke-width="0.21396" stroke-miterlimit="10"/>
<path d="M190.215 547.549C188.475 545.362 186.3 542.956 184.125 540.551L186.3 530.055C187.388 531.148 188.693 532.241 189.78 533.335C190.215 537.052 190.433 541.426 190.215 545.799C190.215 546.455 190.215 546.893 190.215 547.549Z" fill="#4E6080" stroke="#283242" stroke-width="0.21396" stroke-miterlimit="10" stroke-linecap="round" stroke-linejoin="round"/>
<path d="M223.93 539.691C222.408 541.659 221.103 543.408 219.58 544.939C219.58 544.502 219.58 544.064 219.58 543.627C219.363 539.253 218.927 534.661 218.71 530.725C219.798 529.413 220.885 528.101 221.755 526.352L223.93 539.691Z" fill="#4E6080" stroke="#283242" stroke-width="0.21396" stroke-miterlimit="10" stroke-linecap="round" stroke-linejoin="round"/>
<path d="M221.748 526.354C224.14 522.418 226.315 517.607 228.055 514.327C224.793 511.921 219.355 506.673 216.527 503.175C216.745 507.329 217.18 513.671 217.832 518.919C218.05 521.325 218.485 525.698 218.702 530.946C218.05 531.602 217.397 532.258 216.745 532.696C215.222 534.008 213.917 534.664 213.265 535.101C212.612 535.538 212.177 536.194 212.395 536.632C212.612 537.069 214.787 536.85 216.092 536.194C217.397 536.85 218.485 539.256 218.485 541.224C218.485 542.973 218.92 543.848 219.79 543.848C219.79 544.285 219.79 544.723 219.79 545.16C220.443 554.782 221.313 564.185 221.965 567.683C223.488 575.337 224.358 592.175 226.533 601.797C228.708 611.418 231.536 623.445 230.666 624.539C230.448 624.757 229.796 624.976 228.708 625.195C223.27 626.288 208.697 627.381 202.172 626.944C194.776 626.507 182.378 625.195 179.55 624.976C179.333 624.976 179.115 624.976 179.115 624.976C177.593 624.757 178.245 620.603 178.898 612.512C179.55 604.421 188.033 562.654 189.773 552.595C189.991 550.845 190.208 549.096 190.426 547.347C190.426 546.691 190.426 546.253 190.426 545.597C191.514 546.035 192.166 544.941 191.949 542.973C191.731 541.224 192.384 538.818 193.471 537.725C194.994 538.381 197.169 538.162 197.386 537.725C197.386 537.069 197.169 536.413 196.299 536.413C194.341 535.976 192.166 534.664 190.209 533.133C189.773 530.29 189.338 527.666 189.121 526.135C188.251 522.418 186.728 512.14 186.293 506.017C184.336 509.953 180.638 514.764 179.55 515.42C179.333 515.639 179.115 515.639 178.898 515.858C177.81 516.295 176.288 516.951 174.983 517.388C175.2 517.607 175.635 518.044 175.853 518.482C177.158 520.012 179.115 521.762 180.42 523.074C181.508 523.949 183.901 527.01 186.728 530.071L184.553 540.568C177.81 533.352 170.633 526.791 168.892 524.823C166.065 521.543 165.63 519.138 165.412 516.951C165.195 514.983 170.197 507.985 172.373 506.236C174.33 504.705 180.856 496.833 185.206 491.803C186.076 493.553 187.816 495.521 189.556 495.958C192.384 496.833 201.302 497.052 204.129 495.302C205.869 494.209 208.044 492.459 209.567 491.366C209.132 494.865 208.044 498.145 207.392 499.894C206.522 502.956 204.129 510.609 203.912 511.047C206.304 506.892 211.742 508.641 211.742 508.641C211.742 508.641 214.352 498.801 214.787 492.241C214.787 490.71 214.787 489.398 214.57 488.086C220.878 493.334 233.928 504.487 233.928 504.487C233.928 504.487 239.584 509.953 239.149 513.89C238.714 516.951 231.536 530.071 224.14 539.912L221.748 526.354Z" fill="#4E6080" stroke="#283242" stroke-width="0.21396" stroke-miterlimit="10" stroke-linecap="round" stroke-linejoin="round"/>
<path d="M186.742 503.59C186.524 504.465 186.089 505.34 185.654 506.215L186.742 503.59Z" fill="white"/>
<path d="M186.742 503.59C186.524 504.465 186.089 505.34 185.654 506.215" stroke="#263244" stroke-width="0.21396" stroke-miterlimit="10" stroke-linecap="round" stroke-linejoin="round"/>
<path d="M178.246 516.066C177.811 517.16 176.941 518.254 175.418 518.691C174.983 518.254 174.765 518.035 174.548 517.598C175.635 517.16 177.158 516.504 178.246 516.066Z" fill="#4E6080" stroke="#263244" stroke-width="0.21396" stroke-miterlimit="10" stroke-linecap="round" stroke-linejoin="round"/>
<path d="M216.531 502.941C215.661 501.848 215.009 501.191 214.791 500.535L216.531 502.941Z" fill="white"/>
<path d="M216.531 502.941C215.661 501.848 215.009 501.191 214.791 500.535" stroke="#263244" stroke-width="0.21396" stroke-miterlimit="10" stroke-linecap="round" stroke-linejoin="round"/>
<path d="M216.529 535.742C216.312 535.961 216.094 535.961 215.877 536.18L216.529 535.742Z" fill="white"/>
<path d="M216.529 535.742C216.312 535.961 216.094 535.961 215.877 536.18" stroke="#263244" stroke-width="0.21396" stroke-miterlimit="10" stroke-linecap="round" stroke-linejoin="round"/>
<path d="M228.939 512.773C228.722 513.211 228.287 513.867 228.069 514.305L228.939 512.773Z" fill="white"/>
<path d="M228.939 512.773C228.722 513.211 228.287 513.867 228.069 514.305" stroke="#263244" stroke-width="0.21396" stroke-miterlimit="10" stroke-linecap="round" stroke-linejoin="round"/>
<path d="M228.492 626.488C228.492 627.362 228.056 627.8 226.969 628.237C226.316 628.456 225.664 628.674 224.576 628.893C223.271 629.112 221.531 629.331 220.009 629.331C218.486 629.331 216.746 629.549 215.441 629.768C212.396 630.205 205.435 630.861 199.78 630.205C198.475 629.986 192.385 629.549 187.164 629.112C184.337 628.893 181.509 628.456 180.204 628.237C179.551 628.018 179.334 628.018 179.116 627.8C178.681 627.362 178.899 626.05 179.116 624.957C181.944 625.394 194.342 626.488 201.738 626.925C208.263 627.362 222.836 626.05 228.274 625.176C228.492 625.832 228.492 626.269 228.492 626.488Z" fill="#4E6080" stroke="#283242" stroke-width="0.21396" stroke-miterlimit="10" stroke-linecap="round" stroke-linejoin="round"/>
<path d="M174.34 517.59C174.123 517.371 173.905 516.934 173.688 516.715" stroke="#263244" stroke-width="0.21396" stroke-miterlimit="10" stroke-linecap="round" stroke-linejoin="round"/>
<path d="M193.041 537.926C192.824 537.926 192.606 537.707 192.389 537.707L193.041 537.926Z" fill="white"/>
<path d="M193.041 537.926C192.824 537.926 192.606 537.707 192.389 537.707" stroke="#263244" stroke-width="0.21396" stroke-miterlimit="10" stroke-linecap="round" stroke-linejoin="round"/>
<path d="M192.388 482.816C192.388 484.129 192.171 484.785 192.171 484.785L192.388 482.816Z" fill="white"/>
<path d="M192.388 482.816C192.388 484.129 192.171 484.785 192.171 484.785" stroke="#263244" stroke-width="0.21396" stroke-miterlimit="10" stroke-linecap="round" stroke-linejoin="round"/>
<path d="M210.656 481.516C210.221 482.828 209.786 483.921 208.916 485.015L208.698 485.233C207.176 487.201 205.218 488.732 202.39 489.825C195.212 492.887 189.122 490.044 188.252 486.764C188.034 486.108 188.034 485.671 188.252 485.233C188.687 483.703 190.645 482.609 192.385 482.609C192.385 480.86 192.167 478.236 191.297 474.737C189.775 468.395 193.69 459.867 198.475 459.43C206.958 459.43 210.003 467.958 210.873 474.518C211.526 477.142 211.308 479.548 210.656 481.516Z" fill="#4E6080" stroke="#283242" stroke-width="0.21396" stroke-miterlimit="10" stroke-linecap="round" stroke-linejoin="round"/>
<path d="M211.524 508.631C211.524 508.631 206.086 506.882 203.693 511.037C203.693 511.037 206.303 502.946 207.173 499.884C207.609 498.135 208.696 494.855 209.349 491.356C209.566 489.169 209.566 487.201 209.131 485.233V485.014C210.001 483.921 210.436 482.828 210.871 481.516C212.394 483.046 213.916 484.796 214.569 487.857C214.786 488.951 215.004 490.481 214.786 492.012C214.134 498.572 211.524 508.631 211.524 508.631Z" fill="#4E6080" stroke="#283242" stroke-width="0.21396" stroke-miterlimit="10" stroke-linecap="round" stroke-linejoin="round"/>
<path d="M209.142 491.568C207.62 492.88 205.227 494.63 203.705 495.504C200.877 497.254 191.741 497.035 189.131 496.16C187.391 495.723 185.651 493.755 184.781 492.006C184.346 491.131 184.129 490.256 184.346 489.6C184.781 488.288 186.304 486.32 188.261 485.445C188.044 485.883 188.044 486.32 188.261 486.976C189.131 490.256 195.222 493.099 202.399 490.037C205.227 488.944 207.185 487.195 208.707 485.445H208.925C209.577 487.195 209.577 489.381 209.142 491.568Z" fill="#4E6080" stroke="#283242" stroke-width="0.21396" stroke-miterlimit="10" stroke-linecap="round" stroke-linejoin="round"/>
<path d="M187.817 490.914C188.47 492.226 190.428 494.631 195.213 495.069" stroke="#263244" stroke-width="0.21396" stroke-miterlimit="10" stroke-linecap="round" stroke-linejoin="round"/>
<path d="M195.653 585.391C195.653 585.391 188.911 614.037 189.563 620.16" stroke="#263244" stroke-width="0.21396" stroke-miterlimit="10" stroke-linecap="round" stroke-linejoin="round"/>
<path d="M190.651 536.62C190.651 537.495 190.869 541.212 190.651 543.618C190.651 544.711 190.651 545.367 190.869 546.023C190.869 546.023 190.869 546.023 190.651 546.023C190.434 546.023 190.434 546.023 190.216 546.023C190.434 541.649 190.216 537.057 189.781 533.559C189.999 533.777 190.216 533.777 190.216 533.996C190.434 534.215 190.651 534.215 190.651 534.433C190.869 534.652 191.086 534.652 191.086 534.871C191.304 534.871 191.304 535.089 191.521 535.089C191.739 535.089 191.739 535.308 191.956 535.308C190.869 535.089 190.651 535.745 190.651 536.62Z" fill="#EFCFC7"/>
<path d="M219.573 543.613C219.356 543.613 219.355 543.613 219.355 543.613C219.355 543.613 219.356 543.613 219.138 543.613C219.138 542.519 218.921 540.333 218.921 539.021C218.921 536.834 218.268 534.428 218.05 533.772C217.833 533.335 217.615 533.116 217.398 532.898C217.18 532.898 217.18 532.679 216.963 532.679C216.963 532.679 216.963 532.679 217.18 532.679L217.398 532.46L217.615 532.242C217.833 532.242 217.833 532.023 218.05 532.023L218.268 531.804C218.485 531.586 218.92 531.148 219.138 530.93C219.138 531.367 219.138 531.586 219.138 532.023V532.242C219.138 532.679 219.138 533.116 219.138 533.554C219.356 535.522 219.356 537.709 219.573 539.895C219.573 540.333 219.573 540.77 219.573 541.207C219.356 541.863 219.573 542.738 219.573 543.613Z" fill="#EFCFC7"/>
<path d="M210.664 481.508C210.447 482.164 210.229 482.82 209.794 483.476C209.577 484.132 209.142 484.569 208.707 485.007L208.489 485.225C206.966 487.193 205.009 488.724 202.181 489.818C195.003 492.879 188.913 490.036 188.043 486.756C187.826 486.1 187.826 485.663 188.043 485.225C188.043 484.788 188.261 484.569 188.478 484.351C189.131 487.412 191.088 488.287 196.526 488.943C202.399 489.817 207.184 484.788 208.272 482.82C209.142 480.852 210.012 474.51 208.054 468.825C206.096 463.358 203.051 460.515 200.441 459.203C207.619 460.515 210.229 467.95 210.882 474.073C211.534 477.134 211.317 479.54 210.664 481.508Z" fill="#ABBAD0"/>
<path d="M180.645 632.608C180.428 632.608 180.21 632.389 179.993 632.389C179.558 631.952 179.993 629.765 180.21 628.234C180.428 628.234 180.863 628.453 181.08 628.453C180.863 629.328 180.21 631.296 180.645 632.608Z" fill="#ABBAD0"/>
<path d="M227.63 631.733C227.63 633.045 225.89 633.045 224.803 633.264C224.585 633.264 224.368 633.264 223.933 633.264C224.803 632.827 225.89 632.389 226.108 632.17C226.543 631.514 226.108 629.984 225.673 628.672H225.89C226.108 628.672 226.325 628.453 226.543 628.453C226.76 628.453 226.76 628.453 226.978 628.234C227.195 629.109 227.63 630.858 227.63 631.733Z" fill="#ABBAD0"/>
<path d="M190.221 546.025C190.221 546.244 190.221 546.462 190.221 546.681C190.221 546.9 190.221 547.337 190.221 547.556C188.481 545.369 186.305 542.963 184.13 540.558C177.388 533.342 170.21 526.782 168.47 524.814C165.642 521.534 165.207 519.128 164.989 516.941C164.989 516.723 164.989 516.723 164.989 516.504C165.207 518.035 166.077 520.003 166.947 521.315C168.252 523.283 178.693 533.123 180.65 534.873C181.303 535.529 182.825 537.059 184.565 539.027C186.523 541.652 188.916 544.494 190.221 546.025Z" fill="#ABBAD0"/>
<path d="M230.466 624.513C230.248 624.732 229.596 624.95 228.508 625.169H228.291C227.203 622.763 225.898 619.702 225.028 615.766C222.853 605.269 221.113 584.933 220.025 575.53C218.938 566.127 217.632 551.257 217.632 546.009C217.632 544.697 217.415 541.635 217.415 537.48C217.415 537.699 217.632 537.699 217.632 537.918C217.632 538.137 217.85 538.136 217.85 538.355C217.85 538.574 218.068 538.574 218.068 538.792C218.068 539.011 218.285 539.011 218.285 539.23V539.448V539.667C218.285 539.886 218.285 540.105 218.285 540.105C218.285 540.323 218.285 540.323 218.285 540.542C218.285 540.761 218.285 540.761 218.285 540.979C218.285 541.198 218.285 541.417 218.285 541.854V542.073V542.291C218.285 542.51 218.285 542.51 218.285 542.729C218.285 542.947 218.503 543.166 218.72 543.385C218.72 543.385 218.72 543.385 218.938 543.385C218.938 543.385 218.938 543.385 219.155 543.385H219.373C219.373 543.822 219.373 544.259 219.373 544.697C220.025 554.318 220.895 563.721 221.548 567.22C223.07 574.874 223.94 591.712 226.115 601.333C228.508 611.392 231.336 623.419 230.466 624.513Z" fill="#ABBAD0"/>
<path d="M178.254 516.059C177.819 517.152 176.949 518.246 175.427 518.683C174.992 518.246 174.774 518.027 174.557 517.59C175.644 517.152 177.167 516.496 178.254 516.059Z" fill="#ABBAD0"/>
<path d="M209.358 490.472C209.358 490.691 209.358 491.128 209.358 491.347C207.836 492.659 205.443 494.408 203.92 495.283C201.093 497.032 191.957 496.813 189.347 495.939C187.607 495.501 185.867 493.533 184.997 491.784C184.562 490.909 184.344 490.035 184.562 489.379C184.779 488.941 184.779 488.723 184.997 488.285C184.997 489.597 185.215 491.128 186.302 492.659C188.042 494.845 190.652 495.72 193.697 495.939C196.525 495.939 201.093 495.939 202.615 495.064C203.485 494.408 207.183 492.003 209.358 490.472Z" fill="#ABBAD0"/>
<path d="M194.784 494.85C194.349 495.288 193.044 495.288 191.521 494.85C189.564 494.413 188.694 493.101 188.259 492.226C187.824 491.57 187.824 491.351 188.041 491.133C188.694 492.445 190.651 494.413 194.784 494.85Z" fill="#ABBAD0"/>
<path d="M210.02 493.766C209.803 495.953 207.628 503.825 206.323 508.855H206.105C205.888 508.855 205.67 509.073 205.453 509.292C205.453 509.292 205.235 509.292 205.235 509.511L205.018 509.729L204.8 509.948C204.8 509.948 204.8 509.948 204.583 510.167C204.583 510.167 204.583 510.385 204.365 510.385C204.365 510.385 204.148 510.604 204.148 510.823C204.148 510.823 204.148 511.041 203.93 511.041C203.93 511.041 203.93 511.26 203.713 511.26C203.713 511.26 203.713 511.479 203.495 511.479C203.495 511.479 203.495 511.26 203.713 511.041V510.823C203.713 510.604 203.713 510.385 203.93 510.167V509.948C203.93 509.729 204.148 509.511 204.148 509.292C204.148 509.073 204.365 508.855 204.365 508.636C204.365 508.417 204.365 508.417 204.583 508.199V507.98C204.583 507.761 204.583 507.761 204.8 507.543C204.8 507.324 204.8 507.324 205.018 507.105C205.018 506.887 205.018 506.887 205.235 506.668C205.235 506.449 205.453 506.231 205.453 506.012C205.67 505.574 205.67 505.356 205.888 504.918C206.105 504.481 206.105 504.262 206.323 503.825C206.323 503.606 206.54 503.388 206.54 503.169C206.54 502.95 206.54 502.95 206.758 502.732C206.975 501.857 207.41 500.764 207.41 500.108C207.845 498.358 208.933 495.078 209.585 491.579C209.585 491.361 209.585 490.923 209.585 490.705C209.803 488.955 209.803 487.206 209.368 485.457V485.238C209.803 484.8 210.02 484.144 210.456 483.707C210.238 485.019 210.238 486.113 210.456 486.769C210.673 487.206 210.673 488.518 210.673 490.049C210.238 491.142 210.238 492.454 210.02 493.766Z" fill="#ABBAD0"/>
<path d="M218.715 530.712C218.497 530.931 218.063 531.368 217.845 531.587L217.627 531.806C217.41 531.806 217.41 532.024 217.192 532.024L216.975 532.243C216.322 519.778 215.452 503.597 215.235 502.941C214.8 502.285 214.8 501.629 214.8 500.754C215.235 501.41 215.67 502.066 216.54 502.941C216.757 507.095 217.192 513.437 217.845 518.685C218.063 521.091 218.28 525.464 218.715 530.712Z" fill="#ABBAD0"/>
<path d="M228.506 626.488C228.506 627.363 228.071 627.801 226.984 628.238C226.766 628.238 226.766 628.238 226.549 628.457C226.549 627.582 226.549 626.488 226.331 625.613C226.984 625.613 227.636 625.395 228.071 625.395C228.071 625.613 228.289 625.832 228.289 626.051C228.506 626.051 228.506 626.27 228.506 626.488Z" fill="#ABBAD0"/>
<path d="M228.721 513.007C228.721 513.225 228.503 513.225 228.503 513.444C228.285 513.663 228.068 514.1 228.068 514.319C224.805 511.913 219.368 506.665 216.54 503.166L214.8 500.979C214.8 500.979 214.8 500.98 214.8 500.761C215.235 500.542 215.67 500.542 216.105 500.979C216.975 501.635 219.803 505.353 223.065 509.289C225.023 511.476 227.198 512.569 228.721 513.007Z" fill="#ABBAD0"/>
<path d="M228.497 514.96C228.062 515.835 225.452 523.926 222.624 527.644C222.407 527.862 222.189 528.081 222.189 528.3C220.667 530.268 219.579 531.361 218.927 532.017V531.798C218.927 531.361 218.927 531.142 218.927 530.705C220.014 529.612 221.102 528.081 221.972 526.331C224.364 522.395 226.54 517.584 228.28 514.304L228.715 513.43C228.932 513.648 228.932 514.086 228.497 514.96Z" fill="#ABBAD0"/>
<path d="M186.746 504.027L185.877 506.214C183.919 510.15 180.221 514.961 179.134 515.617C178.916 515.836 178.699 515.836 178.481 516.054C177.394 516.492 175.871 517.148 174.566 517.585C174.348 517.366 174.131 517.148 174.131 516.929C174.348 516.71 174.783 516.71 175.218 516.492C180.004 514.742 179.351 513.868 181.091 511.9C182.831 510.15 185.224 505.558 185.659 504.902C185.659 504.465 185.876 504.246 186.746 504.027Z" fill="#ABBAD0"/>
<path d="M189.563 619.266C189.128 618.828 188.693 618.391 188.693 617.516C188.475 615.767 189.346 607.895 190.216 604.177C191.303 600.241 193.696 589.745 194.131 587.995C194.348 586.683 195.001 586.246 195.436 585.59C194.566 589.526 189.346 612.705 189.563 619.266Z" fill="#ABBAD0"/>
</svg>
