<svg width="613" height="579" viewBox="0 0 613 579" fill="none" xmlns="http://www.w3.org/2000/svg">
<path d="M382.36 506.314L458.77 428.778L306.326 428.402L382.36 506.314Z" stroke="#D7D7D7" stroke-width="1.16642" stroke-miterlimit="10"/>
<path d="M534.984 350.688L611.394 273.153L458.95 272.965L534.984 350.688Z" stroke="#D7D7D7" stroke-width="1.16642" stroke-miterlimit="10"/>
<path d="M534.984 351.063L382.729 350.688L458.763 428.411L534.984 351.063Z" stroke="#D7D7D7" stroke-width="1.16642" stroke-miterlimit="10"/>
<path d="M382.737 351.063L230.294 350.688L306.328 428.411L382.737 351.063Z" stroke="#D7D7D7" stroke-width="1.16642" stroke-miterlimit="10"/>
<path d="M230.296 350.688L306.518 273.153L154.262 272.965L230.296 350.688Z" stroke="#D7D7D7" stroke-width="1.16642" stroke-miterlimit="10"/>
<path d="M231.033 39.7891L154.623 117.325L307.067 117.513L231.033 39.7891Z" stroke="#D7D7D7" stroke-width="1.16642" stroke-miterlimit="10"/>
<path d="M78.2218 195.423L2 272.959L154.256 273.146L78.2218 195.423Z" stroke="#D7D7D7" stroke-width="1.16642" stroke-miterlimit="10"/>
<path d="M78.2207 195.424L230.664 195.612L154.63 117.889L78.2207 195.424Z" stroke="#D7D7D7" stroke-width="1.16642" stroke-miterlimit="10"/>
<path d="M230.655 195.424L383.099 195.612L307.065 117.889L230.655 195.424Z" stroke="#D7D7D7" stroke-width="1.16642" stroke-miterlimit="10"/>
<path d="M383.106 195.423L306.696 272.959L459.14 273.146L383.106 195.423Z" stroke="#D7D7D7" stroke-width="1.16642" stroke-miterlimit="10"/>
<path d="M230.475 195.423L154.065 272.959L306.509 273.146L230.475 195.423Z" stroke="#D7D7D7" stroke-width="1.16642" stroke-miterlimit="10"/>
<path d="M382.36 350.688L458.77 273.153L306.326 272.965L382.36 350.688Z" stroke="#D7D7D7" stroke-width="1.16642" stroke-miterlimit="10"/>
<path d="M388.385 394.443V400.075H362.289V394.631C362.289 393.504 363.228 392.565 364.354 392.565H386.695C387.446 392.565 388.385 393.316 388.385 394.443Z" fill="#E74529"/>
<path d="M392.32 469.349C392.132 468.973 391.944 468.598 391.944 468.035C391.944 467.847 391.944 467.471 391.944 467.284V439.874V417.721V400.073H354.396V471.038L393.446 470.663C393.071 470.287 392.695 469.912 392.32 469.349ZM376.55 437.058C375.235 439.311 373.546 440.625 371.668 440.625C367.163 440.625 363.596 433.115 363.596 423.728C363.596 414.342 367.163 406.832 371.668 406.832C373.358 406.832 374.86 407.958 376.174 409.836C378.239 412.84 379.741 417.909 379.741 423.728C379.553 429.173 378.427 433.866 376.55 437.058Z" fill="#F3A193"/>
<path d="M376.548 437.059C375.234 439.312 373.544 440.626 371.666 440.626C367.161 440.626 363.594 433.116 363.594 423.729C363.594 414.343 367.161 406.833 371.666 406.833C373.356 406.833 374.858 407.959 376.172 409.837C374.295 412.841 372.981 417.722 372.981 423.166C372.981 428.986 374.295 434.055 376.548 437.059Z" fill="#EB644C"/>
<path d="M379.55 423.736C379.55 429.181 378.235 434.062 376.358 437.066C374.293 434.062 372.791 428.993 372.791 423.173C372.791 417.729 374.105 412.848 375.983 409.844C378.235 412.848 379.55 417.917 379.55 423.736Z" fill="#E74529"/>
<path d="M338.99 378.86V400.074C338.99 401.013 338.239 401.764 337.3 401.764H332.231V376.982H337.113C338.239 376.982 338.99 377.921 338.99 378.86Z" fill="#E74529"/>
<path d="M338.99 413.032V434.246C338.99 435.185 338.239 435.936 337.3 435.936H332.231V411.154H337.113C338.239 411.154 338.99 412.093 338.99 413.032Z" fill="#E74529"/>
<path d="M426.492 394.245V400.064H400.396V394.432C400.396 393.306 401.335 392.367 402.462 392.367H424.802C425.553 392.367 426.492 393.118 426.492 394.245Z" fill="#E74529"/>
<path d="M471.167 394.245V400.064H445.071V394.432C445.071 393.306 446.01 392.367 447.136 392.367H469.477C470.416 392.367 471.167 393.118 471.167 394.245Z" fill="#E74529"/>
<path d="M493.7 400.071V439.684C493.7 440.623 493.325 441.374 492.762 441.937L464.038 469.722C463.475 470.285 462.724 470.661 461.785 470.661H394.95C393.448 470.661 392.134 469.722 391.946 468.22V468.033V417.906V400.259H493.7V400.071Z" fill="#EB644C"/>
<path d="M441.127 219.844C440.939 219.844 440.752 219.844 440.564 219.844C440.001 220.031 439.437 220.219 438.874 220.782L410.15 249.882C409.775 250.257 409.587 250.633 409.399 251.008H371.852C372.039 250.633 372.227 250.07 372.603 249.882L401.327 220.782C401.702 220.407 402.453 220.031 403.016 219.844C403.204 219.844 403.392 219.844 403.579 219.844H441.127Z" fill="#E74529"/>
<path d="M409.39 352.391H371.842L371.467 266.595V252.139C371.467 251.764 371.467 251.388 371.655 251.013H409.202C409.014 251.388 409.014 251.764 409.014 252.139V266.595L409.39 352.391Z" fill="#F3A193"/>
<path d="M511.141 223.035V352.387H409.387L409.012 266.591V252.135C409.012 251.759 409.012 251.384 409.199 251.008C409.387 250.633 409.575 250.07 409.95 249.882L438.674 220.782C439.05 220.407 439.801 220.031 440.364 219.844C440.552 219.844 440.739 219.844 440.927 219.844H507.95C509.827 219.844 511.141 221.346 511.141 223.035Z" fill="#EB644C"/>
<path d="M393.997 315.402C392.683 313.149 390.993 311.835 389.116 311.835C384.61 311.835 381.043 319.344 381.043 328.731C381.043 338.118 384.61 345.628 389.116 345.628C390.805 345.628 392.307 344.501 393.621 342.624C391.744 339.62 390.43 334.739 390.43 329.295C390.43 323.663 391.932 318.406 393.997 315.402Z" fill="#EB644C"/>
<path d="M397.187 328.726C397.187 323.281 395.873 318.4 393.996 315.396C391.931 318.4 390.429 323.469 390.429 329.289C390.429 334.734 391.743 339.615 393.62 342.618C395.873 339.615 397.187 334.546 397.187 328.726Z" fill="#E74529"/>
<path d="M332.245 368.722V445.883L305.399 472.729C304.835 473.292 304.084 473.668 303.333 473.668H303.146C302.395 473.668 301.644 473.292 301.081 472.729L284.372 456.021L237.813 409.461C237.25 408.898 236.874 408.147 236.874 407.396C236.874 406.645 237.25 405.895 237.813 405.331L284.372 358.772L301.081 342.064C301.644 341.5 302.395 341.125 303.146 341.125C303.897 341.125 304.648 341.5 305.211 342.064L332.245 368.722Z" fill="#EB644C"/>
<path d="M303.14 473.666H265.404C264.653 473.666 263.903 473.291 263.339 472.727L200.072 409.46C199.508 408.896 199.133 408.145 199.133 407.395H236.868C236.868 408.145 237.244 408.896 237.807 409.46L284.366 456.019L301.075 472.727C301.826 473.291 302.389 473.666 303.14 473.666Z" fill="#F3A193"/>
<path d="M303.328 341.125C302.577 341.125 301.826 341.5 301.262 342.064L284.554 358.772L237.995 405.331C237.431 405.895 237.056 406.645 237.056 407.396H199.133C199.133 406.645 199.508 405.895 200.072 405.331L263.339 342.064C263.903 341.5 264.653 341.125 265.404 341.125H303.328Z" fill="#E74529"/>
<path d="M413.348 577.668C429.834 577.668 443.199 574.39 443.199 570.346C443.199 566.303 429.834 563.024 413.348 563.024C396.863 563.024 383.498 566.303 383.498 570.346C383.498 574.39 396.863 577.668 413.348 577.668Z" fill="#E6E8EB" stroke="white" stroke-width="1.87738" stroke-miterlimit="10"/>
<path d="M399.825 576.923C400.388 574.107 416.909 483.242 417.285 481.364C418.036 478.36 419.725 469.912 427.798 465.782C435.871 461.652 442.817 456.583 444.695 455.081C446.572 453.579 452.767 448.135 455.959 450.763C455.959 450.763 457.085 450.951 453.518 454.706C450.515 457.897 444.319 464.468 441.691 468.598C443.193 469.161 458.212 466.908 462.154 466.533C462.53 466.533 462.718 466.533 462.905 466.533C463.281 466.533 463.656 466.533 464.032 466.533C465.346 466.533 467.223 466.345 468.913 466.158C470.978 465.97 473.043 465.594 473.794 465.031C474.357 464.656 475.859 463.529 477.924 462.403C481.304 460.525 485.809 458.836 489.189 460.713C489.189 460.713 476.422 469.724 472.48 471.414C471.729 471.79 470.603 472.165 469.288 472.353C467.974 473.855 466.848 474.981 466.472 475.169C464.219 476.858 454.269 481.74 449.764 483.993C446.197 485.682 436.059 490.751 432.116 492.816C431.365 497.322 425.545 574.858 425.545 577.486" fill="white"/>
<path d="M399.825 576.923C400.388 574.107 416.909 483.242 417.285 481.364C418.036 478.36 419.725 469.912 427.798 465.782C435.871 461.652 442.817 456.583 444.695 455.081C446.572 453.579 452.767 448.135 455.959 450.763C455.959 450.763 457.085 450.951 453.518 454.706C450.515 457.897 444.319 464.468 441.691 468.598C443.193 469.161 458.212 466.908 462.154 466.533C462.53 466.533 462.718 466.533 462.905 466.533C463.281 466.533 463.656 466.533 464.032 466.533C465.346 466.533 467.223 466.345 468.913 466.158C470.978 465.97 473.043 465.594 473.794 465.031C474.357 464.656 475.859 463.529 477.924 462.403C481.304 460.525 485.809 458.836 489.189 460.713C489.189 460.713 476.422 469.724 472.48 471.414C471.729 471.79 470.603 472.165 469.288 472.353C467.974 473.855 466.848 474.981 466.472 475.169C464.219 476.858 454.269 481.74 449.764 483.993C446.197 485.682 436.059 490.751 432.116 492.816C431.365 497.322 425.545 574.858 425.545 577.486" stroke="#737C89" stroke-width="0.469345" stroke-miterlimit="10"/>
<path d="M440.381 470.676V470.488C440.569 470.301 440.569 469.925 440.756 469.738L441.507 468.611C443.009 469.174 458.028 466.922 461.971 466.546C462.346 466.546 462.534 466.546 462.722 466.546C462.909 466.546 463.097 466.546 463.473 466.546C463.473 466.546 463.473 466.546 463.66 466.546C463.848 466.546 463.848 466.546 464.036 466.546C464.599 466.546 465.538 466.358 466.289 466.358C467.227 466.358 467.978 466.171 468.917 465.983C469.293 465.983 469.856 465.795 470.231 465.795C470.419 465.795 470.607 465.795 470.794 465.607C470.982 465.607 471.17 465.607 471.358 465.42C471.545 465.42 471.733 465.42 471.921 465.232C472.109 465.232 472.296 465.044 472.484 465.044C472.672 465.044 472.672 465.044 472.86 465.044C473.047 465.044 473.235 464.856 473.423 464.856C473.611 464.856 473.798 464.669 473.798 464.669C474.361 464.293 475.863 463.167 477.929 462.04C480.932 460.351 485.063 458.661 488.442 459.975L487.691 460.351C485.626 460.539 483.561 461.289 480.932 462.791C476.239 465.42 475.112 466.734 471.17 467.485C467.978 467.672 448.454 470.489 440.381 470.676Z" fill="#E6E8EB"/>
<path d="M441.686 468.42C441.123 469.171 440.748 469.922 440.56 470.485C439.246 473.864 437.181 475.929 437.181 475.929" stroke="#737C89" stroke-width="0.469345" stroke-miterlimit="10"/>
<path d="M432.299 492.255C431.173 492.818 430.609 493.006 430.609 493.006" stroke="#737C89" stroke-width="0.469345" stroke-miterlimit="10"/>
<path d="M469.483 471.793C464.789 472.732 458.406 472.919 458.406 472.919" stroke="#737C89" stroke-width="0.469345" stroke-miterlimit="10"/>
<path d="M452.58 455.646L450.702 453.393C450.702 453.393 452.955 451.14 456.147 450.953C455.959 450.765 457.273 451.328 452.58 455.646Z" fill="#E35263"/>
<path d="M488.241 459.781L483.923 460.908L484.486 463.348L487.678 461.283L489.18 460.157L488.616 459.781" fill="#E35263"/>
<path d="M404.332 577.298C402.83 577.111 401.328 577.111 400.014 576.923C400.577 574.107 417.098 483.242 417.473 481.364C418.224 478.36 419.914 469.912 427.987 465.782C436.059 461.652 443.006 456.583 444.883 455.081C446.761 453.579 452.956 448.135 456.147 450.763C452.393 450.951 449.577 452.828 447.324 455.081C444.508 457.897 438.125 463.529 433.994 465.407C429.864 467.284 423.106 471.039 421.04 477.61C419.351 482.491 405.834 564.532 404.332 577.298Z" fill="#E6E8EB"/>
<path d="M469.098 465.793C471.538 463.353 475.669 458.847 479.048 455.28C480.925 453.215 482.615 451.525 483.554 450.587C486.745 447.583 488.81 449.272 488.81 449.272C488.81 449.272 483.554 455.468 478.109 461.851C476.044 462.977 474.542 464.104 473.979 464.479C473.228 465.042 471.163 465.418 469.098 465.793Z" stroke="#737C89" stroke-width="0.469345" stroke-miterlimit="10"/>
<path d="M486.371 452.078L485.244 450.952L487.872 449.074L488.623 449.262L486.371 452.078Z" fill="#E35263"/>
<path d="M469.098 465.788C471.538 463.347 475.669 458.842 479.048 455.275C480.925 453.21 482.615 451.52 483.554 450.581C485.806 448.516 487.308 448.704 488.059 448.892C486.557 449.267 485.243 449.83 483.741 451.708C482.052 453.773 474.73 462.033 471.726 465.413C471.538 465.413 471.351 465.413 471.163 465.6C470.975 465.6 470.787 465.6 470.6 465.788C470.036 465.6 469.473 465.6 469.098 465.788Z" fill="#E6E8EB"/>
<path d="M399.825 576.923C400.388 574.107 416.909 483.242 417.285 481.364C418.036 478.36 419.725 469.912 427.798 465.782C435.871 461.652 442.817 456.583 444.695 455.081C446.572 453.579 452.767 448.135 455.959 450.763C455.959 450.763 457.085 450.951 453.518 454.706C450.515 457.897 444.319 464.468 441.691 468.598C443.193 469.161 458.212 466.908 462.154 466.533C462.53 466.533 462.718 466.533 462.905 466.533C463.281 466.533 463.656 466.533 464.032 466.533C465.346 466.533 467.223 466.345 468.913 466.158C470.978 465.97 473.043 465.594 473.794 465.031C474.357 464.656 475.859 463.529 477.924 462.403C481.304 460.525 485.809 458.836 489.189 460.713C489.189 460.713 476.422 469.724 472.48 471.414C471.729 471.79 470.603 472.165 469.288 472.353C467.974 473.855 466.848 474.981 466.472 475.169C464.219 476.858 454.269 481.74 449.764 483.993C446.197 485.682 436.059 490.751 432.116 492.816C431.365 497.322 425.545 574.858 425.545 577.486" stroke="#737C89" stroke-width="0.469345" stroke-miterlimit="10"/>
<path d="M590.184 348.071C592.436 349.01 592.061 355.017 589.808 363.09C588.682 366.657 587.368 370.599 585.49 374.73C583.613 379.048 581.36 383.178 579.295 386.369C575.165 393.128 571.034 397.07 568.969 396.132C566.341 395.005 567.092 387.308 570.471 377.734C571.41 375.105 572.536 372.289 573.663 369.473C575.728 364.78 577.981 360.649 580.233 357.082C584.176 350.887 588.118 347.132 590.184 348.071Z" fill="#D8D8D8" stroke="white" stroke-width="1.87738" stroke-miterlimit="10"/>
<path d="M518.294 269.032C518.482 269.783 518.857 271.097 519.233 272.974C520.547 274.101 522.236 277.48 524.114 287.43C526.93 302.261 531.811 317.093 537.068 327.043C539.696 331.924 545.891 336.993 552.274 341.311C553.025 341.687 553.589 342.25 554.34 342.625C556.968 344.315 586.631 362.338 589.071 363.652C589.447 366.843 580.435 386.368 576.117 390.874C574.615 389.372 548.52 367.219 546.83 365.717C545.516 364.403 544.202 363.089 542.7 361.775C537.255 356.518 531.811 351.637 528.619 349.384C521.298 343.939 516.98 342.438 513.413 338.495C510.033 334.365 510.033 325.541 508.907 321.974C507.78 318.407 502.336 308.645 506.279 305.641C507.593 304.514 508.907 305.265 510.221 306.767C509.282 297.193 506.091 265.277 511.911 264.151C514.915 258.143 517.167 265.465 518.294 269.032Z" fill="white" stroke="#737C89" stroke-width="0.469345" stroke-miterlimit="10"/>
<path d="M521.859 330.052C519.607 327.799 516.227 321.416 515.101 317.474C514.35 314.845 512.473 309.401 510.22 306.585" fill="white"/>
<path d="M521.859 330.052C519.607 327.799 516.227 321.416 515.101 317.474C514.35 314.845 512.473 309.401 510.22 306.585" stroke="#737C89" stroke-width="0.469345" stroke-miterlimit="10"/>
<path d="M525.236 303.198C524.297 300.382 521.106 281.796 519.229 273.16L525.236 303.198Z" fill="white"/>
<path d="M525.236 303.198C524.297 300.382 521.106 281.796 519.229 273.16" stroke="#737C89" stroke-width="0.469345" stroke-miterlimit="10"/>
<path d="M511.91 263.96C517.542 262.833 516.791 294.561 522.611 304.136L511.91 263.96Z" fill="white"/>
<path d="M511.91 263.96C517.542 262.833 516.791 294.561 522.611 304.136" stroke="#737C89" stroke-width="0.469345" stroke-miterlimit="10"/>
<path d="M577.807 387.682C577.056 389.372 576.868 389.747 576.117 391.062C574.615 389.56 548.52 367.407 546.83 365.905C545.516 364.59 544.202 363.276 542.7 361.962C537.255 356.706 531.811 351.824 528.619 349.572C521.298 344.127 516.98 342.625 513.413 338.683C510.033 334.552 510.033 325.729 508.907 322.162C507.78 318.595 502.336 308.832 506.279 305.829C506.466 305.641 506.842 305.453 507.03 305.453C505.715 307.331 506.091 309.771 506.842 311.836C507.78 314.464 511.723 320.284 512.849 327.418C513.976 334.552 514.351 338.307 525.803 345.253C533.688 349.571 570.485 381.487 577.807 387.682Z" fill="#E6E8EB"/>
<path d="M522.236 303.764C516.791 293.814 517.542 263.025 511.91 264.152C512.849 262.462 513.6 261.899 514.351 262.086C514.163 262.649 514.163 263.213 514.726 264.715C515.665 267.531 516.791 269.22 518.856 283.864C520.358 295.504 522.987 301.699 522.236 303.764Z" fill="#E6E8EB"/>
<path d="M522.427 330.233C522.051 329.858 521.864 329.483 521.488 329.107C519.235 326.291 516.232 320.847 515.105 317.467C514.917 316.904 514.73 316.153 514.542 315.402C513.603 312.586 512.101 308.831 510.412 306.579C510.412 306.579 510.412 306.579 510.412 306.391C509.285 295.69 506.845 266.215 511.726 263.962C510.787 267.153 510.975 271.284 511.163 275.789C511.726 282.736 511.538 308.644 518.484 321.973C519.611 324.038 520.362 325.916 520.925 327.417L522.427 330.233Z" fill="#E6E8EB"/>
<path d="M590.195 348.064C592.448 349.003 592.072 355.011 589.819 363.083C588.693 366.651 587.379 370.593 585.501 374.723C583.624 379.041 581.371 383.171 579.306 386.363C575.176 393.122 571.046 397.064 568.98 396.125" stroke="white" stroke-width="1.87738" stroke-miterlimit="10"/>
<path d="M443.198 570.353C443.198 574.483 429.868 577.674 413.347 577.674C396.826 577.674 383.497 574.483 383.497 570.353" stroke="white" stroke-width="1.87738" stroke-miterlimit="10"/>
<path d="M256.387 60.2541C256.387 60.0663 256.199 60.0663 256.199 59.8786L246.812 49.1775C246.061 48.2388 244.56 48.2388 243.621 48.9898L232.169 60.4418C231.23 61.3804 229.916 61.3804 228.977 60.4418L217.525 48.9898C216.587 48.0511 215.085 48.0511 214.334 49.1775L204.947 59.8786C204.196 60.4418 203.82 61.3804 203.82 62.3191C203.82 63.2578 204.196 64.1965 204.947 64.7597C204.947 64.9474 205.134 64.9475 205.134 64.9475L217.15 76.9627L222.031 81.8439L229.728 89.7289L230.479 90.4798L231.23 89.7289L239.115 82.0316L243.996 77.1505L256.012 65.1352C256.199 64.9475 256.199 64.9474 256.387 64.7597C256.95 64.1965 257.326 63.4456 257.326 62.5069C257.326 61.5683 256.95 60.8173 256.387 60.2541Z" fill="#ACBBD1"/>
<path d="M233.87 53.1287L231.993 55.0061C231.242 55.7571 229.928 55.7571 229.177 55.0061L227.3 53.1287C226.549 52.3778 226.549 51.0636 227.3 50.3127L229.177 48.4353C229.928 47.6843 231.242 47.6843 231.993 48.4353L233.87 50.3127C234.621 51.0636 234.621 52.3778 233.87 53.1287Z" fill="#FFB914"/>
<path d="M256.387 12.5714C256.387 12.3837 256.199 12.3836 256.199 12.1959L246.812 1.49493C246.061 0.556237 244.56 0.556168 243.621 1.30712L232.169 12.7592C231.23 13.6979 229.916 13.6979 228.977 12.7592L217.525 1.30712C216.587 0.368431 215.085 0.368499 214.334 1.49493L204.947 12.1959C204.196 12.7591 203.82 13.6979 203.82 14.6366C203.82 15.5753 204.196 16.5139 204.947 17.0772C204.947 17.2649 205.134 17.2648 205.134 17.2648L217.15 29.2801L222.031 34.1613L229.728 42.0463L230.479 42.7973L231.23 42.0463L239.115 34.3491L243.996 29.4678L256.012 17.4527C256.199 17.2649 256.199 17.2649 256.387 17.0772C256.95 16.5139 257.326 15.763 257.326 14.8243C257.326 13.8856 256.95 13.1346 256.387 12.5714Z" fill="#D7F3E8"/>
<path d="M233.87 5.25666L231.993 7.13404C231.242 7.88499 229.928 7.88499 229.177 7.13404L227.3 5.25666C226.549 4.50571 226.549 3.19154 227.3 2.44059L229.177 0.563214C229.928 -0.187738 231.242 -0.187738 231.993 0.563214L233.87 2.44059C234.621 3.37928 234.621 4.50571 233.87 5.25666Z" fill="#FFB914"/>
<path d="M204.571 124.273C204.571 124.461 204.759 124.461 204.759 124.649L214.146 135.538C214.897 136.476 216.399 136.476 217.337 135.725L228.79 124.461C229.728 123.522 231.042 123.71 231.981 124.461L243.245 135.913C244.184 136.852 245.686 136.852 246.437 135.913L256.012 125.212C256.763 124.649 257.138 123.71 257.138 122.771C257.138 121.833 256.763 120.894 256.199 120.331C256.199 120.143 256.012 120.143 256.012 120.143L243.996 107.94L239.115 103.059L231.418 95.1737L230.667 94.4229L229.916 95.1737L222.031 102.871L217.15 107.752L205.134 119.767C204.947 119.955 204.947 119.955 204.759 120.143C204.196 120.706 203.82 121.457 203.82 122.396C203.82 122.959 204.008 123.71 204.571 124.273Z" fill="#ACBBD1"/>
<path d="M227.102 131.598L229.167 129.72C229.918 128.969 231.233 128.969 231.983 129.72L233.861 131.786C234.612 132.537 234.612 133.851 233.861 134.602L231.796 136.479C231.045 137.23 229.731 137.23 228.98 136.479L227.102 134.414C226.351 133.475 226.351 132.349 227.102 131.598Z" fill="#FFB914"/>
<path d="M204.571 172.337C204.571 172.524 204.759 172.524 204.759 172.712L214.146 183.601C214.897 184.54 216.399 184.54 217.337 183.789L228.79 172.524C229.728 171.586 231.042 171.773 231.981 172.524L243.245 183.976C244.184 184.915 245.686 184.915 246.437 183.976L256.012 173.275C256.763 172.712 257.138 171.773 257.138 170.835C257.138 169.896 256.763 168.957 256.199 168.394C256.199 168.207 256.012 168.206 256.012 168.206L243.996 156.003L239.115 151.122L231.418 143.237L230.667 142.486L229.916 143.237L222.031 150.935L217.15 155.816L205.134 167.831C204.947 168.019 204.947 168.019 204.759 168.206C204.196 168.77 203.82 169.521 203.82 170.459C203.82 170.835 204.008 171.773 204.571 172.337Z" fill="#D7F3E8"/>
<path d="M227.102 179.653L229.167 177.776C229.918 177.025 231.233 177.025 231.983 177.776L233.861 179.841C234.612 180.592 234.612 181.906 233.861 182.657L231.796 184.535C231.045 185.286 229.731 185.286 228.98 184.535L227.102 182.47C226.351 181.531 226.351 180.404 227.102 179.653Z" fill="#FFB914"/>
</svg>
