<svg width="701" height="652" viewBox="0 0 701 652" fill="none" xmlns="http://www.w3.org/2000/svg">
<path d="M303.85 591.366L207.299 494.634C152.243 439.474 152.243 349.839 207.299 294.68L303.85 197.947C358.907 142.788 448.374 142.788 503.43 197.947L599.981 294.68C655.038 349.839 655.038 439.474 599.981 494.634L503.43 591.366C448.374 646.526 359.109 646.526 303.85 591.366Z" fill="#263244"/>
<path d="M350.784 208.235L280.749 139.488V276.982L350.784 208.235Z" stroke="#D7D7D7" stroke-width="0.908455" stroke-miterlimit="10"/>
<path d="M210.909 70.7468L140.874 2V139.494L210.909 70.7468Z" stroke="#D7D7D7" stroke-width="0.908455" stroke-miterlimit="10"/>
<path d="M210.913 70.7446V208.238L280.746 139.491L210.913 70.7446Z" stroke="#D7D7D7" stroke-width="0.908455" stroke-miterlimit="10"/>
<path d="M210.912 208.25V345.743L280.745 276.996L210.912 208.25Z" stroke="#D7D7D7" stroke-width="0.908455" stroke-miterlimit="10"/>
<path d="M210.909 345.732L140.874 276.985V414.479L210.909 345.732Z" stroke="#D7D7D7" stroke-width="0.908455" stroke-miterlimit="10"/>
<path d="M210.91 208.235L140.875 139.488V276.982L210.91 208.235Z" stroke="#D7D7D7" stroke-width="0.908455" stroke-miterlimit="10"/>
<path d="M71.0351 70.7468L1 2V139.494L71.0351 70.7468Z" stroke="#D7D7D7" stroke-width="0.908455" stroke-miterlimit="10"/>
<path d="M71.0381 70.7446V208.238L140.871 139.491L71.0381 70.7446Z" stroke="#D7D7D7" stroke-width="0.908455" stroke-miterlimit="10"/>
<path d="M71.0381 208.25V345.743L140.871 276.996L71.0381 208.25Z" stroke="#D7D7D7" stroke-width="0.908455" stroke-miterlimit="10"/>
<path d="M71.0351 345.732L1 276.985V414.479L71.0351 345.732Z" stroke="#D7D7D7" stroke-width="0.908455" stroke-miterlimit="10"/>
<path d="M71.0351 208.235L1 139.488V276.982L71.0351 208.235Z" stroke="#D7D7D7" stroke-width="0.908455" stroke-miterlimit="10"/>
<path d="M420.656 601.698V651.991H341.31V601.495C341.714 599.873 343.941 598.656 346.37 598.859L420.656 601.698Z" fill="#F1F1F1"/>
<path d="M341.316 601.504V652H328.767L341.316 601.504Z" fill="#D8D8D8"/>
<path d="M420.655 601.695L346.37 598.856C343.941 598.856 341.714 599.87 341.309 601.492L328.76 651.988H144.968C136.062 651.988 128.978 644.89 128.978 635.967V619.744L365.396 504.354L354.871 548.766C354.669 549.78 355.073 550.794 356.085 551.605L365.396 558.703L420.655 601.695Z" fill="white"/>
<path d="M701 611.436V635.974C701 644.897 693.915 651.995 685.009 651.995H472.272V452.244L701 611.436Z" fill="#F1F1F1"/>
<path d="M701 340.706V611.434L472.272 452.242L701 340.706Z" fill="white"/>
<path d="M365.405 504.354V558.906L356.094 551.808C355.082 550.997 354.677 549.983 354.88 548.969L365.405 504.354Z" fill="#D8D8D8"/>
<path d="M308.515 592.773C304.669 579.186 304.669 535.382 304.669 535.382L308.515 592.773Z" fill="white"/>
<path d="M308.515 592.773C304.669 579.186 304.669 535.382 304.669 535.382" stroke="#737C89" stroke-width="0.504697" stroke-miterlimit="10"/>
<path d="M320.068 319.811C319.866 320.014 319.461 320.014 319.461 319.608C320.271 314.741 322.497 305.615 323.712 302.776C324.926 299.532 325.938 300.14 326.545 300.14C327.153 300.14 326.95 300.951 326.141 303.79C325.533 306.224 322.092 315.755 320.068 319.811Z" fill="#496083"/>
<path d="M318.232 326.708C319.126 326.708 319.851 325.981 319.851 325.085C319.851 324.189 319.126 323.463 318.232 323.463C317.337 323.463 316.612 324.189 316.612 325.085C316.612 325.981 317.337 326.708 318.232 326.708Z" fill="#EB644C"/>
<path d="M295.155 321.439C295.155 321.845 294.75 321.845 294.547 321.439C293.13 316.775 290.702 307.649 290.297 304.607C289.892 301.16 291.106 301.16 291.714 300.957C292.321 300.754 292.523 301.363 293.131 304.405C293.738 306.838 295.155 316.978 295.155 321.439Z" fill="#496083"/>
<path d="M296.163 328.53C297.058 328.53 297.783 327.803 297.783 326.907C297.783 326.011 297.058 325.285 296.163 325.285C295.269 325.285 294.544 326.011 294.544 326.907C294.544 327.803 295.269 328.53 296.163 328.53Z" fill="#EB644C"/>
<path d="M277.143 337.451C277.345 337.856 276.94 338.059 276.738 337.856C273.499 334.206 267.831 326.5 266.212 323.864C264.593 320.822 265.605 320.416 266.01 320.011C266.415 319.605 266.819 320.011 268.641 322.647C270.058 324.472 275.321 333.395 277.143 337.451Z" fill="#496083"/>
<path d="M280.185 343.745C281.079 343.745 281.804 343.019 281.804 342.123C281.804 341.227 281.079 340.5 280.185 340.5C279.29 340.5 278.565 341.227 278.565 342.123C278.565 343.019 279.29 343.745 280.185 343.745Z" fill="#EB644C"/>
<path d="M335.441 361.79C331.797 360.573 328.963 359.762 328.963 359.762C328.761 358.14 328.559 356.315 328.559 354.287C328.559 350.839 328.761 347.392 328.963 346.175C328.963 345.77 328.963 345.77 328.963 345.77C330.583 346.175 333.012 346.986 335.643 347.797C335.441 351.853 334.833 357.532 335.441 361.79Z" fill="white" stroke="#737C89" stroke-width="0.504697" stroke-miterlimit="10"/>
<path d="M334.625 408.236C332.398 410.467 330.577 413.103 329.362 415.334C330.374 422.229 333.208 441.697 334.22 451.837C335.435 464.613 338.673 490.368 339.483 498.074C340.292 505.78 342.114 513.892 341.912 523.017C341.709 532.143 341.709 575.744 342.519 579.191C343.329 582.639 343.126 588.722 337.864 589.533C332.601 590.345 309.323 595.212 308.514 592.778C307.501 590.345 301.227 594.806 289.082 591.359C276.937 587.911 278.354 588.317 279.164 581.624C279.973 574.932 285.236 516.731 286.248 501.318C287.058 489.759 286.653 438.047 286.45 425.474C289.082 427.299 292.32 427.299 297.786 421.824C298.595 421.012 299.405 419.999 300.215 418.985C306.287 411.481 314.384 398.097 315.193 393.838C317.825 393.838 320.254 394.041 320.254 394.041C320.658 394.244 321.266 394.244 321.67 394.447C322.683 393.838 323.897 393.027 325.314 392.216C327.743 390.796 337.054 382.887 339.888 380.454C341.912 378.629 348.591 370.923 351.628 367.069C347.377 365.447 340.495 363.014 335.232 361.391C334.625 357.133 335.232 351.454 335.435 347.196C344.138 350.035 356.283 354.699 359.724 356.727C364.177 359.363 365.189 362.811 364.582 366.867C364.177 371.531 343.936 398.908 334.625 408.236Z" fill="white" stroke="#737C89" stroke-width="0.504697" stroke-miterlimit="10"/>
<path d="M327.548 418.983C327.548 418.983 328.155 417.361 329.37 415.13L327.548 418.983Z" fill="white"/>
<path d="M327.548 418.983C327.548 418.983 328.155 417.361 329.37 415.13" stroke="#737C89" stroke-width="0.504697" stroke-miterlimit="10"/>
<path d="M351.639 367.469C352.651 366.252 353.46 365.441 353.46 365.441L351.639 367.469Z" fill="white"/>
<path d="M351.639 367.469C352.651 366.252 353.46 365.441 353.46 365.441" stroke="#737C89" stroke-width="0.504697" stroke-miterlimit="10"/>
<path d="M320.462 386.538C320.462 386.538 320.26 393.636 320.057 394.244C320.057 394.244 317.426 394.041 314.997 394.041C315.199 393.433 315.2 392.825 315.402 392.419C315.807 390.999 316.414 388.769 316.616 386.538C318.438 386.538 320.462 386.538 320.462 386.538Z" fill="white" stroke="#737C89" stroke-width="0.504697" stroke-miterlimit="10"/>
<path d="M321.48 375.787C321.075 379.437 320.265 382.277 316.824 385.318C317.229 382.885 317.431 380.249 317.431 378.424C317.431 374.165 318.444 366.864 319.86 363.62C320.063 363.214 320.265 362.808 320.468 362.403C322.087 367.473 321.885 372.948 321.48 375.787Z" fill="white" stroke="#737C89" stroke-width="0.504697" stroke-miterlimit="10"/>
<path d="M318.644 357.736C317.632 358.548 316.418 360.373 315.405 363.212C315.001 364.429 314.798 365.645 314.596 367.268C313.584 374.771 313.381 383.491 312.976 388.155C312.572 392.82 312.572 401.134 311.56 406.204C310.548 410.665 308.523 417.763 304.273 425.469C303.463 426.483 302.653 427.294 301.844 428.308C296.379 433.784 293.14 433.784 290.509 431.959C289.496 431.35 288.687 430.336 287.877 429.322C284.639 425.469 285.448 404.582 286.46 400.931C287.27 397.889 289.294 399.309 293.342 395.456C293.545 393.834 291.521 376.596 291.318 370.918C291.318 370.512 291.318 370.107 291.318 369.904C291.318 369.498 291.318 369.093 291.318 368.687V368.484C291.318 367.673 291.318 367.065 291.318 366.254C291.521 362.604 292.533 358.548 295.164 355.1C297.795 351.855 305.285 349.422 311.357 351.247C311.357 351.45 311.357 351.855 311.357 351.855C311.357 351.855 311.357 351.855 311.155 351.855C310.548 352.464 310.75 353.072 311.155 353.275C310.548 354.086 311.357 354.492 312.167 354.492L311.964 354.695C311.357 355.303 312.572 355.506 313.584 355.1C314.596 354.695 315.405 354.289 316.215 354.086C316.417 354.289 316.822 354.695 317.025 355.1C317.227 355.303 317.227 355.506 317.43 355.709C317.834 356.317 318.239 356.722 318.442 357.331C318.442 357.331 318.442 357.331 318.644 357.736C318.644 357.534 318.442 357.534 318.644 357.736Z" fill="white"/>
<path d="M318.644 357.736C317.632 358.548 316.418 360.373 315.405 363.212C315.001 364.429 314.798 365.645 314.596 367.268C313.584 374.771 313.381 383.491 312.976 388.155C312.572 392.82 312.572 401.134 311.56 406.204C310.548 410.665 308.523 417.763 304.273 425.469C303.463 426.483 302.653 427.294 301.844 428.308C296.379 433.784 293.14 433.784 290.509 431.959C289.496 431.35 288.687 430.336 287.877 429.322C284.639 425.469 285.448 404.582 286.46 400.931C287.27 397.889 289.294 399.309 293.342 395.456C293.545 393.834 291.521 376.596 291.318 370.918C291.318 370.512 291.318 370.107 291.318 369.904C291.318 369.498 291.318 369.093 291.318 368.687V368.484C291.318 367.673 291.318 367.065 291.318 366.254C291.521 362.604 292.533 358.548 295.164 355.1C297.795 351.855 305.285 349.422 311.357 351.247C311.357 351.45 311.357 351.855 311.357 351.855C311.357 351.855 311.357 351.855 311.155 351.855C310.548 352.464 310.75 353.072 311.155 353.275C310.548 354.086 311.357 354.492 312.167 354.492L311.964 354.695C311.357 355.303 312.572 355.506 313.584 355.1C314.596 354.695 315.405 354.289 316.215 354.086C316.417 354.289 316.822 354.695 317.025 355.1C317.227 355.303 317.227 355.506 317.43 355.709C317.834 356.317 318.239 356.722 318.442 357.331C318.442 357.331 318.442 357.331 318.644 357.736ZM318.644 357.736C318.442 357.534 318.644 357.534 318.644 357.736Z" stroke="#263244" stroke-width="0.268297" stroke-miterlimit="10" stroke-linecap="round" stroke-linejoin="round"/>
<path d="M318.644 357.736C317.632 358.548 316.418 360.373 315.405 363.212C315.001 364.429 314.798 365.645 314.596 367.268C313.584 374.771 313.381 383.491 312.976 388.155C312.572 392.82 312.572 401.134 311.56 406.204C310.548 410.665 308.523 417.763 304.273 425.469C303.463 426.483 302.653 427.294 301.844 428.308C296.379 433.784 293.14 433.784 290.509 431.959C289.496 431.35 288.687 430.336 287.877 429.322C284.639 425.469 285.448 404.582 286.46 400.931C287.27 397.889 289.294 399.309 293.342 395.456C293.545 393.834 291.521 376.596 291.318 370.918C291.318 370.512 291.318 370.107 291.318 369.904C291.318 369.498 291.318 369.093 291.318 368.687V368.484C291.318 367.673 291.318 367.065 291.318 366.254C291.521 362.604 292.533 358.548 295.164 355.1C297.795 351.855 305.285 349.422 311.357 351.247C311.357 351.45 311.357 351.855 311.357 351.855C311.357 351.855 311.357 351.855 311.155 351.855C310.548 352.464 310.75 353.072 311.155 353.275C310.548 354.086 311.357 354.492 312.167 354.492L311.964 354.695C311.357 355.303 312.572 355.506 313.584 355.1C314.596 354.695 315.405 354.289 316.215 354.086C316.417 354.289 316.822 354.695 317.025 355.1C317.227 355.303 317.227 355.506 317.43 355.709C317.834 356.317 318.239 356.722 318.442 357.331C318.442 357.331 318.442 357.331 318.644 357.736ZM318.644 357.736C318.442 357.534 318.644 357.534 318.644 357.736Z" stroke="#737C89" stroke-width="0.268297" stroke-miterlimit="10" stroke-linecap="round" stroke-linejoin="round"/>
<path d="M289.501 409.443C291.525 404.982 291.728 402.345 292.942 395.248" stroke="#737C89" stroke-width="0.268297" stroke-miterlimit="10" stroke-linecap="round" stroke-linejoin="round"/>
<path d="M321.686 394.648C322.293 394.851 323.102 395.256 323.912 395.865L321.686 394.648Z" fill="white"/>
<path d="M321.686 394.648C322.293 394.851 323.102 395.256 323.912 395.865" stroke="#737C89" stroke-width="0.504697" stroke-miterlimit="10"/>
<path d="M320.676 357.934C320.676 358.137 320.474 358.34 320.271 358.543L320.069 358.745C319.867 358.948 319.664 359.151 319.259 359.557C318.247 360.571 316.83 361.99 315.211 363.41C312.377 365.843 308.531 368.277 304.281 369.696C300.435 370.913 297.399 371.319 294.97 371.319C293.35 371.319 292.136 371.116 290.921 370.913C290.314 370.913 289.909 370.71 289.302 370.507C288.695 370.305 288.29 369.696 288.29 369.088C288.492 368.479 288.897 368.277 289.302 368.074C289.505 368.074 289.504 368.074 289.707 368.074C289.909 368.074 290.314 368.277 290.719 368.277C292.946 368.682 296.994 369.088 303.471 367.263C310.151 365.235 315.818 359.557 318.045 357.326C318.045 357.326 318.045 357.326 318.247 357.123L318.45 356.92L318.652 356.718L319.057 356.515C319.462 356.515 319.867 356.515 320.069 356.92C320.676 357.123 320.676 357.529 320.676 357.934Z" fill="#263244"/>
<path d="M319.263 356.515L318.857 356.718C318.857 356.515 319.06 356.515 319.263 356.515Z" fill="white" stroke="#263244" stroke-width="0.268297" stroke-miterlimit="10" stroke-linecap="round" stroke-linejoin="round"/>
<path d="M319.25 356.523C319.047 356.523 318.845 356.523 318.845 356.726C318.845 356.726 318.643 356.726 318.643 356.929L318.44 357.131C318.44 357.131 318.44 357.131 318.238 357.334C316.011 359.565 310.546 365.243 303.664 367.271C297.187 369.299 293.341 368.691 290.912 368.285C290.507 368.285 290.102 368.082 289.9 368.082C289.697 368.082 289.495 368.082 289.495 368.082C289.09 367.879 288.888 367.271 289.09 366.865C289.293 366.257 289.9 365.851 290.507 366.054C290.709 366.054 290.912 366.054 291.114 366.257C291.722 366.46 292.531 366.46 293.543 366.663C295.77 366.865 299.008 366.663 303.259 365.446C307.712 364.026 311.558 361.187 314.189 358.754C315.404 357.537 316.416 356.523 317.023 355.915C317.428 355.509 318.238 355.509 318.643 355.915C319.25 355.712 319.25 356.117 319.25 356.523Z" fill="#263244"/>
<path d="M319.261 356.531L318.855 356.734C318.855 356.531 319.058 356.531 319.261 356.531Z" fill="white" stroke="#263244" stroke-width="0.268297" stroke-miterlimit="10" stroke-linecap="round" stroke-linejoin="round"/>
<path d="M328.964 346.171C328.762 347.388 328.56 350.836 328.56 354.283C327.345 354.689 325.119 355.094 324.107 355.094C322.487 355.094 320.868 354.891 318.844 354.486C318.439 353.878 319.249 353.472 319.856 353.675C320.665 353.675 322.285 353.878 323.297 352.864C320.868 352.864 319.046 352.864 316.01 353.878C315.2 354.08 314.391 354.486 313.379 354.892C312.569 355.297 311.152 355.297 311.759 354.486L311.962 354.283C311.152 354.283 310.545 353.878 310.95 353.066C310.545 352.864 310.342 352.255 310.95 351.647C310.95 351.647 310.95 351.647 311.152 351.647C310.95 351.444 310.95 351.241 311.152 351.039C311.152 350.836 311.354 350.43 311.759 350.025C312.164 349.619 314.593 347.997 318.439 346.78C321.88 345.766 326.738 345.969 328.964 346.171Z" fill="white" stroke="#737C89" stroke-width="0.504697" stroke-miterlimit="10"/>
<path d="M311.147 351.647C311.35 351.444 311.552 351.444 311.755 351.241C313.172 350.227 314.993 349.213 316.41 348.808" fill="white"/>
<path d="M311.147 351.647C311.35 351.444 311.552 351.444 311.755 351.241C313.172 350.227 314.993 349.213 316.41 348.808" stroke="#737C89" stroke-width="0.504697" stroke-miterlimit="10" stroke-linecap="round"/>
<path d="M311.147 353.276C311.35 352.87 312.16 352.465 313.172 351.856C314.386 351.248 315.803 350.639 316.815 350.234" fill="white"/>
<path d="M311.147 353.276C311.35 352.87 312.16 352.465 313.172 351.856C314.386 351.248 315.803 350.639 316.815 350.234" stroke="#737C89" stroke-width="0.504697" stroke-miterlimit="10" stroke-linecap="round"/>
<path d="M311.956 354.482C313.575 353.062 315.6 352.454 317.219 351.846L311.956 354.482Z" fill="white"/>
<path d="M311.956 354.482C313.575 353.062 315.6 352.454 317.219 351.846" stroke="#737C89" stroke-width="0.504697" stroke-miterlimit="10" stroke-linecap="round"/>
<path d="M294.747 375.179C296.366 380.857 300.212 381.669 298.998 390.592" stroke="#737C89" stroke-width="0.268297" stroke-miterlimit="10" stroke-linecap="round" stroke-linejoin="round"/>
<path d="M320.46 361.991C320.258 362.396 320.055 362.802 319.853 363.208C318.436 366.452 317.424 373.753 317.424 378.012C317.424 380.04 317.221 382.473 316.816 384.906C316.816 385.312 316.614 385.718 316.614 386.123C316.209 388.354 317.221 392.004 315.804 401.536C314.185 411.27 310.137 417.556 304.064 425.06C308.315 417.353 310.542 410.256 311.351 405.794C312.363 400.927 312.363 392.613 312.768 387.746C313.173 383.081 313.375 374.159 314.388 366.858C314.59 365.438 314.995 364.019 315.197 362.802C316.007 359.963 317.424 358.138 318.436 357.327C319.043 356.718 319.65 356.718 320.055 356.921C320.258 357.124 320.46 357.327 320.662 357.529C321.067 358.746 321.067 360.166 320.46 361.991Z" fill="#EFCFC7" stroke="#283242" stroke-width="0.268297" stroke-miterlimit="10" stroke-linecap="round" stroke-linejoin="round"/>
<path d="M320.46 361.99C320.258 362.395 320.055 362.801 319.853 363.207C318.436 366.451 317.424 373.752 317.424 378.01C317.424 380.038 317.221 382.472 316.816 384.905C316.816 385.311 317.221 392.003 315.804 401.737C314.185 411.471 310.137 417.758 304.064 425.261C308.315 417.555 310.542 410.457 311.351 405.996C312.363 401.129 312.363 392.814 312.768 387.947C313.173 383.283 313.375 374.36 314.388 367.06C314.59 365.64 314.995 364.22 315.197 363.004C316.007 360.165 317.424 358.339 318.436 357.528C319.043 356.92 319.65 356.92 320.055 357.123C320.258 357.326 320.46 357.528 320.662 357.731C321.067 358.745 321.067 360.165 320.46 361.99Z" stroke="#737C89" stroke-width="0.268297" stroke-miterlimit="10" stroke-linecap="round" stroke-linejoin="round"/>
<path d="M292.33 422.025C294.961 419.795 300.224 414.319 302.451 404.991C304.677 395.662 305.689 393.229 305.689 387.753" stroke="#737C89" stroke-width="0.268297" stroke-miterlimit="10" stroke-linecap="round" stroke-linejoin="round"/>
<path d="M364.793 367.271C364.186 371.529 343.944 398.906 334.633 408.032C332.407 410.263 330.585 412.899 329.371 415.13C328.561 416.549 328.156 417.563 327.751 418.374C325.525 416.549 331.799 408.64 334.228 406.612C336.86 404.382 340.098 399.515 343.742 395.256C347.385 390.997 362.364 370.11 362.971 367.271C363.578 365.04 363.174 361.592 361.554 358.348C364.59 360.781 365.198 363.823 364.793 367.271Z" fill="#E6E8EB"/>
<path d="M288.283 532.941C286.258 558.696 283.425 577.961 281.401 588.912C277.555 587.493 278.567 586.276 278.972 581.409C279.781 574.514 285.044 516.515 286.056 501.103C286.866 489.544 286.461 439.048 286.258 426.678L286.461 426.88L286.663 427.083L286.866 428.3H287.068V428.908L287.271 429.111C287.271 429.111 287.27 429.314 287.473 429.314L287.675 429.517C287.878 429.517 288.08 430.328 288.283 430.328C289.295 442.698 290.914 499.278 288.283 532.941Z" fill="#E6E8EB"/>
<path d="M353.256 365.446C353.054 365.852 352.446 366.46 351.637 367.271C347.386 365.649 340.504 363.216 335.241 361.593C331.598 360.376 328.764 359.565 328.764 359.565C328.562 358.957 328.562 358.146 328.562 357.132C330.181 357.74 332.407 358.754 335.039 359.565C341.516 361.999 349.612 364.635 350.422 364.838C351.434 365.446 352.446 365.446 353.256 365.446Z" fill="#E6E8EB"/>
<path d="M319.256 382.675C318.649 383.487 317.839 384.298 316.827 385.312C317.232 382.878 317.434 380.242 317.434 378.417C317.434 376.389 317.637 373.753 318.042 371.116C317.839 374.969 318.042 380.648 319.256 382.675Z" fill="#E6E8EB"/>
<path d="M293.143 395.251C291.928 402.146 291.726 404.58 289.904 409.041C289.702 408.839 289.499 408.636 289.297 408.433C288.487 407.825 290.511 401.335 290.916 399.916C291.321 398.902 291.118 398.091 290.714 397.888C291.523 396.874 292.333 396.063 293.143 395.251Z" fill="#EFCFC7"/>
<path d="M323.708 352.866H323.506C321.077 352.866 319.255 352.866 316.219 353.88C315.409 354.083 314.599 354.488 313.587 354.894C312.778 355.3 311.766 355.3 311.766 354.894C312.17 354.894 312.98 354.691 313.385 354.488C314.195 354.083 315.814 353.069 318.648 352.663C321.077 352.461 323.101 352.055 323.708 352.866Z" fill="#E6E8EB"/>
<path d="M312.981 593.37C310.552 593.572 308.73 593.369 308.528 592.761C304.884 579.985 304.682 541.049 304.682 535.979C305.896 536.385 306.908 536.79 306.503 539.832C306.099 543.482 305.694 554.839 307.313 567.412C308.73 578.16 309.742 587.691 312.981 593.37Z" fill="#E6E8EB"/>
<path d="M299.212 389.987C298.402 389.378 298.807 387.35 298.807 383.7C298.807 379.441 295.568 381.064 294.961 379.036C294.556 377.414 294.556 376.602 294.961 375.588C296.58 381.064 300.224 381.672 299.212 389.987Z" fill="#EFCFC7"/>
<path d="M305.889 387.943C305.687 393.621 304.877 395.649 302.651 404.775C300.424 413.9 295.566 418.97 292.732 421.607C292.327 420.795 292.935 421.201 295.768 416.942C299.412 411.467 300.424 408.019 301.031 406.397C301.638 404.775 303.055 395.446 303.46 393.824C304.067 392.202 304.877 390.174 304.877 389.362C305.08 388.957 305.282 388.348 305.889 387.943Z" fill="#EFCFC7"/>
<path d="M328.566 353.47C328.566 353.673 328.566 354.079 328.566 354.281C327.351 354.687 325.125 355.093 324.113 355.093C322.493 355.093 319.457 355.093 318.85 354.484C318.647 354.281 318.647 354.079 318.647 353.876C319.052 354.079 319.66 354.281 320.267 354.281C320.874 354.281 323.91 354.484 324.922 354.281C325.732 354.281 327.554 353.673 328.566 353.47Z" fill="#E6E8EB"/>
<path d="M317.223 351.846C315.603 352.455 313.579 353.063 311.96 354.483C311.757 354.483 311.353 354.483 311.15 354.483C311.15 354.483 311.15 354.483 310.948 354.483C310.948 354.483 310.948 354.483 310.745 354.483C310.543 354.483 310.543 354.28 310.543 354.077C310.948 354.28 311.353 354.28 311.555 354.077C311.757 354.077 312.567 353.266 313.782 352.86C314.794 352.252 316.413 351.846 316.615 351.846C317.02 351.644 317.223 351.846 317.223 351.846Z" fill="#E6E8EB"/>
<path d="M316.633 350.44C315.621 350.845 314.204 351.454 313.192 352.062C312.18 352.468 311.37 353.076 311.168 353.482C310.965 353.482 310.965 353.279 310.763 353.279V353.076V352.873C310.965 352.873 311.37 352.873 311.572 352.873C311.775 352.67 312.584 352.265 314.001 351.454C315.621 350.845 316.228 350.44 316.43 350.44C316.43 350.237 316.633 350.237 316.633 350.44Z" fill="#E6E8EB"/>
<path d="M316.414 348.811C314.998 349.217 313.176 350.231 311.759 351.245C311.556 351.447 311.354 351.447 311.152 351.65C311.152 351.447 310.949 351.447 310.949 351.245C311.152 351.042 311.354 350.839 311.759 350.636C312.569 350.231 313.985 349.419 315.2 349.014C315.807 348.811 316.212 348.811 316.414 348.811Z" fill="#E6E8EB"/>
</svg>
